<?xml version="1.0" standalone="no"?>
<!DOCTYPE svg PUBLIC "-//W3C//DTD SVG 1.1//EN" "http://www.w3.org/Graphics/SVG/1.1/DTD/svg11.dtd" >
<svg>
<metadata>
Created by FontForge 20090914 at Fri Apr 29 17:20:35 2016
 By www-data
Copyright (c) 2010 - 2013, Matt McInerney (matt@pixelspread.com), Pablo Impallari (impallari@gmail.com), Rodrigo Fuenzalida (hello@rfuenzalida.com) with Reserved Font Name "Raleway"
</metadata>
<defs>
<font id="Raleway-Light" horiz-adv-x="612" >
  <font-face 
    font-family="Raleway Light"
    font-weight="300"
    font-stretch="normal"
    units-per-em="1000"
    panose-1="2 11 4 3 3 1 1 6 0 3"
    ascent="800"
    descent="-200"
    x-height="520"
    cap-height="710"
    bbox="-220 -223 1308 936"
    underline-thickness="50"
    underline-position="-50"
    unicode-range="U+0020-U+FB06"
  />
<missing-glyph horiz-adv-x="0" 
 />
    <glyph glyph-name="f_f" unicode="ff" horiz-adv-x="565" 
d="M501 695c-24 0 -44.1709 -4.83203 -60.5039 -14.499s-29.5 -22 -39.5 -37s-17.167 -31.833 -21.5 -50.5s-6.5 -37 -6.5 -55v-18h172v-41h-172v-479h-50v479h-172v-479h-50v479h-73v41h73v8c0 21.333 3 42.333 9 63s15.333 39.167 28 55.5s28.667 29.5 48 39.5
s42.333 15 69 15c23.333 0 44.333 -2.83301 63 -8.5s33.334 -11.834 44.001 -18.501c14 20 31.333 36 52 48s46.667 18 78 18c16 0 29.667 -1.5 41 -4.5s20.833 -6.33301 28.5 -10s13.834 -7.33398 18.501 -11.001s8 -6.16699 10 -7.5l-18 -36
c-5.33301 4.66699 -13.166 9.83398 -23.499 15.501s-26.166 8.5 -47.499 8.5zM322.996 520.001c0 22 1.66602 42.832 4.99902 62.499s9 37.167 17 52.5c-11.333 8.66699 -25 14.334 -41 17.001s-29.667 4 -41 4c-22 0 -40.167 -4 -54.5 -12s-25.666 -18.167 -33.999 -30.5
s-14.333 -26 -18 -41s-5.5 -29.5 -5.5 -43.5v-9h172z" />
    <glyph glyph-name="f_i" unicode="fi" horiz-adv-x="484" 
d="M101 479h-73v41h73v17c0 22.667 3.33301 46.167 10 70.5s17 46.166 31 65.499s32.167 35.333 54.5 48s49.166 19 80.499 19c18 0 34.833 -1.66699 50.5 -5s29.5 -7.16602 41.5 -11.499s22 -9 30 -14s13.667 -8.83301 17 -11.5l-25 -35
c-9.33301 8.66699 -24 16.167 -44 22.5s-42.667 9.5 -68 9.5c-22.667 0 -42.167 -4.83301 -58.5 -14.5s-29.666 -22 -39.999 -37s-17.833 -31.833 -22.5 -50.5s-7 -37 -7 -55v-18h255v-520h-50v479h-205v-479h-50v479z" />
    <glyph glyph-name="f_l" unicode="fl" horiz-adv-x="562" 
d="M564 8c0 -0.666992 -2.66504 -1.66504 -7.99805 -2.99805s-12 -2.83301 -20 -4.5s-17 -3.16699 -27 -4.5s-20 -2 -30 -2c-30 0 -53 9 -69 27s-24 39 -24 63v503c0 12.667 -2 25.5 -6 38.5s-10.5 24.667 -19.5 35s-20.833 18.666 -35.5 24.999s-32.667 9.5 -54 9.5
s-39.5 -4.5 -54.5 -13.5s-27.333 -20.833 -37 -35.5s-16.834 -31.5 -21.501 -50.5s-7 -38.833 -7 -59.5v-16h116v-41h-116v-479h-50v479h-73v41h73v20c0 28.667 3.33301 55.167 10 79.5s17 45.5 31 63.5s31.667 32 53 42s46.666 15 75.999 15
c26.667 0 50.334 -3.66699 71.001 -11s38 -17.5 52 -30.5s24.5 -28.333 31.5 -46s10.5 -36.834 10.5 -57.501v-493c0 -14 4.66699 -27.833 14 -41.5s23.666 -20.5 42.999 -20.5c13.333 0 26.5 1.66699 39.5 5s19.833 5 20.5 5z" />
    <glyph glyph-name="f_f_i" unicode="ffi" horiz-adv-x="706" 
d="M101 479h-72.998v41h73v8c0 20.667 3 41.167 9 61.5s15.333 38.833 28 55.5s28.667 30.167 48 40.5s42.666 15.5 69.999 15.5c23.333 0 44.166 -2.83301 62.499 -8.5s32.833 -11.834 43.5 -18.501c14.667 20 33.167 36 55.5 48s49.5 18 81.5 18
c17.333 0 33.5 -1.66699 48.5 -5s28.5 -7.16602 40.5 -11.499s22.333 -9 31 -14s15 -8.83301 19 -11.5l-26 -35c-8.66699 8 -23.167 15.333 -43.5 22s-41.833 10 -64.5 10c-24 0 -44.333 -4.83301 -61 -14.5s-30.167 -22 -40.5 -37s-17.833 -31.833 -22.5 -50.5
s-7 -37 -7 -55v-18h255v-520h-50v479h-205v-479h-50v479h-172v-479h-50v479zM323.002 520c0 21.333 1.66602 41.998 4.99902 61.998s9 37.667 17 53c-11.333 8.66699 -25 14.334 -41 17.001s-29.667 4 -41 4c-22 0 -40.167 -4.16699 -54.5 -12.5
s-25.666 -18.666 -33.999 -30.999s-14.333 -26 -18 -41s-5.5 -29.5 -5.5 -43.5v-8h172z" />
    <glyph glyph-name="f_f_l" unicode="ffl" horiz-adv-x="788" 
d="M708 -6c-32 0 -56.165 9.00098 -72.498 27.001s-24.5 39 -24.5 63v503c0 13.333 -2.16699 26.5 -6.5 39.5s-11 24.5 -20 34.5s-20.5 18.167 -34.5 24.5s-30.667 9.5 -50 9.5c-22.667 0 -41.834 -4.66699 -57.501 -14s-28.334 -21.5 -38.001 -36.5
s-16.667 -32.167 -21 -51.5s-6.5 -39 -6.5 -59v-14h115v-41h-115v-479h-50v479h-176v-479h-50v479h-73v41h73v7c0 24 3.5 46.5 10.5 67.5s17.167 39.333 30.5 55s30.166 28.167 50.499 37.5s43.5 14 69.5 14c24 0 43.833 -2.83301 59.5 -8.5s28.834 -11.5 39.501 -17.5
c14 20.667 32.167 36.667 54.5 48s49.5 17 81.5 17c26.667 0 50.167 -3.66699 70.5 -11s37.5 -17.5 51.5 -30.5s24.5 -28.333 31.5 -46s10.5 -36.834 10.5 -57.501v-493c0 -14 4.66699 -27.833 14 -41.5s24 -20.5 44 -20.5c6 0 12.333 0.5 19 1.5s12.834 2.16699 18.501 3.5
l14.5 3.5c4 1 6.33301 1.5 7 1.5l12 -42c0 -0.666992 -2.66699 -1.66699 -8 -3s-12 -2.83301 -20 -4.5s-16.833 -3.16699 -26.5 -4.5s-18.834 -2 -27.501 -2zM327.002 520.001c0 24 1.33105 45.999 3.99805 65.999s7 36.667 13 50
c-11.333 8.66699 -23.666 14.167 -36.999 16.5s-25.666 3.5 -36.999 3.5c-21.333 0 -39.5 -3.83301 -54.5 -11.5s-27.333 -17.5 -37 -29.5s-16.667 -25.667 -21 -41s-6.5 -30.666 -6.5 -45.999v-8h176z" />
    <glyph glyph-name=".notdef" horiz-adv-x="0" 
 />
    <glyph glyph-name="space" unicode=" " horiz-adv-x="257" 
 />
    <glyph glyph-name="exclam" unicode="!" horiz-adv-x="243" 
d="M96 218v499h51v-499h-51zM96 0v102h51v-102h-51z" />
    <glyph glyph-name="quotedbl" unicode="&#x22;" horiz-adv-x="264" 
d="M70 540v174h45v-174h-45zM149 540v174h44v-174h-44z" />
    <glyph glyph-name="numbersign" unicode="#" horiz-adv-x="669" 
d="M631 466h-125l-51 -213h134v-41h-144l-52 -212h-44l53 212h-208l-52 -212h-44l53 212h-113v41h122l52 213h-133v39h143l49 205h44l-50 -205h208l49 205h44l-50 -205h115v-39zM412 253l51 213h-208l-52 -213h209z" />
    <glyph glyph-name="dollar" unicode="$" horiz-adv-x="617" 
d="M513 592c-45.333 50.667 -108.334 76.333 -189.001 77v-291h3c38 -8 72.5 -16.833 103.5 -26.5s57.333 -21.834 79 -36.501s38.334 -32.667 50.001 -54s17.5 -47.666 17.5 -78.999s-6 -58.666 -18 -81.999s-29 -42.833 -51 -58.5s-48.333 -27.5 -79 -35.5
s-64.667 -12 -102 -12v-93h-31v94c-99.333 5.33301 -184 40.333 -254 105l27 41c27.333 -28.667 60.333 -52 99 -70s82 -28.667 130 -32v295c-37.333 8 -70.5 16.5 -99.5 25.5s-53.167 20.333 -72.5 34s-34 30.167 -44 49.5s-15 43.666 -15 72.999c0 30 5.5 57 16.5 81
s26.5 44.333 46.5 61s44.167 29.834 72.5 39.501s59.5 15.167 93.5 16.5v101h31v-100c44 -1.33301 83.333 -8.83301 118 -22.5s66 -33.834 94 -60.501zM522.999 175.999c0 22 -4.16797 41 -12.501 57s-20.666 29.833 -36.999 41.5s-37 21.667 -62 30
s-54.167 16.5 -87.5 24.5v-290h1c62 0 110.5 11.333 145.5 34s52.5 57 52.5 103zM118.998 522.999c0 -21.333 3.33105 -39.167 9.99805 -53.5s17.334 -26.666 32.001 -36.999s33.334 -19.333 56.001 -27s49.667 -14.834 81 -21.501v284
c-62.667 -2.66699 -108.167 -17 -136.5 -43s-42.5 -60 -42.5 -102z" />
    <glyph glyph-name="percent" unicode="%" horiz-adv-x="698" 
d="M188 437c-20 0 -38.833 3.66699 -56.5 11s-33 17.333 -46 30s-23.333 27.667 -31 45s-11.5 35.666 -11.5 54.999c0 20 3.83301 38.5 11.5 55.5s18 32 31 45s28.333 23.167 46 30.5s36.5 11 56.5 11s38.833 -3.66699 56.5 -11s33 -17.5 46 -30.5s23.333 -28 31 -45
s11.5 -35.5 11.5 -55.5c0 -19.333 -3.83301 -37.666 -11.5 -54.999s-18 -32.333 -31 -45s-28.333 -22.667 -46 -30s-36.5 -11 -56.5 -11zM188 469c14.667 0 28.502 3.00098 41.502 9.00098s24.167 14 33.5 24s16.833 21.667 22.5 35s8.5 27 8.5 41
c0 15.333 -2.83301 29.666 -8.5 42.999s-13.5 25 -23.5 35s-21.333 17.833 -34 23.5s-26 8.5 -40 8.5c-14.667 0 -28.334 -3 -41.001 -9s-23.834 -14 -33.501 -24s-17.167 -21.667 -22.5 -35s-8 -27.333 -8 -42c0 -15.333 2.83301 -29.5 8.5 -42.5s13.167 -24.5 22.5 -34.5
s20.5 -17.833 33.5 -23.5s26.5 -8.5 40.5 -8.5zM510.002 -9.99902c-20 0 -38.833 3.66699 -56.5 11s-33 17.5 -46 30.5s-23.333 28 -31 45s-11.5 35.5 -11.5 55.5c0 19.333 3.83301 37.666 11.5 54.999s18 32.333 31 45s28.333 22.667 46 30s36.5 11 56.5 11
s38.833 -3.66699 56.5 -11s33 -17.333 46 -30s23.333 -27.667 31 -45s11.5 -35.666 11.5 -54.999c0 -20 -3.83301 -38.5 -11.5 -55.5s-18 -32 -31 -45s-28.333 -23.167 -46 -30.5s-36.5 -11 -56.5 -11zM510.002 22.001c14.667 0 28.5 2.99902 41.5 8.99902
s24.167 14 33.5 24s16.833 21.667 22.5 35s8.5 27.333 8.5 42s-2.83301 28.667 -8.5 42s-13.5 25 -23.5 35s-21.333 17.833 -34 23.5s-26 8.5 -40 8.5c-14.667 0 -28.334 -3 -41.001 -9s-23.834 -14 -33.501 -24s-17.167 -21.667 -22.5 -35s-8 -27 -8 -41
c0 -15.333 2.66699 -29.666 8 -42.999s12.833 -25 22.5 -35s20.834 -17.833 33.501 -23.5s26.334 -8.5 41.001 -8.5zM59.002 21l279 344l274 348l28 -23l-279 -345l-275 -348z" />
    <glyph glyph-name="ampersand" unicode="&#x26;" horiz-adv-x="655" 
d="M581 0l-90.9961 95.0029c-27.333 -32 -59.333 -57.5 -96 -76.5s-77.334 -28.5 -122.001 -28.5c-29.333 0 -57.5 4.33301 -84.5 13s-50.833 21.167 -71.5 37.5s-37 36 -49 59s-18 49.167 -18 78.5c0 24 4.16699 46.167 12.5 66.5s19.666 39 33.999 56s31 33.167 50 48.5
s39.167 30 60.5 44c-18.667 20 -34.5 38.167 -47.5 54.5s-23.5 31.166 -31.5 44.499s-13.833 26.166 -17.5 38.499s-5.5 24.5 -5.5 36.5c0 20.667 4.5 40.167 13.5 58.5s21.167 34.5 36.5 48.5s33.666 25 54.999 33s44.333 12 69 12c22.667 0 43.667 -3.5 63 -10.5
s36.166 -16.5 50.499 -28.5s25.5 -26.333 33.5 -43s12 -34.667 12 -54c0 -20 -4.33301 -38.833 -13 -56.5s-20.5 -34.334 -35.5 -50.001s-32.333 -30.667 -52 -45l-61.5 -43.5l214 -222c14.667 26 26 54.5 34 85.5s12 63.167 12 96.5h44
c-1.33301 -80 -21.333 -151.333 -60 -214l129 -134h-67zM278.004 31.0029c38 0 72.3311 8.49902 102.998 25.499s57.334 39.833 80.001 68.5l-226 237c-19.333 -13.333 -37.166 -26.666 -53.499 -39.999s-30.833 -27.5 -43.5 -42.5s-22.5 -31 -29.5 -48
s-10.5 -35.5 -10.5 -55.5c0 -24 5.33301 -45 16 -63s24.5 -33.167 41.5 -45.5s36.333 -21.5 58 -27.5s43.167 -9 64.5 -9zM151.002 568.002c0 -8.66699 1.16504 -17.333 3.49805 -26s7 -18.667 14 -30s16.667 -24.5 29 -39.5s28.166 -32.833 47.499 -53.5
c44 28.667 79.333 55.167 106 79.5s40 51.833 40 82.5c0 28 -10.667 51.167 -32 69.5s-48.666 27.5 -81.999 27.5c-18 0 -34.667 -3 -50 -9s-28.666 -14 -39.999 -24s-20.166 -21.667 -26.499 -35s-9.5 -27.333 -9.5 -42z" />
    <glyph glyph-name="quotesingle" unicode="'" horiz-adv-x="185" 
d="M70 539v175h45v-175h-45z" />
    <glyph glyph-name="parenleft" unicode="(" horiz-adv-x="256" 
d="M46 345c0 34 3.66602 67.5 10.999 100.5s17.166 65.5 29.499 97.5s26.833 63.833 43.5 95.5s34.334 63.5 53.001 95.5l39 -20c-14.667 -21.333 -29.667 -46.833 -45 -76.5s-29.166 -61.167 -41.499 -94.5s-22.5 -67.333 -30.5 -102s-12 -67.667 -12 -99
c0 -52 11.333 -108.833 34 -170.5s54.334 -122.5 95.001 -182.5l-38 -22c-42.667 62.667 -76.334 125.667 -101.001 189s-37 126.333 -37 189z" />
    <glyph glyph-name="parenright" unicode=")" horiz-adv-x="255" 
d="M209 345c0 -62.667 -12.1689 -125.667 -36.502 -189s-57.833 -126.333 -100.5 -189l-38 22c40 60 71.333 120.833 94 182.5s34 118.5 34 170.5c0 31.333 -4 64.333 -12 99s-18.333 68.667 -31 102s-26.5 64.833 -41.5 94.5s-29.833 55.167 -44.5 76.5l39 20
c18.667 -32 36.334 -63.833 53.001 -95.5s31.334 -63.5 44.001 -95.5s22.5 -64.5 29.5 -97.5s10.5 -66.5 10.5 -100.5z" />
    <glyph glyph-name="asterisk" unicode="*" horiz-adv-x="314" 
d="M90 553l42 60l-68 22l9 29l68 -24v72h31v-72l69 24l9 -29l-68 -22l43 -60l-26 -18l-42 61l-42 -61z" />
    <glyph glyph-name="plus" unicode="+" horiz-adv-x="414" 
d="M360 376v-42h-130v-141h-46v141h-131v42h131v141h46v-141h130z" />
    <glyph glyph-name="comma" unicode="," horiz-adv-x="238" 
d="M97 -81l15 79h-18v87h51v-87l-21 -79h-27z" />
    <glyph glyph-name="hyphen" unicode="-" horiz-adv-x="422" 
d="M67 249v46h288v-46h-288z" />
    <glyph glyph-name="period" unicode="." horiz-adv-x="177" 
d="M67 0v85h44v-85h-44z" />
    <glyph glyph-name="slash" unicode="/" horiz-adv-x="579" 
d="M551 710l-467 -710h-57l466 710h58z" />
    <glyph glyph-name="zero" unicode="0" horiz-adv-x="611" 
d="M554 293c0 -44 -6.16699 -84.5 -18.5 -121.5s-29.666 -69 -51.999 -96s-48.666 -48 -78.999 -63s-63.5 -22.5 -99.5 -22.5s-69.167 7.5 -99.5 22.5s-56.5 36 -78.5 63s-39.167 59 -51.5 96s-18.5 77.5 -18.5 121.5s6.16699 84.5 18.5 121.5s29.5 69 51.5 96
s48.167 48.167 78.5 63.5s63.5 23 99.5 23s69.167 -7.66699 99.5 -23s56.666 -36.5 78.999 -63.5s39.666 -59 51.999 -96s18.5 -77.5 18.5 -121.5zM503 293c0 38 -4.83301 72.833 -14.5 104.5s-23.167 58.667 -40.5 81s-38.166 39.833 -62.499 52.5s-51.166 19 -80.499 19
s-56.166 -6.33301 -80.499 -19s-45.166 -30.167 -62.499 -52.5s-30.833 -49.333 -40.5 -81s-14.5 -66.5 -14.5 -104.5s4.83301 -72.667 14.5 -104s23.167 -58.333 40.5 -81s38.166 -40.167 62.499 -52.5s51.166 -18.5 80.499 -18.5s56.166 6.16699 80.499 18.5
s45.166 29.833 62.499 52.5s30.833 49.667 40.5 81s14.5 66 14.5 104z" />
    <glyph glyph-name="one" unicode="1" horiz-adv-x="408" 
d="M387 46l-0.000976562 -46h-319v46h142v462c-6 -8 -15.333 -16.667 -28 -26s-27 -18.166 -43 -26.499s-32.333 -15.333 -49 -21s-31.667 -8.5 -45 -8.5v50c16.667 0 34.334 4.5 53.001 13.5s36.167 19.167 52.5 30.5s30 22.166 41 32.499s17.167 16.5 18.5 18.5h50v-525
h127z" />
    <glyph glyph-name="two" unicode="2" horiz-adv-x="508" 
d="M45 0c0 18.667 1.66895 39.499 5.00195 62.499s10.833 46.333 22.5 70s28.667 46.667 51 69s52.166 42.5 89.499 60.5c18.667 9.33301 38.667 18.666 60 27.999s41 20.166 59 32.499s33 26.5 45 42.5s18 35.333 18 58c0 13.333 -3 26.666 -9 39.999
s-14.833 25.333 -26.5 36s-26.5 19.334 -44.5 26.001s-39 10 -63 10c-23.333 0 -44.166 -3.33301 -62.499 -10s-34.333 -14.667 -48 -24s-25 -18.666 -34 -27.999s-15.5 -16.666 -19.5 -21.999l-34 35l19.5 19.5c10.333 10.333 24.166 21 41.499 32s38.166 21 62.499 30
s51.5 13.5 81.5 13.5s56.833 -4.16699 80.5 -12.5s43.667 -19.666 60 -33.999s28.666 -31 36.999 -50s12.5 -38.833 12.5 -59.5c0 -27.333 -6.66699 -51 -20 -71s-29.666 -37.5 -48.999 -52.5s-39.5 -27.5 -60.5 -37.5s-39.167 -18.333 -54.5 -25
c-52 -22 -91.833 -48.167 -119.5 -78.5s-42.167 -68.5 -43.5 -114.5h358v-46h-415z" />
    <glyph glyph-name="three" unicode="3" horiz-adv-x="529" 
d="M330 236c45.333 -7.33301 81.665 -27.6699 108.998 -61.0029s41 -74.333 41 -123c0 -30 -5.5 -57.167 -16.5 -81.5s-26.333 -45.166 -46 -62.499s-43.167 -30.833 -70.5 -40.5s-57.666 -14.5 -90.999 -14.5c-50 0 -94 10.667 -132 32s-65.667 50.666 -83 87.999l37 30
c13.333 -32 35.333 -57.333 66 -76s68.334 -28 113.001 -28c52.667 0 94.334 13.667 125.001 41s46 65.333 46 114s-15.833 87.334 -47.5 116.001s-76.5 43 -134.5 43h-24v44h26c54 0 95.333 12.167 124 36.5s43 56.833 43 97.5c0 22 -4 41.5 -12 58.5s-19 31.5 -33 43.5
s-30.667 21.167 -50 27.5s-40.333 9.5 -63 9.5c-40 0 -75 -9.16699 -105 -27.5s-52 -43.166 -66 -74.499l-34 28c8 18 18.833 34.333 32.5 49s29.667 27.334 48 38.001s38.333 18.834 60 24.501s44.5 8.5 68.5 8.5c30 0 57.5 -4.33301 82.5 -13s46.667 -21 65 -37
s32.666 -35 42.999 -57s15.5 -46.333 15.5 -73c0 -20.667 -3.16699 -40 -9.5 -58s-15.5 -34 -27.5 -48s-26.5 -25.833 -43.5 -35.5s-35.833 -15.834 -56.5 -18.501z" />
    <glyph glyph-name="four" unicode="4" horiz-adv-x="536" 
d="M367 -127v186h-346v44l361 468h35v-466h88v-46h-88v-186h-50zM77 105h294v385z" />
    <glyph glyph-name="five" unicode="5" horiz-adv-x="542" 
d="M274 310c32 0 62.001 -5.50195 90.001 -16.502s52.5 -26.5 73.5 -46.5s37.5 -43.833 49.5 -71.5s18 -58.167 18 -91.5c0 -35.333 -6.5 -67.166 -19.5 -95.499s-30.5 -52.833 -52.5 -73.5s-47.667 -36.5 -77 -47.5s-60.333 -16.5 -93 -16.5
c-50.667 0 -96.167 12.833 -136.5 38.5s-70.5 59.5 -90.5 101.5l37 21c18 -34.667 44 -62.5 78 -83.5s71.333 -31.5 112 -31.5c26.667 0 51.667 4.5 75 13.5s43.5 21.833 60.5 38.5s30.5 36.334 40.5 59.001s15 48 15 76c0 26.667 -4.83301 51 -14.5 73
s-22.834 41 -39.501 57s-36.167 28.333 -58.5 37s-46.5 13 -72.5 13c-34 0 -66 -7.5 -96 -22.5s-54.667 -36.5 -74 -64.5h-48c0.666992 4.66699 2.5 14 5.5 28s6.33301 30.667 10 50l12.5 64l14 70l37 182h340v-47h-302l-56 -281c20 21.333 44 37.833 72 49.5
s58 17.5 90 17.5z" />
    <glyph glyph-name="six" unicode="6" horiz-adv-x="600" 
d="M556 233c0 -34 -6.33398 -65.6699 -19.001 -95.0029s-30.334 -55 -53.001 -77s-49.167 -39.333 -79.5 -52s-62.833 -19 -97.5 -19c-36.667 0 -70.5 6.66699 -101.5 20s-57.667 32.333 -80 57s-39.833 54.834 -52.5 90.501s-19 76.167 -19 121.5
c0 74.667 6.33301 139.334 19 194.001s30.334 100 53.001 136s49.834 62.667 81.501 80s66.5 26 104.5 26c48 0 90.5 -12.333 127.5 -37s64.5 -58.334 82.5 -101.001l-35 -27c-13.333 36 -36 65 -68 87s-67.667 33 -107 33c-31.333 0 -59.833 -7.5 -85.5 -22.5
s-47.5 -37 -65.5 -66s-32.167 -64.5 -42.5 -106.5s-15.5 -90 -15.5 -144c7.33301 21.333 18 40.833 32 58.5s30.167 32.834 48.5 45.501s38.5 22.5 60.5 29.5s45 10.5 69 10.5c34 0 65.667 -6.33301 95 -19s55 -30 77 -52s39.333 -47.667 52 -77s19 -60.666 19 -93.999z
M307.999 34.9971c27.333 0 53.166 5.16699 77.499 15.5s45.5 24.5 63.5 42.5s32.333 39 43 63s16 49.667 16 77s-5.33301 53 -16 77s-25 45 -43 63s-39.167 32.333 -63.5 43s-50.166 16 -77.499 16s-53.166 -5.33301 -77.499 -16s-45.5 -25 -63.5 -43s-32.333 -39 -43 -63
s-16 -49.667 -16 -77s5.33301 -53 16 -77s25 -45 43 -63s39.167 -32.167 63.5 -42.5s50.166 -15.5 77.499 -15.5z" />
    <glyph glyph-name="seven" unicode="7" horiz-adv-x="535" 
d="M439 536h-399v47h479l-361 -710h-57z" />
    <glyph glyph-name="eight" unicode="8" horiz-adv-x="589" 
d="M537 194c0 -30.667 -6.66699 -58.3291 -20 -82.9961s-31.166 -45.834 -53.499 -63.501s-48.5 -31.167 -78.5 -40.5s-61.333 -14 -94 -14c-35.333 0 -67.833 5.5 -97.5 16.5s-55 25.667 -76 44s-37.333 39.833 -49 64.5s-17.5 51 -17.5 79c0 23.333 4.33301 45 13 65
s20.167 37.833 34.5 53.5s30.5 29 48.5 40s36.333 19.5 55 25.5c-17.333 6 -33.5 14 -48.5 24s-28.333 21.333 -40 34s-20.834 27 -27.501 43s-10 33 -10 51c0 28.667 6.5 54 19.5 76s29.833 40.5 50.5 55.5s44.167 26.333 70.5 34s52.5 11.5 78.5 11.5
s52 -3.83301 78 -11.5s49.333 -19 70 -34s37.5 -33.333 50.5 -55s19.5 -46.834 19.5 -75.501c0 -18.667 -3.5 -35.834 -10.5 -51.501s-16.167 -30 -27.5 -43s-24.833 -24.5 -40.5 -34.5s-31.834 -18 -48.501 -24c20.667 -7.33301 40.334 -16.833 59.001 -28.5
s34.667 -25.5 48 -41.5s24 -33.833 32 -53.5s12 -40.834 12 -63.501zM487 198.005c0 25.333 -5.83301 48 -17.5 68s-26.834 36.833 -45.501 50.5s-39.5 24.167 -62.5 31.5s-45.833 11 -68.5 11c-23.333 0 -46.333 -3.83301 -69 -11.5s-43 -18.5 -61 -32.5
s-32.667 -31 -44 -51s-17 -42.333 -17 -67c0 -25.333 5.83301 -47.833 17.5 -67.5s26.834 -36.334 45.501 -50.001s39.5 -24.167 62.5 -31.5s45.833 -11 68.5 -11s45.5 3.83301 68.5 11.5s43.5 18.5 61.5 32.5s32.667 30.833 44 50.5s17 41.834 17 66.501zM127 531.005
c0 -21.333 5.16602 -39.998 15.499 -55.998s23.5 -29.667 39.5 -41s33.833 -19.833 53.5 -25.5s39.167 -8.5 58.5 -8.5s39 3 59 9s38 14.667 54 26s29.167 25.166 39.5 41.499s15.5 35.166 15.5 56.499c0 20.667 -4.83301 39.167 -14.5 55.5s-22.334 30 -38.001 41
s-33.667 19.5 -54 25.5s-41.166 9 -62.499 9s-42 -3 -62 -9s-37.667 -14.833 -53 -26.5s-27.666 -25.667 -36.999 -42s-14 -34.833 -14 -55.5z" />
    <glyph glyph-name="nine" unicode="9" horiz-adv-x="583" 
d="M37 328c0 34 6.33105 65.6689 18.998 95.002s30.334 55 53.001 77s49 39.333 79 52s62.667 19 98 19c36.667 0 70.334 -6.66699 101.001 -20s57.334 -32.333 80.001 -57s40.334 -55 53.001 -91s19 -76.333 19 -121c0 -74.667 -6.33301 -139.334 -19 -194.001
s-30.334 -100 -53.001 -136s-49.834 -62.667 -81.501 -80s-66.5 -26 -104.5 -26c-48 0 -90.5 12.333 -127.5 37s-64.5 58.334 -82.5 101.001l35 27c13.333 -36 36 -65 68 -87s67.667 -33 107 -33c31.333 0 59.833 7.5 85.5 22.5s47.5 37 65.5 66s32.167 64.5 42.5 106.5
s15.5 90 15.5 144c-7.33301 -21.333 -18 -40.833 -32 -58.5s-30.167 -32.834 -48.5 -45.501s-38.5 -22.5 -60.5 -29.5s-45 -10.5 -69 -10.5c-34 0 -65.667 6.33301 -95 19s-55 30 -77 52s-39.333 47.667 -52 77s-19 60.666 -19 93.999zM284.998 526.002
c-27.333 0 -53.166 -5.16699 -77.499 -15.5s-45.5 -24.5 -63.5 -42.5s-32.333 -39 -43 -63s-16 -49.667 -16 -77s5.33301 -53 16 -77s25 -45 43 -63s39.167 -32.333 63.5 -43s50.166 -16 77.499 -16s53.166 5.33301 77.499 16s45.5 25 63.5 43s32.333 39 43 63
s16 49.667 16 77c0 26.667 -5.33301 52 -16 76s-25 45 -43 63s-39.167 32.333 -63.5 43s-50.166 16 -77.499 16z" />
    <glyph glyph-name="colon" unicode=":" horiz-adv-x="177" 
d="M67 432v85h43v-85h-43zM67 0v85h43v-85h-43z" />
    <glyph glyph-name="semicolon" unicode=";" horiz-adv-x="191" 
d="M71 432v85h44v-85h-44zM74 -81l14 79h-18v87h51v-87l-20 -79h-27z" />
    <glyph glyph-name="less" unicode="&#x3c;" horiz-adv-x="506" 
d="M34 273l418 251v-54l-346 -211l346 -211v-55l-418 250v30z" />
    <glyph glyph-name="equal" unicode="=" horiz-adv-x="437" 
d="M69 208v38h299v-38h-299zM69 306v38h299v-38h-299z" />
    <glyph glyph-name="greater" unicode="&#x3e;" horiz-adv-x="506" 
d="M472 243l-418 -250v55l345 211l-345 211v54l418 -251v-30z" />
    <glyph glyph-name="question" unicode="?" horiz-adv-x="473" 
d="M163 193c0 26 1.83496 48.3301 5.50195 66.9971s9.16699 34.834 16.5 48.501s16.333 25.334 27 35.001s22.667 18.5 36 26.5c14 8 29.333 16.167 46 24.5s32.167 18.333 46.5 30s26.166 26.167 35.499 43.5s14 39 14 65c0 24 -4.16699 45 -12.5 63s-19.333 33 -33 45
s-29.334 20.833 -47.001 26.5s-35.834 8.5 -54.501 8.5c-38 0 -72.333 -10 -103 -30s-53.667 -46 -69 -78l-36 22c8.66699 20.667 20.5 39 35.5 55s31.667 29.5 50 40.5s38 19.333 59 25s42.167 8.5 63.5 8.5c24.667 0 48.5 -4 71.5 -12s43.5 -19.833 61.5 -35.5
s32.333 -35.334 43 -59.001s16 -51.167 16 -82.5c0 -28 -4.16699 -51.667 -12.5 -71s-19.333 -35.666 -33 -48.999s-29.167 -24.833 -46.5 -34.5s-34.666 -18.5 -51.999 -26.5c-14 -6.66699 -26.167 -13.5 -36.5 -20.5s-19 -16.167 -26 -27.5s-12.333 -25.666 -16 -42.999
s-5.5 -39 -5.5 -65h-44zM164.002 -0.00292969v98h44v-98h-44z" />
    <glyph glyph-name="at" unicode="@" horiz-adv-x="834" 
d="M416 603c49.333 0 95.834 -9.50391 139.501 -28.5039s82 -45.333 115 -79s59 -73.834 78 -120.501s28.5 -97.667 28.5 -153c0 -9.33301 -0.5 -21.833 -1.5 -37.5s-3.16699 -32.334 -6.5 -50.001s-8.16602 -35.5 -14.499 -53.5s-14.833 -34.167 -25.5 -48.5
s-23.834 -26 -39.501 -35s-34.5 -13.5 -56.5 -13.5c-16.667 0 -30 2.5 -40 7.5s-17.833 11.833 -23.5 20.5s-9.66699 18.834 -12 30.501s-4.16602 23.834 -5.49902 36.501c-18 -19.333 -41.833 -36 -71.5 -50s-61.834 -21 -96.501 -21c-46 0 -82.333 12.333 -109 37
s-40 56 -40 94c0 24.667 5.5 45.5 16.5 62.5s25.333 30.5 43 40.5s37.334 17.167 59.001 21.5s43.5 6.5 65.5 6.5c30 0 56.333 -2.83301 79 -8.5s39.667 -10.5 51 -14.5c0 25.333 -2 48.5 -6 69.5s-10.667 39 -20 54s-22.333 26.667 -39 35s-37.334 12.5 -62.001 12.5
c-25.333 0 -50.166 -4.16699 -74.499 -12.5s-46.5 -20.166 -66.5 -35.499l-16 31c23.333 15.333 48.5 27.833 75.5 37.5s55.5 14.5 85.5 14.5c35.333 0 63.5 -6 84.5 -18s37 -27.833 48 -47.5s18.167 -41.667 21.5 -66s5 -48.5 5 -72.5v-138c0 -14.667 0.5 -28 1.5 -40
s3.33301 -22.167 7 -30.5s9 -14.666 16 -18.999s16.167 -6.5 27.5 -6.5c21.333 0 39.166 7.33301 53.499 22s25.666 32.5 33.999 53.5s14.166 43.5 17.499 67.5s5 45.667 5 65c0 48.667 -8.5 94.5 -25.5 137.5s-40.5 80.167 -70.5 111.5s-65.167 56.166 -105.5 74.499
s-83.833 27.5 -130.5 27.5c-45.333 0 -88.333 -8.5 -129 -25.5s-76.5 -40.833 -107.5 -71.5s-55.5 -67 -73.5 -109s-27 -88 -27 -138c0 -48 8.5 -93.167 25.5 -135.5s40.5 -79.166 70.5 -110.499s65.333 -56 106 -74s84.334 -27 131.001 -27c53.333 0 104.333 12.667 153 38
l12 -27c-52.667 -26.667 -107.667 -40 -165 -40c-50 0 -97 9.5 -141 28.5s-82.5 45.333 -115.5 79s-59 73.334 -78 119.001s-28.5 95.5 -28.5 149.5c0 56 10.167 106.833 30.5 152.5s47.5 84.834 81.5 117.501s73.167 58 117.5 76s90.5 27 138.5 27zM480.001 63.9961
c14.667 6.66699 26.499 14.3301 35.499 22.9971s16 17.834 21 27.501s8.16699 19.334 9.5 29.001s2 19.5 2 29.5v42c-4 0.666992 -10 2.16699 -18 4.5s-17.5 4.83301 -28.5 7.5s-23.833 5.16699 -38.5 7.5s-30.334 3.5 -47.001 3.5c-18 0 -35.667 -1.66699 -53 -5
s-32.833 -8.66602 -46.5 -15.999s-24.5 -17.166 -32.5 -29.499s-12 -27.833 -12 -46.5c0 -30.667 11 -54.834 33 -72.501s49 -26.5 81 -26.5c16.667 0 33.334 2.16699 50.001 6.5s31.334 9.5 44.001 15.5z" />
    <glyph glyph-name="A" unicode="A" horiz-adv-x="675" 
d="M316 710h44l300 -710h-54l-99 234h-339l-99 -234h-55zM493 276l-155 372l-158 -372h313z" />
    <glyph glyph-name="B" unicode="B" horiz-adv-x="662" 
d="M616 184c0 -26 -5.00195 -50.167 -15.002 -72.5s-23.667 -41.833 -41 -58.5s-37.666 -29.667 -60.999 -39s-48 -14 -74 -14h-332v710h331c24.667 0 47 -5.33301 67 -16s37 -24.5 51 -41.5s24.833 -36.333 32.5 -58s11.5 -43.5 11.5 -65.5c0 -36 -9 -69 -27 -99
s-43 -52 -75 -66c40.667 -12 72.834 -34.5 96.501 -67.5s35.5 -70.5 35.5 -112.5zM564.998 191c0 18.667 -3.33203 36.832 -9.99902 54.499s-16 33.334 -28 47.001s-26.167 24.5 -42.5 32.5s-33.833 12 -52.5 12h-288v-291h281c20 0 38.5 4 55.5 12s31.667 18.833 44 32.5
s22.166 29.167 29.499 46.5s11 35.333 11 54zM143.999 663.998l-0.000976562 -284h260c19.333 0 37 4 53 12s29.833 18.5 41.5 31.5s20.834 28.167 27.501 45.5s10 35 10 53c0 19.333 -3.16699 37.5 -9.5 54.5s-15 32 -26 45s-24.167 23.333 -39.5 31s-32.333 11.5 -51 11.5
h-266z" />
    <glyph glyph-name="C" unicode="C" horiz-adv-x="690" 
d="M44 360c0 42.667 7.49414 85.1689 22.4941 127.502s36.833 80.166 65.5 113.499s63.834 60.5 105.501 81.5s89.167 31.5 142.5 31.5c63.333 0 117.333 -14.5 162 -43.5s78 -66.167 100 -111.5l-42 -24c-12.667 24.667 -27.5 45.334 -44.5 62.001s-35.333 30.167 -55 40.5
s-40.167 17.833 -61.5 22.5s-42.333 7 -63 7c-45.333 0 -85.333 -9.16699 -120 -27.5s-64 -42.166 -88 -71.499s-42.167 -62.5 -54.5 -99.5s-18.5 -74.167 -18.5 -111.5c0 -42 7.33301 -82 22 -120s34.667 -71.5 60 -100.5s55.333 -52.167 90 -69.5s72 -26 112 -26
c21.333 0 43.333 2.66699 66 8s44.334 13.666 65.001 24.999s40 25.833 58 43.5s33 38.5 45 62.5l44 -21c-12 -26.667 -28.333 -50.334 -49 -71.001s-43.667 -38 -69 -52s-52.166 -24.5 -80.499 -31.5s-56.166 -10.5 -83.499 -10.5c-48.667 0 -93.167 10.667 -133.5 32
s-75.166 49.166 -104.499 83.499s-52.166 73.333 -68.499 117s-24.5 88.167 -24.5 133.5z" />
    <glyph glyph-name="D" unicode="D" horiz-adv-x="713" 
d="M93 0v710h236c56 0 105.167 -9.33301 147.5 -28s77.5 -44 105.5 -76s49 -69.5 63 -112.5s21 -88.833 21 -137.5c0 -54 -7.83301 -102.833 -23.5 -146.5s-38.167 -81 -67.5 -112s-64.833 -55 -106.5 -72s-88.167 -25.5 -139.5 -25.5h-236zM615 356
c0 44.667 -6.33496 85.834 -19.002 123.501s-31.167 70.167 -55.5 97.5s-54.166 48.666 -89.499 63.999s-76 23 -122 23h-185v-618h185c46.667 0 87.834 7.83301 123.501 23.5s65.5 37.5 89.5 65.5s42.167 60.833 54.5 98.5s18.5 78.5 18.5 122.5z" />
    <glyph glyph-name="E" unicode="E" 
d="M566 46v-46h-473v710h464v-46h-413v-279h361v-44h-361v-295h422z" />
    <glyph glyph-name="F" unicode="F" horiz-adv-x="594" 
d="M93 0v710h462v-46h-411v-282h349v-44h-349v-338h-51z" />
    <glyph glyph-name="G" unicode="G" horiz-adv-x="717" 
d="M616 111c-68.667 -77.333 -148.331 -115.999 -238.998 -115.999c-48 0 -92.5 10.333 -133.5 31s-76.167 48 -105.5 82s-52.333 72.667 -69 116s-25 87.333 -25 132c0 46.667 8.16699 91.667 24.5 135s39 81.666 68 114.999s63.5 59.833 103.5 79.5s83.667 29.5 131 29.5
c35.333 0 67.166 -3.83301 95.499 -11.5s53.666 -18.334 75.999 -32.001s41.666 -30 57.999 -49s30.166 -39.833 41.499 -62.5l-42 -25c-24 46.667 -55.833 80.5 -95.5 101.5s-84.5 31.5 -134.5 31.5c-42 0 -80 -9 -114 -27s-63 -41.667 -87 -71
s-42.333 -62.666 -55 -99.999s-19 -75.666 -19 -114.999c0 -42 7.33301 -81.833 22 -119.5s34.834 -70.834 60.501 -99.501s55.834 -51.5 90.501 -68.5s72 -25.5 112 -25.5c43.333 0 84.5 10 123.5 30s76.5 51.667 112.5 95v137h-161v41h205v-345h-44v111z" />
    <glyph glyph-name="H" unicode="H" horiz-adv-x="735" 
d="M643 710v-710h-51v340h-448v-340h-51v710h51v-324h448v324h51z" />
    <glyph glyph-name="I" unicode="I" horiz-adv-x="237" 
d="M93 0v710h51v-710h-51z" />
    <glyph glyph-name="J" unicode="J" horiz-adv-x="478" 
d="M32 74c16.667 -11.333 36.667 -20.502 60 -27.502s49.333 -10.5 78 -10.5c38.667 0 69.334 7 92.001 21s40 34.333 52 61s19.833 59.5 23.5 98.5s5.5 83.167 5.5 132.5v361h51v-361c0 -54 -2.33301 -103.167 -7 -147.5s-14.834 -82.166 -30.501 -113.499
s-38.167 -55.666 -67.5 -72.999s-69 -26 -119 -26c-60 0 -111.333 14.667 -154 44z" />
    <glyph glyph-name="K" unicode="K" horiz-adv-x="635" 
d="M93 0v710h51v-431l414 431h59l-295 -311l310 -399h-58l-285 368l-145 -149v-219h-51z" />
    <glyph glyph-name="L" unicode="L" horiz-adv-x="581" 
d="M93 0v710h51v-664h424v-46h-475z" />
    <glyph glyph-name="M" unicode="M" horiz-adv-x="880" 
d="M736 0v614l-280 -479h-32l-280 479v-614h-51v710h51l296 -508l296 508h51v-710h-51z" />
    <glyph glyph-name="N" unicode="N" horiz-adv-x="773" 
d="M144 614v-614h-51v710h39l498 -625v625h51v-710h-47z" />
    <glyph glyph-name="O" unicode="O" horiz-adv-x="753" 
d="M376 -5c-49.333 0 -94.333 10.3369 -135 31.0039s-75.667 47.667 -105 81s-52 71.666 -68 114.999s-24 87.666 -24 132.999c0 47.333 8.5 92.666 25.5 135.999s40.333 81.666 70 114.999s64.834 59.833 105.501 79.5s84.667 29.5 132 29.5
c49.333 0 94.5 -10.5 135.5 -31.5s76 -48.5 105 -82.5s51.5 -72.5 67.5 -115.5s24 -86.5 24 -130.5c0 -48 -8.5 -93.667 -25.5 -137s-40.333 -81.5 -70 -114.5s-64.834 -59.333 -105.501 -79s-84.667 -29.5 -132 -29.5zM95 355.004
c0 -40.667 6.83691 -79.834 20.5039 -117.501s33 -71 58 -100s54.833 -52.167 89.5 -69.5s72.667 -26 114 -26c42.667 0 81.167 9 115.5 27s63.666 41.833 87.999 71.5s43.166 63.167 56.499 100.5s20 75.333 20 114c0 40.667 -7 79.834 -21 117.501s-33.5 71 -58.5 100
s-54.5 52.167 -88.5 69.5s-71.333 26 -112 26c-42.667 0 -81.334 -9 -116.001 -27s-64.334 -41.833 -89.001 -71.5s-43.667 -63.167 -57 -100.5s-20 -75.333 -20 -114z" />
    <glyph glyph-name="P" unicode="P" horiz-adv-x="621" 
d="M93 0l0.00390625 710.002h292c30 0 57.667 -6.33301 83 -19s47.166 -29.5 65.499 -50.5s32.666 -44.667 42.999 -71s15.5 -52.833 15.5 -79.5c0 -28.667 -4.83301 -56.334 -14.5 -83.001s-23.334 -50.334 -41.001 -71.001s-38.834 -37.167 -63.501 -49.5
s-52 -18.5 -82 -18.5h-247v-268h-51zM144.004 315.002h244.999c23.333 0 44.333 4.83301 63 14.5s34.5 22.667 47.5 39s23 35 30 56s10.5 42.833 10.5 65.5c0 23.333 -4.16699 45.5 -12.5 66.5s-19.666 39.5 -33.999 55.5s-31 28.667 -50 38s-39.167 14 -60.5 14h-239v-349z
" />
    <glyph glyph-name="Q" unicode="Q" horiz-adv-x="752" 
d="M576 67c-28 -22.667 -58.834 -40.3291 -92.501 -52.9961s-69.5 -19 -107.5 -19c-49.333 0 -94.333 10.333 -135 31s-75.667 47.667 -105 81s-52 71.666 -68 114.999s-24 87.666 -24 132.999c0 47.333 8.5 92.666 25.5 135.999s40.333 81.666 70 114.999
s64.834 59.833 105.501 79.5s84.667 29.5 132 29.5c49.333 0 94.5 -10.5 135.5 -31.5s76 -48.5 105 -82.5s51.5 -72.5 67.5 -115.5s24 -86.5 24 -130.5c0 -50 -9.16699 -97.333 -27.5 -142s-43.5 -84 -75.5 -118l79 -95h-53zM376.999 42.0049
c33.333 0 64.002 5.49902 92.002 16.499s53.333 26.167 76 45.5l-84 102h53l60 -73c26.667 30 47.167 64.333 61.5 103s21.5 78.334 21.5 119.001s-7 79.834 -21 117.501s-33.5 71 -58.5 100s-54.5 52.167 -88.5 69.5s-71.333 26 -112 26c-42.667 0 -81.334 -9 -116.001 -27
s-64.334 -41.833 -89.001 -71.5s-43.667 -63.167 -57 -100.5s-20 -75.333 -20 -114c0 -40.667 6.83301 -79.834 20.5 -117.501s33 -71 58 -100s54.833 -52.167 89.5 -69.5s72.667 -26 114 -26z" />
    <glyph glyph-name="R" unicode="R" horiz-adv-x="649" 
d="M93 0l0.00390625 709.999h295c30 0 57.667 -6.33301 83 -19s47.166 -29.5 65.499 -50.5s32.666 -44.667 42.999 -71s15.5 -52.833 15.5 -79.5c0 -26 -4 -51.167 -12 -75.5s-19.333 -46.166 -34 -65.499s-32.334 -35.333 -53.001 -48s-43.334 -21 -68.001 -25l177 -276
h-59l-172 268h-230v-268h-51zM144.004 314.999h248.998c22.667 0 43.334 5 62.001 15s34.667 23.167 48 39.5s23.5 35 30.5 56s10.5 42.5 10.5 64.5c0 22.667 -4.16699 44.5 -12.5 65.5s-19.666 39.5 -33.999 55.5s-31 28.833 -50 38.5s-39.5 14.5 -61.5 14.5h-242v-349z
" />
    <glyph glyph-name="S" unicode="S" horiz-adv-x="605" 
d="M506 592c-46 51.333 -111.002 77 -195.002 77c-69.333 0 -119.833 -13.167 -151.5 -39.5s-47.5 -61.833 -47.5 -106.5c0 -22.667 4 -41.5 12 -56.5s20.5 -27.833 37.5 -38.5s38.5 -19.667 64.5 -27s57.333 -15 94 -23c38 -8 72.5 -16.833 103.5 -26.5
s57.333 -21.834 79 -36.501s38.334 -32.667 50.001 -54s17.5 -47.666 17.5 -78.999s-6.16699 -58.666 -18.5 -81.999s-29.666 -42.833 -51.999 -58.5s-49 -27.5 -80 -35.5s-65.5 -12 -103.5 -12c-110.667 0 -204.334 35.333 -281.001 106l27 41
c30 -31.333 66.667 -56.166 110 -74.499s92 -27.5 146 -27.5c62 0 110.5 11.333 145.5 34s52.5 57 52.5 103c0 23.333 -4.66699 43.166 -14 59.499s-23.166 30.5 -41.499 42.5s-41.5 22.333 -69.5 31s-60.667 17 -98 25c-38 8 -71.5 16.5 -100.5 25.5s-53.333 20.333 -73 34
s-34.5 30.167 -44.5 49.5s-15 43.666 -15 72.999c0 32 6.16699 60.333 18.5 85s29.5 45.5 51.5 62.5s48.333 29.833 79 38.5s64.667 13 102 13c46 0 87 -6.83301 123 -20.5s68.667 -34.5 98 -62.5z" />
    <glyph glyph-name="T" unicode="T" horiz-adv-x="606" 
d="M589 664h-260v-664h-51v664h-260v46h571v-46z" />
    <glyph glyph-name="U" unicode="U" horiz-adv-x="756" 
d="M378 42c48 0 87.832 8.99805 119.499 26.998s56.667 41.667 75 71s31.333 62.666 39 99.999s11.5 75 11.5 113v357h51v-357c0 -47.333 -5.16699 -92.666 -15.5 -135.999s-27.166 -81.5 -50.499 -114.5s-53.666 -59.167 -90.999 -78.5s-83.333 -29 -138 -29
c-56.667 0 -104 10.167 -142 30.5s-68.5 47.333 -91.5 81s-39.333 71.834 -49 114.501s-14.5 86.667 -14.5 132v357h51v-357c0 -39.333 3.83301 -77.666 11.5 -114.999s21 -70.5 40 -99.5s44.167 -52.333 75.5 -70s70.666 -26.5 117.999 -26.5z" />
    <glyph glyph-name="V" unicode="V" horiz-adv-x="679" 
d="M69 710l270 -646l270 646h54l-300 -710h-47l-301 710h54z" />
    <glyph glyph-name="W" unicode="W" horiz-adv-x="1043" 
d="M365 705h50l106 -258l106 258h50l-125 -299l149 -346l272 650h56l-304 -710h-47l-156 365l-157 -365h-47l-303 710h55l273 -650l147 346z" />
    <glyph glyph-name="X" unicode="X" horiz-adv-x="628" 
d="M66 710l249 -323l248 323h58l-279 -360l271 -350h-58l-240 313l-241 -313h-59l271 350l-279 360h59z" />
    <glyph glyph-name="Y" unicode="Y" horiz-adv-x="647" 
d="M75 710l248 -393l249 393h57l-280 -442v-268h-51v270l-279 440h56z" />
    <glyph glyph-name="Z" unicode="Z" horiz-adv-x="627" 
d="M30 42l505 622h-498v46h558v-42l-501 -622h499v-46h-563v42z" />
    <glyph glyph-name="bracketleft" unicode="[" horiz-adv-x="247" 
d="M91 -40v780h101v-43h-53v-694h53v-43h-101z" />
    <glyph glyph-name="backslash" unicode="\" horiz-adv-x="548" 
d="M86 710l435 -710h-58l-436 710h59z" />
    <glyph glyph-name="bracketright" unicode="]" horiz-adv-x="247" 
d="M54 -40v43h54v694h-54v43h101v-780h-101z" />
    <glyph glyph-name="asciicircum" unicode="^" horiz-adv-x="526" 
d="M44 303l198 407h43l197 -407h-46l-172 356l-176 -356h-44z" />
    <glyph glyph-name="underscore" unicode="_" horiz-adv-x="519" 
d="M66 -46v46h386v-46h-386z" />
    <glyph glyph-name="grave" unicode="`" horiz-adv-x="213" 
d="M49 730h57l62 -85l-34 -16z" />
    <glyph glyph-name="a" unicode="a" horiz-adv-x="537" 
d="M206 -10c-24 0 -46.333 4.16406 -67 12.4971s-38.834 19.666 -54.501 33.999s-27.834 31.333 -36.501 51s-13 40.834 -13 63.501s5.33301 43.334 16 62.001s25.5 34.834 44.5 48.501s41.833 24.334 68.5 32.001s56 11.5 88 11.5c28 0 56.167 -2.5 84.5 -7.5
s53.833 -11.833 76.5 -20.5v51c0 49.333 -14 88.5 -42 117.5s-66 43.5 -114 43.5c-25.333 0 -52.166 -5.33301 -80.499 -16s-57.166 -26 -86.499 -46l-19 34c66.667 45.333 130 68 190 68c62.667 0 112 -18.167 148 -54.5s54 -86.5 54 -150.5v-254
c0 -16.667 7.33301 -25 22 -25v-45c-3.33301 -0.666992 -6.83301 -1.16699 -10.5 -1.5s-6.83398 -0.5 -9.50098 -0.5c-13.333 0 -24 4.5 -32 13.5s-12.667 19.833 -14 32.5v43c-24 -31.333 -54.667 -55.333 -92 -72s-77.666 -25 -120.999 -25zM216 29.9971
c38.667 0 74.166 7.33105 106.499 21.998s57.166 34 74.499 58c10.667 14 16 27.333 16 40v92c-24 9.33301 -49 16.333 -75 21s-53 7 -81 7c-26 0 -49.667 -2.83301 -71 -8.5s-39.666 -13.5 -54.999 -23.5s-27.166 -22.167 -35.499 -36.5s-12.5 -30.166 -12.5 -47.499
s3.33301 -33.666 10 -48.999s16 -28.5 28 -39.5s26.167 -19.667 42.5 -26s33.833 -9.5 52.5 -9.5z" />
    <glyph glyph-name="b" unicode="b" 
d="M321 -10c-40.667 0 -78.6709 10.667 -114.004 32s-63 48.666 -83 81.999v-104h-46v730h50v-323c24.667 36 53.834 65.333 87.501 88s72.5 34 116.5 34c36.667 0 69.834 -7.83301 99.501 -23.5s54.667 -36.334 75 -62.001s36 -54.667 47 -87s16.5 -65.166 16.5 -98.499
c0 -36 -6.33301 -70.167 -19 -102.5s-30.167 -60.666 -52.5 -84.999s-48.666 -43.833 -78.999 -58.5s-63.166 -22 -98.499 -22zM310.996 35c30.667 0 58.666 6.33398 83.999 19.001s47.166 29.5 65.499 50.5s32.666 44.833 42.999 71.5s15.5 54 15.5 82
c0 29.333 -4.83301 57.5 -14.5 84.5s-23.334 51 -41.001 72s-38.667 37.833 -63 50.5s-51.166 19 -80.499 19c-22 0 -42.667 -3.83301 -62 -11.5s-37.166 -17.834 -53.499 -30.501s-31 -27.334 -44 -44.001s-23.833 -34 -32.5 -52v-172c2 -19.333 9.33301 -37.5 22 -54.5
s27.834 -31.667 45.501 -44s36.834 -22.166 57.501 -29.499s40 -11 58 -11z" />
    <glyph glyph-name="c" unicode="c" horiz-adv-x="545" 
d="M42 262c0 36.667 6.33594 71.3301 19.0029 103.997s30.334 61 53.001 85s49.667 43 81 57s65.666 21 102.999 21c47.333 0 89 -10.667 125 -32s63 -51 81 -89l-49 -16c-15.333 28.667 -37.166 51.167 -65.499 67.5s-59.5 24.5 -93.5 24.5
c-28.667 0 -55.334 -5.66699 -80.001 -17s-46.167 -27 -64.5 -47s-32.833 -43.5 -43.5 -70.5s-16 -56.167 -16 -87.5s5.5 -60.833 16.5 -88.5s25.667 -51.667 44 -72s40 -36.5 65 -48.5s51.5 -18 79.5 -18c18 0 35.833 2.66699 53.5 8s34 12.333 49 21s28 18.834 39 30.501
s18.5 23.834 22.5 36.501l49 -14c-6.66699 -18 -16.834 -34.833 -30.501 -50.5s-29.834 -29.167 -48.501 -40.5s-39.334 -20.166 -62.001 -26.499s-46 -9.5 -70 -9.5c-36.667 0 -70.667 7.16699 -102 21.5s-58.5 34 -81.5 59s-41 53.833 -54 86.5s-19.5 67.667 -19.5 105z
" />
    <glyph glyph-name="d" unicode="d" horiz-adv-x="615" 
d="M292 -10c-36 0 -69.333 7.50098 -100 22.501s-57.167 35 -79.5 60s-39.666 53.667 -51.999 86s-18.5 65.833 -18.5 100.5c0 36 6 70.333 18 103s28.667 61.334 50 86.001s46.5 44.334 75.5 59.001s60.833 22 95.5 22c22.667 0 44 -3.33301 64 -10s38.667 -15.5 56 -26.5
s33 -23.833 47 -38.5s26 -30.334 36 -47.001v323h50v-660c0 -16.667 7 -25 21 -25v-45c-4 -0.666992 -7.33301 -1.16699 -10 -1.5s-5.33398 -0.5 -8.00098 -0.5c-13.333 0 -24.666 5.16699 -33.999 15.5s-14 21.166 -14 32.499v58
c-21.333 -34.667 -49.833 -62.334 -85.5 -83.001s-72.834 -31 -111.501 -31zM301 35.001c18 0 37.3301 3.66895 57.9971 11.002s39.834 17.5 57.501 30.5s32.834 27.833 45.501 44.5s20 34.667 22 54v171c-7.33301 18.667 -17.833 36.5 -31.5 53.5s-29.167 31.667 -46.5 44
s-36 22.166 -56 29.499s-39.333 11 -58 11c-30 0 -57.333 -6.5 -82 -19.5s-45.667 -30 -63 -51s-30.666 -45 -39.999 -72s-14 -54.833 -14 -83.5c0 -30 5.33301 -58.333 16 -85s25.5 -50.334 44.5 -71.001s41 -37 66 -49s52.167 -18 81.5 -18z" />
    <glyph glyph-name="e" unicode="e" horiz-adv-x="583" 
d="M299 -10c-36.667 0 -70.6699 7.16797 -102.003 21.501s-58.5 34 -81.5 59s-41 53.833 -54 86.5s-19.5 67.667 -19.5 105c0 36.667 6.5 71.167 19.5 103.5s30.833 60.666 53.5 84.999s49.5 43.5 80.5 57.5s64.5 21 100.5 21c36.667 0 70.667 -7.16699 102 -21.5
s58.333 -33.666 81 -57.999s40.334 -52.666 53.001 -84.999s19 -66.5 19 -102.5v-12.5c0 -5 -0.333008 -8.16699 -1 -9.5h-456c2 -30 9 -57.833 21 -83.5s27.167 -47.834 45.5 -66.501s39.5 -33.334 63.5 -44.001s49.667 -16 77 -16c18 0 35.667 2.5 53 7.5
s33.5 11.833 48.5 20.5s28.333 19.167 40 31.5s20.834 25.833 27.501 40.5l44 -12c-7.33301 -18.667 -18.166 -35.834 -32.499 -51.501s-31 -29.167 -50 -40.5s-39.833 -20.166 -62.5 -26.499s-46 -9.5 -70 -9.5zM502.997 280.001c-2 30.667 -8.83301 58.668 -20.5 84.001
s-26.667 47.166 -45 65.499s-39.5 32.666 -63.5 42.999s-49.667 15.5 -77 15.5s-53 -5.16699 -77 -15.5s-45.167 -24.666 -63.5 -42.999s-33 -40.333 -44 -66s-17.5 -53.5 -19.5 -83.5h410z" />
    <glyph glyph-name="f" unicode="f" horiz-adv-x="318" 
d="M101 0l0.000976562 479h-73v41h73v17c0 64 13 113.833 39 149.5s62 53.5 108 53.5c20 0 39.333 -3 58 -9s34 -14 46 -24l-18 -36c-9.33301 7.33301 -20.833 13.333 -34.5 18s-27.834 7 -42.501 7c-34 0 -60.167 -13.5 -78.5 -40.5s-27.5 -66.167 -27.5 -117.5v-18h148
v-41h-148v-479h-50z" />
    <glyph glyph-name="g" unicode="g" 
d="M288 -8c-36 0 -69.0039 7.50195 -99.0039 22.502s-55.833 35 -77.5 60s-38.667 53.5 -51 85.5s-18.5 65 -18.5 99c0 35.333 5.83301 69.333 17.5 102s28.167 61.5 49.5 86.5s46.833 44.833 76.5 59.5s62.5 22 98.5 22c45.333 0 84.833 -11.833 118.5 -35.5
s62.167 -52.5 85.5 -86.5v113h46v-530c0 -35.333 -6.66699 -66.333 -20 -93s-31.166 -48.834 -53.499 -66.501s-48.333 -31 -78 -40s-60.834 -13.5 -93.501 -13.5c-30 0 -57 2.83301 -81 8.5s-45.167 13.667 -63.5 24s-34.666 23 -48.999 38s-26.833 31.5 -37.5 49.5l34 23
c20.667 -35.333 48.667 -61.166 84 -77.499s73 -24.5 113 -24.5c26.667 0 51.834 3.66699 75.501 11s44.334 18.166 62.001 32.499s31.667 32.166 42 53.499s15.5 46.333 15.5 75v114c-21.333 -34 -49.666 -61.167 -84.999 -81.5s-72.333 -30.5 -111 -30.5zM299.996 35.002
c22 0 43.499 4.16699 64.499 12.5s40 19.166 57 32.499s31 28.333 42 45s17.833 33.334 20.5 50.001v171c-8 20 -18.667 38.5 -32 55.5s-28.5 31.5 -45.5 43.5s-35.333 21.5 -55 28.5s-39.5 10.5 -59.5 10.5c-31.333 0 -59.333 -6.66699 -84 -20
s-45.5 -30.666 -62.5 -51.999s-30 -45.5 -39 -72.5s-13.5 -54.167 -13.5 -81.5c0 -30 5.33301 -58.333 16 -85s25.334 -50.334 44.001 -71.001s40.667 -37 66 -49s52.333 -18 81 -18z" />
    <glyph glyph-name="h" unicode="h" horiz-adv-x="576" 
d="M503 0l-50.0029 0.000976562v290c0 128.667 -43 193 -129 193c-21.333 0 -42.166 -4 -62.499 -12s-39.333 -19.333 -57 -34s-33.167 -31.834 -46.5 -51.501s-23.333 -40.834 -30 -63.501v-322h-50v730h50v-334c21.333 40.667 50.833 73 88.5 97s78.167 36 121.5 36
c28.667 0 53.334 -5.33301 74.001 -16s37.834 -26 51.501 -46s23.667 -44.167 30 -72.5s9.5 -60.166 9.5 -95.499v-299z" />
    <glyph glyph-name="i" unicode="i" horiz-adv-x="207" 
d="M78 0v520h50v-520h-50zM78 638v92h50v-92h-50z" />
    <glyph glyph-name="j" unicode="j" horiz-adv-x="214" 
d="M-10 -177c-21.333 0 -41.165 2.83105 -59.498 8.49805s-34.833 15.167 -49.5 28.5l27 33c11.333 -9.33301 23.666 -15.666 36.999 -18.999s26.666 -5 39.999 -5c12.667 0 25 2.5 37 7.5s22.667 12 32 21s17 19.667 23 32s9 25.833 9 40.5v550h50v-548
c0 -22 -4.16699 -42 -12.5 -60s-19.5 -33.667 -33.5 -47s-29.667 -23.666 -47 -30.999s-35 -11 -53 -11zM86.001 637.998v92h50v-92h-50z" />
    <glyph glyph-name="k" unicode="k" horiz-adv-x="522" 
d="M454 0l-203 278l-123 -113v-165h-50v730h50v-510l316 299h58l-217 -211l224 -308h-55z" />
    <glyph glyph-name="l" unicode="l" horiz-adv-x="259" 
d="M82 730l51.001 -0.000976562v-627c0 -19.333 5.5 -34.666 16.5 -45.999s26.167 -17 45.5 -17c7.33301 0 16.166 0.833008 26.499 2.5s19.833 4.16699 28.5 7.5l10 -40c-11.333 -4.66699 -25.333 -8.5 -42 -11.5s-31 -4.5 -43 -4.5c-28 0 -50.5 8.5 -67.5 25.5
s-25.5 39.833 -25.5 68.5v642z" />
    <glyph glyph-name="m" unicode="m" horiz-adv-x="915" 
d="M842 0h-49.999v290c0 66 -10.167 114.667 -30.5 146s-51.5 47 -93.5 47c-21.333 0 -41.666 -4 -60.999 -12s-37 -19.167 -53 -33.5s-29.833 -31.333 -41.5 -51s-20.834 -41.5 -27.501 -65.5v-321h-50v290c0 66.667 -10 115.5 -30 146.5s-51 46.5 -93 46.5
c-21.333 0 -41.5 -3.83301 -60.5 -11.5s-36.5 -18.667 -52.5 -33s-30.167 -31.333 -42.5 -51s-21.833 -41.5 -28.5 -65.5v-322h-50v520h47v-124c21.333 42 49.333 74.667 84 98s73 35 115 35c44 0 79.667 -13 107 -39s43.666 -60 48.999 -102c49.333 94 117.333 141 204 141
c56.667 0 97.167 -20.167 121.5 -60.5s36.5 -96.833 36.5 -169.5v-299z" />
    <glyph glyph-name="n" unicode="n" horiz-adv-x="576" 
d="M503 0l-50.001 0.00195312v290c0 67.333 -9.5 116.333 -28.5 147s-49.167 46 -90.5 46c-22 0 -43.833 -4 -65.5 -12s-41.834 -19.333 -60.501 -34s-35 -31.834 -49 -51.501s-24.333 -40.834 -31 -63.501v-322h-50v520h47v-124c10.667 20 23.834 38.167 39.501 54.5
s33.334 30.333 53.001 42s40.5 20.667 62.5 27s44.667 9.5 68 9.5c56.667 0 96.667 -19.833 120 -59.5s35 -96.5 35 -170.5v-299z" />
    <glyph glyph-name="o" unicode="o" horiz-adv-x="592" 
d="M296 -10c-36.667 0 -70.499 7.16699 -101.499 21.5s-57.833 33.833 -80.5 58.5s-40.334 53.334 -53.001 86.001s-19 67 -19 103c0 36.667 6.5 71.334 19.5 104.001s30.833 61.334 53.5 86.001s49.5 44.167 80.5 58.5s64.5 21.5 100.5 21.5s69.333 -7.16699 100 -21.5
s57.5 -33.833 80.5 -58.5s41 -53.334 54 -86.001s19.5 -67.334 19.5 -104.001c0 -36 -6.5 -70.333 -19.5 -103s-30.833 -61.334 -53.5 -86.001s-49.5 -44.167 -80.5 -58.5s-64.5 -21.5 -100.5 -21.5zM92.001 257c0 -30.667 5.33203 -59.499 15.999 -86.499
s25.167 -50.5 43.5 -70.5s39.833 -35.833 64.5 -47.5s51 -17.5 79 -17.5s54.333 5.83301 79 17.5s46.334 27.834 65.001 48.501s33.334 44.5 44.001 71.5s16 56.167 16 87.5c0 30.667 -5.33301 59.5 -16 86.5s-25.334 50.667 -44.001 71s-40.167 36.5 -64.5 48.5
s-50.5 18 -78.5 18s-54.333 -6 -79 -18s-46.167 -28.333 -64.5 -49s-33 -44.834 -44 -72.501s-16.5 -56.834 -16.5 -87.501z" />
    <glyph glyph-name="p" unicode="p" 
d="M332 -10c-44.667 0 -84.501 11.834 -119.501 35.501s-63.167 52.5 -84.5 86.5v-325h-50v733h46v-104c21.333 33.333 49.5 60.5 84.5 81.5s72.5 31.5 112.5 31.5c36 0 69.333 -7.66699 100 -23s57 -35.5 79 -60.5s39.167 -53.833 51.5 -86.5s18.5 -66 18.5 -100
c0 -36 -5.66699 -70.333 -17 -103s-27.5 -61.334 -48.5 -86.001s-46.167 -44.167 -75.5 -58.5s-61.666 -21.5 -96.999 -21.5zM319.999 35.001c30 0 57.334 6.33496 82.001 19.002s45.667 29.5 63 50.5s30.666 45 39.999 72s14 54.5 14 82.5c0 30 -5.33301 58.5 -16 85.5
s-25.5 50.833 -44.5 71.5s-41.167 37.167 -66.5 49.5s-52.333 18.5 -81 18.5c-18 0 -37.167 -3.83301 -57.5 -11.5s-39.5 -18 -57.5 -31s-33.333 -27.833 -46 -44.5s-20 -34.334 -22 -53.001v-171c8.66699 -19.333 19.667 -37.333 33 -54s28.333 -31.334 45 -44.001
s34.667 -22.5 54 -29.5s39.333 -10.5 60 -10.5z" />
    <glyph glyph-name="q" unicode="q" 
d="M280 -10c-36 0 -68.5 7.5 -97.5 22.5s-54 35 -75 60s-37.167 53.667 -48.5 86s-17 65.833 -17 100.5c0 36 6.5 70.333 19.5 103s30.667 61.334 53 86.001s48.666 44.334 78.999 59.001s62.833 22 97.5 22c40.667 0 78.667 -10.833 114 -32.5s63 -48.834 83 -81.501v105
h46v-661c0 -16.667 7 -25.334 21 -26.001v-44c-3.33301 -0.666992 -6.33301 -1 -9 -1h-8c-15.333 0 -28.166 4.83301 -38.499 14.5s-15.5 22.5 -15.5 38.5v271c-54.667 -81.333 -122.667 -122 -204 -122zM293 35c22 0 42.501 3.66992 61.501 11.0029s36.5 17 52.5 29
s30.5 26.167 43.5 42.5s24.167 33.5 33.5 51.5v170c-2.66699 19.333 -10 37.666 -22 54.999s-26.833 32.666 -44.5 45.999s-36.834 24 -57.501 32s-41 12 -61 12c-30 0 -57.667 -6.5 -83 -19.5s-47.166 -30 -65.499 -51s-32.5 -45.167 -42.5 -72.5s-15 -55 -15 -83
c0 -30 5 -58.333 15 -85s23.833 -50.334 41.5 -71.001s38.667 -37 63 -49s51.166 -18 80.499 -18z" />
    <glyph glyph-name="r" unicode="r" horiz-adv-x="341" 
d="M324 475c-46.667 -1.33301 -87.5 -15.167 -122.5 -41.5s-59.5 -62.5 -73.5 -108.5v-325h-50v520h48v-128c18 36.667 41.833 66.5 71.5 89.5s61.5 36.167 95.5 39.5c6.66699 0.666992 12.667 1 18 1h13v-47z" />
    <glyph glyph-name="s" unicode="s" horiz-adv-x="481" 
d="M243 -10c-40 0 -78.332 6.6709 -114.999 20.0039s-68.667 33.333 -96 60l25 34c28 -25.333 57 -44 87 -56s63 -18 99 -18c45.333 0 81.833 9.5 109.5 28.5s41.5 45.5 41.5 79.5c0 16 -3.5 29.5 -10.5 40.5s-17.5 20.333 -31.5 28s-31.333 14.5 -52 20.5
s-44.667 12.333 -72 19c-29.333 6.66699 -54.833 13.334 -76.5 20.001s-39.5 14.667 -53.5 24s-24.5 20.666 -31.5 33.999s-10.5 30.333 -10.5 51c0 26 5 48.667 15 68s23.833 35.333 41.5 48s38 22.167 61 28.5s47.5 9.5 73.5 9.5c40.667 0 76.667 -6.83301 108 -20.5
s55.666 -31.167 72.999 -52.5l-28 -27c-17.333 20 -39.833 35 -67.5 45s-57.167 15 -88.5 15c-19.333 0 -37.5 -2 -54.5 -6s-31.833 -10.333 -44.5 -19s-22.667 -19.834 -30 -33.501s-11 -29.834 -11 -48.501c0 -15.333 2.5 -27.666 7.5 -36.999s13 -17.333 24 -24
s25.167 -12.5 42.5 -17.5s38 -10.5 62 -16.5c32.667 -8 61.667 -15.667 87 -23s46.5 -16.333 63.5 -27s30 -23.334 39 -38.001s13.5 -33.334 13.5 -56.001c0 -46.667 -18.167 -83.834 -54.5 -111.501s-84.833 -41.5 -145.5 -41.5z" />
    <glyph glyph-name="t" unicode="t" horiz-adv-x="320" 
d="M310 25c-2.66699 -1.33301 -7.16895 -3.83203 -13.502 -7.49902s-14.333 -7.16699 -24 -10.5s-20.5 -6.33301 -32.5 -9s-25 -4 -39 -4s-27.167 2 -39.5 6s-23.166 10 -32.499 18s-16.666 17.667 -21.999 29s-8 24.666 -8 39.999v392h-73v41h73v178h50v-178h121v-41h-121
v-380c0 -19.333 6.66699 -33.833 20 -43.5s28.333 -14.5 45 -14.5c20.667 0 38.5 3.5 53.5 10.5s24.167 11.5 27.5 13.5z" />
    <glyph glyph-name="u" unicode="u" horiz-adv-x="587" 
d="M239 -10c-110.667 0 -166 76.667 -166 230v300h50v-293c0 -128 43.667 -192 131 -192c22 0 43.333 3.83301 64 11.5s40 18.334 58 32.001s33.833 30.167 47.5 49.5s24.5 40.666 32.5 63.999v328h50v-450c0 -16.667 7 -25 21 -25v-45
c-3.33301 -0.666992 -6.33301 -1 -9 -1h-6c-13.333 0 -25.166 4.16699 -35.499 12.5s-15.5 19.5 -15.5 33.5v78c-22.667 -42 -53.834 -74.667 -93.501 -98s-82.5 -35 -128.5 -35z" />
    <glyph glyph-name="v" unicode="v" horiz-adv-x="528" 
d="M238 0l-217 520h52l192 -470l193 470h49l-217 -520h-52z" />
    <glyph glyph-name="w" unicode="w" horiz-adv-x="806" 
d="M737 520h50l-225 -520h-42l-117 275l-117 -275h-42l-225 520h49l199 -465l109 256l-88 208h43l72 -172l71 172h44l-88 -208l109 -256z" />
    <glyph glyph-name="x" unicode="x" horiz-adv-x="496" 
d="M72 520l168 -215l8 -14l8 14l167 215h56l-202 -261l201 -259h-55l-167 214l-8 13l-8 -13l-167 -214h-55l201 259l-202 261h55z" />
    <glyph glyph-name="y" unicode="y" horiz-adv-x="540" 
d="M113 -176c3.33301 -0.666992 8.33105 -1.00098 14.998 -1.00098s12.834 0.333008 18.501 1s11.167 2.33398 16.5 5.00098c4 2 7.66699 4.83301 11 8.5s8 11.167 14 22.5s13.667 28 23 50l38 90l-232 520h52l207 -471l193 471h49l-285 -684
c-7.33301 -18.667 -19.166 -33.167 -35.499 -43.5s-38.5 -15.5 -66.5 -15.5h-8.5c-3 0 -6.16699 0.333008 -9.5 1v46z" />
    <glyph glyph-name="z" unicode="z" horiz-adv-x="490" 
d="M32 36l368 445h-362v39h418v-36l-367 -445h365v-39h-422v36z" />
    <glyph glyph-name="braceleft" unicode="{" horiz-adv-x="248" 
d="M141 697l-0.00195312 -276.999c0 -6.66699 -1.5 -16 -4.5 -28s-9.83301 -22.667 -20.5 -32c10.667 -9.33301 17.5 -20.166 20.5 -32.499s4.5 -21.5 4.5 -27.5v-288h55v-43h-79c-5.33301 0 -10.5 2.16699 -15.5 6.5s-7.5 12.166 -7.5 23.499v290
c0 12 -2.83301 23.333 -8.5 34s-14.5 16.667 -26.5 18v40c6.66699 0 12.334 2 17.001 6s8.33398 8.66699 11.001 14s4.5 10.833 5.5 16.5s1.5 10.167 1.5 13.5v279c0 13.333 3 21.666 9 24.999s10.667 5 14 5h79v-43h-55z" />
    <glyph glyph-name="bar" unicode="|" horiz-adv-x="223" 
d="M89 -130v905h45v-905h-45z" />
    <glyph glyph-name="braceright" unicode="}" horiz-adv-x="248" 
d="M52 697l0.000976562 42.999h79c2.66699 0 7.16699 -1.66699 13.5 -5s9.5 -11.666 9.5 -24.999v-279c0 -3.33301 0.5 -7.83301 1.5 -13.5s2.83301 -11.167 5.5 -16.5s6.16699 -10 10.5 -14s10.166 -6 17.499 -6v-40c-12.667 -1.33301 -21.667 -7.33301 -27 -18
s-8 -22 -8 -34v-290c0 -11.333 -2.5 -19.166 -7.5 -23.499s-10.167 -6.5 -15.5 -6.5h-79v43h55v288c0 6 1.5 15.167 4.5 27.5s9.83301 23.166 20.5 32.499c-10.667 9.33301 -17.5 20 -20.5 32s-4.5 21.333 -4.5 28v277h-55z" />
    <glyph glyph-name="asciitilde" unicode="~" horiz-adv-x="493" 
d="M68 245c0 2 1.66504 8.16602 4.99805 18.499s9 21.166 17 32.499s18.167 21.5 30.5 30.5s27.5 13.5 45.5 13.5c14.667 0 28.5 -3.16699 41.5 -9.5s25.833 -13.166 38.5 -20.499s25.167 -14.166 37.5 -20.499s25.166 -9.5 38.499 -9.5c12.667 0 23.334 2.5 32.001 7.5
s15.834 10.667 21.501 17s9.83398 12.333 12.501 18s4 9.16699 4 10.5h34c0 -1.33301 -1.66699 -6.5 -5 -15.5s-9 -19 -17 -30s-18.667 -20.833 -32 -29.5s-30 -13 -50 -13c-16 0 -31 3 -45 9s-27.333 12.833 -40 20.5s-24.834 14.5 -36.501 20.5s-23.167 9 -34.5 9
s-21 -3 -29 -9s-14.667 -12.667 -20 -20s-9.16602 -14 -11.499 -20s-3.5 -9.33301 -3.5 -10h-34v0z" />
    <glyph glyph-name="uni00A0" unicode="&#xa0;" horiz-adv-x="257" 
 />
    <glyph glyph-name="exclamdown" unicode="&#xa1;" horiz-adv-x="242" 
d="M146 498v-499h-50v499h50zM146 716v-102h-50v102h50z" />
    <glyph glyph-name="cent" unicode="&#xa2;" horiz-adv-x="554" 
d="M276 -120l0.00292969 111c-34 2.66699 -65.167 12.167 -93.5 28.5s-52.833 36.833 -73.5 61.5s-36.667 52.334 -48 83.001s-17 62 -17 94c0 34 5.5 66.667 16.5 98s26.667 59.166 47 83.499s44.666 44.5 72.999 60.5s60.166 25.333 95.499 28v117h31v-117
c50.667 -1.33301 92.167 -12.666 124.5 -33.999s57.166 -50 74.499 -86l-48 -16c-16.667 30 -38 52.333 -64 67s-55 22.667 -87 24v-447c14 0 29.333 2.33301 46 7s32.5 11.167 47.5 19.5s28.333 18.333 40 30s19.5 24.5 23.5 38.5l49 -14
c-7.33301 -21.333 -18.833 -39.833 -34.5 -55.5s-33.167 -28.834 -52.5 -39.501s-39.5 -18.667 -60.5 -24s-40.5 -8 -58.5 -8v-110h-31zM95.0029 258c0 -27.333 4.5 -53.5 13.5 -78.5s21.667 -47.5 38 -67.5s35.5 -36.5 57.5 -49.5s46 -21.167 72 -24.5v443
c-28.667 -2 -54.167 -9.83301 -76.5 -23.5s-41.333 -31 -57 -52s-27.5 -44.333 -35.5 -70s-12 -51.5 -12 -77.5z" />
    <glyph glyph-name="sterling" unicode="&#xa3;" horiz-adv-x="487" 
d="M50 370h100.005l-24.5 43c-8.33301 14 -16 28 -23 42s-12.833 28.5 -17.5 43.5s-7 30.833 -7 47.5c0 23.333 4.66699 45.166 14 65.499s21.833 38.166 37.5 53.499s34.167 27.5 55.5 36.5s44 13.5 68 13.5c35.333 0 68.333 -9.5 99 -28.5s55.667 -44.5 75 -76.5l-32 -31
c-16 28.667 -37 51.334 -63 68.001s-53 25 -81 25c-17.333 0 -33.5 -3.33301 -48.5 -10s-28.167 -15.834 -39.5 -27.501s-20.333 -25.167 -27 -40.5s-10 -32 -10 -50c0 -15.333 2.33301 -30.166 7 -44.499s10.667 -28.5 18 -42.5s15.333 -28.167 24 -42.5
s16.667 -29.166 24 -44.499h176v-41h-159c4 -12 7.16699 -24.333 9.5 -37s3.5 -26 3.5 -40c0 -17.333 -1.83301 -34 -5.5 -50s-9.83398 -32.333 -18.501 -49s-20 -34 -34 -52s-31 -38 -51 -60c24.667 5.33301 48.667 8 72 8c14.667 0 28.167 -1 40.5 -3
s24.166 -4.16699 35.499 -6.5s22.5 -4.5 33.5 -6.5s22.833 -3 35.5 -3c13.333 0 27.166 1.5 41.499 4.5s31.166 7.83301 50.499 14.5l13 -40c-35.333 -16 -71.333 -24 -108 -24c-14.667 0 -28.5 1.16699 -41.5 3.5s-25.833 4.83301 -38.5 7.5s-25.5 5.16699 -38.5 7.5
s-27.167 3.5 -42.5 3.5s-32.333 -1.33301 -51 -4s-36 -6 -52 -10l-15 37c24.667 24.667 45.167 47 61.5 67s29.5 38.5 39.5 55.5s17 33.167 21 48.5s6 31.333 6 48c0 14.667 -1.33301 28.667 -4 42s-6.33398 26 -11.001 38h-118v41z" />
    <glyph glyph-name="currency" unicode="&#xa4;" horiz-adv-x="535" 
d="M152 475c15.333 13.333 32.666 23.832 51.999 31.499s40.333 11.5 63 11.5s43.834 -4 63.501 -12s37.167 -18.667 52.5 -32l70 71l27 -26l-71 -71c11.333 -15.333 20.333 -32.5 27 -51.5s10 -39.167 10 -60.5c0 -42 -13 -79.667 -39 -113l73 -71l-24 -24l-73 70
c-15.333 -13.333 -32.833 -23.666 -52.5 -30.999s-40.834 -11 -63.501 -11s-43.667 3.5 -63 10.5s-36.666 17.167 -51.999 30.5l-71 -69l-24 24l71 70c-26 33.333 -39 71.333 -39 114c0 43.333 12.333 81 37 113l-69 70l26 26zM132 334.999c0 -20 3.5 -38.5 10.5 -55.5
s16.667 -32 29 -45s26.666 -23.167 42.999 -30.5s33.833 -11 52.5 -11s36.167 3.83301 52.5 11.5s30.666 18 42.999 31s22 28.167 29 45.5s10.5 36 10.5 56s-3.5 38.667 -10.5 56s-16.667 32.5 -29 45.5s-26.666 23.167 -42.999 30.5s-33.833 11 -52.5 11
s-36.167 -3.83301 -52.5 -11.5s-30.666 -18 -42.999 -31s-22 -28.333 -29 -46s-10.5 -36.5 -10.5 -56.5z" />
    <glyph glyph-name="yen" unicode="&#xa5;" horiz-adv-x="667" 
d="M412 357h88v-38h-110l-32 -51v-26h142v-37h-142v-205h-51v205h-141v37h141v28l-30 49h-111v38h89l-227 353h57l248 -393l249 393h56z" />
    <glyph glyph-name="brokenbar" unicode="&#xa6;" horiz-adv-x="226" 
d="M136 280v-410h-45v410h45zM136 775v-410h-45v410h45z" />
    <glyph glyph-name="section" unicode="&#xa7;" horiz-adv-x="497" 
d="M405 190c32.667 -20 48.9912 -55.334 48.9912 -106.001c0 -28.667 -6.16699 -53.834 -18.5 -75.501s-28 -39.667 -47 -54s-40 -25 -63 -32s-45.5 -10.5 -67.5 -10.5c-22.667 0 -43.5 2.5 -62.5 7.5s-36.5 11.667 -52.5 20s-30.5 17.833 -43.5 28.5
s-24.833 21.334 -35.5 32.001l33 31c25.333 -24 50.833 -41.833 76.5 -53.5s53.5 -17.5 83.5 -17.5c17.333 0 34.666 2.83301 51.999 8.5s33 13.667 47 24s25.333 23.166 34 38.499s13 32.666 13 51.999c0 20.667 -4.16699 37.5 -12.5 50.5s-19.166 23 -32.499 30
s-28.333 11.833 -45 14.5s-33 4.33398 -49 5.00098c-27.333 1.33301 -52.666 5.33301 -75.999 12s-43.5 16.5 -60.5 29.5s-30.5 29.167 -40.5 48.5s-15 42 -15 68c0 18 2.83301 35 8.5 51s12.5 28.667 20.5 38c-16 10.667 -29.167 26.334 -39.5 47.001
s-15.5 44.667 -15.5 72c0 25.333 5.66699 48.166 17 68.499s26 37.833 44 52.5s38.5 25.834 61.5 33.501s46.167 11.5 69.5 11.5c47.333 0 84.5 -8.5 111.5 -25.5s48.833 -37.833 65.5 -62.5l-40 -18c-6 12 -14.167 21.833 -24.5 29.5s-21.666 13.667 -33.999 18
s-25.166 7.5 -38.499 9.5s-26 3 -38 3c-17.333 0 -34.666 -2.66699 -51.999 -8s-32.666 -13.166 -45.999 -23.499s-24.166 -23 -32.499 -38s-12.5 -31.833 -12.5 -50.5c0 -20.667 3.66699 -38.167 11 -52.5s17.333 -26 30 -35s27.834 -15.5 45.501 -19.5
s36.834 -6 57.501 -6c24 0 47.833 -2.66699 71.5 -8s44.667 -14 63 -26s33.333 -27.667 45 -47s17.5 -43 17.5 -71c0 -19.333 -3.16699 -37.333 -9.5 -54s-14.166 -30 -23.499 -40zM120.991 335.999c0 -23.333 4.16699 -41.999 12.5 -55.999s19.166 -25 32.499 -33
s28.5 -13.667 45.5 -17s34.333 -6 52 -8s34.667 -4.16699 51 -6.5s30.5 -5.83301 42.5 -10.5c10 8.66699 18 20.167 24 34.5s9 29.166 9 44.499c0 20.667 -4.66699 38 -14 52s-21.166 25.333 -35.499 34s-30.166 14.667 -47.499 18s-34 5 -50 5
c-36.667 0 -68.334 5.66699 -95.001 17c-8 -8 -14.5 -18.833 -19.5 -32.5s-7.5 -27.5 -7.5 -41.5z" />
    <glyph glyph-name="dieresis" unicode="&#xa8;" horiz-adv-x="294" 
d="M57 640v88h44v-88h-44zM193 640v88h44v-88h-44z" />
    <glyph glyph-name="copyright" unicode="&#xa9;" horiz-adv-x="829" 
d="M414 -7c-52 0 -100.333 9.16699 -145 27.5s-83.334 43.666 -116.001 75.999s-58.167 70.5 -76.5 114.5s-27.5 92 -27.5 144c0 51.333 9.16699 99 27.5 143s43.833 82 76.5 114s71.334 57.167 116.001 75.5s93 27.5 145 27.5c52.667 0 101.334 -9.16699 146.001 -27.5
s83.334 -43.5 116.001 -75.5s58.167 -70 76.5 -114s27.5 -91.667 27.5 -143c0 -52 -9.16699 -100 -27.5 -144s-43.833 -82.167 -76.5 -114.5s-71.334 -57.666 -116.001 -75.999s-93.334 -27.5 -146.001 -27.5zM414 21c47.333 0 91.5 8.00488 132.5 24.0049
s76.5 38.667 106.5 68s53.667 64.166 71 104.499s26 85.166 26 134.499c0 48 -8.33301 92.5 -25 133.5s-40 76.5 -70 106.5s-65.5 53.333 -106.5 70s-85.833 25 -134.5 25c-48 0 -92.5 -8.33301 -133.5 -25s-76.333 -39.834 -106 -69.501s-53 -64.834 -70 -105.501
s-25.5 -85 -25.5 -133c0 -47.333 8.33301 -91.333 25 -132s40 -75.834 70 -105.501s65.5 -53 106.5 -70s85.5 -25.5 133.5 -25.5zM421 124.005c-28.667 0 -56.665 5.33301 -83.998 16s-51.666 26 -72.999 46s-38.5 44.333 -51.5 73s-19.5 60.667 -19.5 96
c0 27.333 4.5 54.833 13.5 82.5s22.5 52.667 40.5 75s41 40.5 69 54.5s61 21 99 21c41.333 0 78.666 -9 111.999 -27s57 -44.667 71 -80l-48 -16c-7.33301 16 -16.5 29.167 -27.5 39.5s-22.833 18.333 -35.5 24s-25.334 9.5 -38.001 11.5s-24 3 -34 3
c-29.333 0 -54.666 -5.66699 -75.999 -17s-39 -26 -53 -44s-24.5 -38.167 -31.5 -60.5s-10.5 -44.5 -10.5 -66.5c0 -30 5.5 -56.5 16.5 -79.5s25 -42.333 42 -58s35.667 -27.667 56 -36s40.166 -12.5 59.499 -12.5c12.667 0 26.167 1.83301 40.5 5.5s28 9 41 16
s24.667 15.667 35 26s18.166 21.833 23.499 34.5l48 -14c-4 -11.333 -11.167 -23.5 -21.5 -36.5s-23.5 -25.167 -39.5 -36.5s-34.5 -20.833 -55.5 -28.5s-43.833 -11.5 -68.5 -11.5z" />
    <glyph glyph-name="ordfeminine" unicode="&#xaa;" horiz-adv-x="431" 
d="M168 348c-16.667 0 -32.334 2.83398 -47.001 8.50098s-27.334 13.334 -38.001 23.001s-19 21.167 -25 34.5s-9 27.666 -9 42.999c0 31.333 13.833 56.833 41.5 76.5s63.5 29.5 107.5 29.5c19.333 0 38.333 -1.5 57 -4.5s35.334 -7.5 50.001 -13.5v31
c0 30 -8.83301 53.833 -26.5 71.5s-42.5 26.5 -74.5 26.5c-35.333 0 -73.666 -13.667 -114.999 -41l-17 31c46.667 30.667 91.667 46 135 46c46 0 82 -12.167 108 -36.5s39 -58.833 39 -103.5v-153c0 -12.667 5.66699 -19.334 17 -20.001v-43
c-5.33301 -0.666992 -9.83301 -1 -13.5 -1h-10.5c-21.333 2 -33 13.333 -35 34l-1 26c-16.667 -21.333 -37.5 -37.5 -62.5 -48.5s-51.833 -16.5 -80.5 -16.5zM180 386.001c23.333 0 45.332 4.16699 65.999 12.5s36.334 19.5 47.001 33.5c8 8.66699 12 17.667 12 27v55
c-15.333 6.66699 -31.333 11.167 -48 13.5s-33.667 3.5 -51 3.5c-33.333 0 -60 -6.5 -80 -19.5s-30 -30.167 -30 -51.5s8 -39 24 -53s36 -21 60 -21z" />
    <glyph glyph-name="guillemotleft" unicode="&#xab;" horiz-adv-x="552" 
d="M41 273l244 175v-45l-202 -144l202 -143v-45l-244 172v30zM243 273l244 175v-45l-202 -144l202 -143v-45l-244 172v30z" />
    <glyph glyph-name="logicalnot" unicode="&#xac;" horiz-adv-x="574" 
d="M504 354v-223h-45v177h-381v46h426z" />
    <glyph glyph-name="uni00AD" unicode="&#xad;" horiz-adv-x="559" 
d="M67 249v46h425v-46h-425z" />
    <glyph glyph-name="registered" unicode="&#xae;" horiz-adv-x="829" 
d="M414 -7c-52 0 -100.333 9.16699 -145 27.5s-83.334 43.666 -116.001 75.999s-58.167 70.5 -76.5 114.5s-27.5 92 -27.5 144c0 51.333 9.16699 99 27.5 143s43.833 82 76.5 114s71.334 57.167 116.001 75.5s93 27.5 145 27.5c52.667 0 101.334 -9.16699 146.001 -27.5
s83.334 -43.5 116.001 -75.5s58.167 -70 76.5 -114s27.5 -91.667 27.5 -143c0 -52 -9.16699 -100 -27.5 -144s-43.833 -82.167 -76.5 -114.5s-71.334 -57.666 -116.001 -75.999s-93.334 -27.5 -146.001 -27.5zM414 21c47.333 0 91.5 8.00098 132.5 24.001
s76.5 38.667 106.5 68s53.667 64.5 71 105.5s26 86.5 26 136.5c0 47.333 -8.33301 91.166 -25 131.499s-40 75.333 -70 105s-65.5 53 -106.5 70s-85.833 25.5 -134.5 25.5c-48 0 -92.5 -8.5 -133.5 -25.5s-76.333 -40.333 -106 -70s-52.834 -64.667 -69.501 -105
s-25 -84.166 -25 -131.499c0 -48 8.33301 -92.333 25 -133s39.834 -75.834 69.501 -105.501s65 -53 106 -70s85.5 -25.5 133.5 -25.5zM265 581.001l189.997 -0.00292969c19.333 0 37 -4.16699 53 -12.5s29.833 -19.166 41.5 -32.499s20.834 -28.5 27.501 -45.5
s10 -34.167 10 -51.5c0 -16.667 -2.66699 -32.667 -8 -48s-12.666 -29.166 -21.999 -41.499s-20.666 -22.666 -33.999 -30.999s-28 -13.5 -44 -15.5l113 -178h-45l-110 173h-132v-173h-40v456zM455.997 333.998c30 0 52.833 10.332 68.5 30.999s23.5 45.334 23.5 74.001
c0 30 -9 54.833 -27 74.5s-41 29.5 -69 29.5h-147v-209h151z" />
    <glyph glyph-name="macron" unicode="&#xaf;" horiz-adv-x="390" 
d="M53 672v37h285v-37h-285z" />
    <glyph glyph-name="degree" unicode="&#xb0;" horiz-adv-x="261" 
d="M53 647c0 21.333 7.5 39.5 22.5 54.5s33.167 22.5 54.5 22.5c22 0 40.5 -7.5 55.5 -22.5s22.5 -33.167 22.5 -54.5c0 -22.667 -7.5 -41.5 -22.5 -56.5s-33.5 -22.5 -55.5 -22.5c-21.333 0 -39.5 7.66699 -54.5 23s-22.5 34 -22.5 56zM98 679
c-8.66699 -10 -13.001 -21 -13.001 -33c0 -12.667 4.33301 -23.334 13 -32.001c4 -4 8.66699 -7.33301 14 -10s11.333 -4 18 -4s12.834 1.33301 18.501 4s10.5 6 14.5 10c8.66699 8.66699 13 19.334 13 32.001c0 12 -4.33301 23 -13 33c-8 8.66699 -19 13 -33 13
c-13.333 0 -24 -4.33301 -32 -13z" />
    <glyph glyph-name="plusminus" unicode="&#xb1;" horiz-adv-x="468" 
d="M77 70v43h314v-43h-314zM391 382v-43h-134v-144h-46v144h-134v43h134v144h46v-144h134z" />
    <glyph glyph-name="twosuperior" unicode="&#xb2;" horiz-adv-x="381" 
d="M37 413c0 25.333 2.66504 47.502 7.99805 66.502s13.333 35.5 24 49.5s23.834 26 39.501 36s33.5 19 53.5 27c15.333 6 31.166 11.667 47.499 17s31.166 11.833 44.499 19.5s24.333 17 33 28s13 24.5 13 40.5c0 21.333 -8.66699 40 -26 56s-44 24 -80 24
c-17.333 0 -32.833 -2 -46.5 -6s-25.834 -8.83301 -36.501 -14.5s-19.667 -11.834 -27 -18.501s-13.333 -12.667 -18 -18l-24 24c2 2.66699 6.66699 7.66699 14 15s17.5 14.833 30.5 22.5s28.833 14.5 47.5 20.5s40.334 9 65.001 9c23.333 0 43.833 -3 61.5 -9
s32.334 -14.333 44.001 -25s20.334 -22.834 26.001 -36.501s8.5 -28.5 8.5 -44.5c0 -20.667 -4.83301 -38.167 -14.5 -52.5s-21.667 -26.333 -36 -36s-29.666 -17.667 -45.999 -24s-31.5 -11.5 -45.5 -15.5c-24.667 -8 -44 -17 -58 -27s-24.667 -20.333 -32 -31
s-12 -21.5 -14 -32.5s-3 -21.167 -3 -30.5h247v-34h-300z" />
    <glyph glyph-name="threesuperior" unicode="&#xb3;" horiz-adv-x="386" 
d="M190 407c-42 0 -77.001 8.32617 -105.001 24.9932s-44 39 -48 67l23 21c0.666992 -9.33301 4.5 -18.666 11.5 -27.999s16.167 -17.666 27.5 -24.999s24.833 -13.166 40.5 -17.499s32.5 -6.5 50.5 -6.5c16.667 0 32.334 1.83301 47.001 5.5s27.334 8.83398 38.001 15.501
s19.167 14.667 25.5 24s9.5 19.666 9.5 30.999c0 24.667 -13.5 44 -40.5 58s-63.167 21 -108.5 21h-23v32h23c42.667 0 75.834 5.83301 99.501 17.5s35.5 29.167 35.5 52.5c0 12 -3 22.667 -9 32s-14 17.5 -24 24.5s-21.833 12.333 -35.5 16s-28.167 5.5 -43.5 5.5
c-28 0 -52.167 -5.16699 -72.5 -15.5s-35.166 -24.166 -44.499 -41.499l-25 26c11.333 19.333 30 34.833 56 46.5s54.667 17.5 86 17.5c21.333 0 41.166 -2.83301 59.499 -8.5s34.166 -13.334 47.499 -23.001s23.833 -21.167 31.5 -34.5s11.5 -27.666 11.5 -42.999
c0 -46 -30 -75 -90 -87c31.333 -5.33301 56.166 -17.166 74.499 -35.499s27.5 -40.166 27.5 -65.499c0 -16 -4.16699 -30.667 -12.5 -44s-19.5 -24.666 -33.5 -33.999s-30.5 -16.5 -49.5 -21.5s-39.167 -7.5 -60.5 -7.5z" />
    <glyph glyph-name="acute" unicode="&#xb4;" horiz-adv-x="213" 
d="M84 629l-35 16l61 85h58z" />
    <glyph glyph-name="mu" unicode="&#xb5;" horiz-adv-x="613" 
d="M85 520h50.001v-293c0 -128 44 -192 132 -192c22 0 43.333 3.83301 64 11.5s40 18.334 58 32.001s33.833 30.167 47.5 49.5s24.5 40.666 32.5 63.999v328h50v-450c0 -16.667 7 -25 21 -25v-45c-3.33301 -0.666992 -6.16602 -1 -8.49902 -1h-6.5
c-14.667 0 -26.834 4.5 -36.501 13.5s-14.5 20.833 -14.5 35.5v75c-10 -19.333 -22.333 -37.166 -37 -53.499s-31.167 -30.333 -49.5 -42s-37.833 -20.834 -58.5 -27.501s-42 -10 -64 -10c-34 0 -61.833 8.16699 -83.5 24.5s-37.834 38.833 -48.501 67.5v-294h-48v732z" />
    <glyph glyph-name="paragraph" unicode="&#xb6;" horiz-adv-x="588" 
d="M33 473c0 74.667 24.667 132.832 74 174.499s118.666 62.5 207.999 62.5h226v-41h-70v-749h-45v317h-80v-317h-45v317c-41.333 0.666992 -78.5 6.5 -111.5 17.5s-61.167 26.667 -84.5 47s-41.166 44.833 -53.499 73.5s-18.5 61.334 -18.5 98.001zM78 473.998
c0 -33.333 6 -62 18 -86s28.167 -43.833 48.5 -59.5s44 -27.5 71 -35.5s55.5 -12.667 85.5 -14v390c-72.667 -0.666992 -128 -18.167 -166 -52.5s-57 -81.833 -57 -142.5zM426 668.998h-80v-390h80v390z" />
    <glyph glyph-name="periodcentered" unicode="&#xb7;" horiz-adv-x="177" 
d="M67 248v101h44v-101h-44z" />
    <glyph glyph-name="cedilla" unicode="&#xb8;" horiz-adv-x="271" 
d="M37 -125c9.33301 -4.66699 21.8301 -9 37.4971 -13s32.167 -6 49.5 -6c38.667 0 58 12.333 58 37c0 13.333 -4.5 22.666 -13.5 27.999s-20.833 8 -35.5 8c-14 0 -28.667 -1.66699 -44 -5s-27.666 -6.33301 -36.999 -9l56 100l27 -12l-34 -56
c6 2.66699 12.833 4.33398 20.5 5.00098s14.167 1 19.5 1c22.667 0 40.334 -5 53.001 -15s19 -24.667 19 -44c0 -21.333 -8 -37.5 -24 -48.5s-39 -16.5 -69 -16.5c-19.333 0 -37.166 1.83301 -53.499 5.5s-30.833 8.16699 -43.5 13.5z" />
    <glyph glyph-name="onesuperior" unicode="&#xb9;" horiz-adv-x="264" 
d="M243 447v-35h-194v35h82v322c-3.33301 -4 -8.83301 -8.83301 -16.5 -14.5s-16 -11 -25 -16s-18.333 -9.16699 -28 -12.5s-18.5 -5 -26.5 -5v35c10.667 0 21.5 2.66699 32.5 8s21.167 11.333 30.5 18s17 13 23 19l10 10h36v-364h76z" />
    <glyph glyph-name="ordmasculine" unicode="&#xba;" horiz-adv-x="449" 
d="M224 348c-26 0 -49.834 4.83301 -71.501 14.5s-40.5 22.834 -56.5 39.501s-28.333 35.834 -37 57.501s-13 44.5 -13 68.5c0 24.667 4.5 48 13.5 70s21.333 41.333 37 58s34.334 29.834 56.001 39.501s45.5 14.5 71.5 14.5s49.833 -4.83301 71.5 -14.5
s40.5 -22.834 56.5 -39.501s28.5 -36 37.5 -58s13.5 -45.333 13.5 -70c0 -24 -4.5 -46.833 -13.5 -68.5s-21.333 -40.834 -37 -57.501s-34.5 -29.834 -56.5 -39.501s-46 -14.5 -72 -14.5zM89.999 527c0 -19.333 3.49902 -37.667 10.499 -55s16.5 -32.5 28.5 -45.5
s26.167 -23.167 42.5 -30.5s33.833 -11 52.5 -11s36.167 3.83301 52.5 11.5s30.666 18 42.999 31s22 28.167 29 45.5s10.5 36 10.5 56s-3.5 38.667 -10.5 56s-16.667 32.333 -29 45s-26.666 22.667 -42.999 30s-33.833 11 -52.5 11c-18 0 -35.167 -3.66699 -51.5 -11
s-30.666 -17.5 -42.999 -30.5s-22 -28.333 -29 -46s-10.5 -36.5 -10.5 -56.5z" />
    <glyph glyph-name="guillemotright" unicode="&#xbb;" horiz-adv-x="552" 
d="M511 243l-244 -172v45l202 143l-202 144v45l244 -175v-30zM310 243l-245 -172v45l203 143l-203 144v45l245 -175v-30z" />
    <glyph glyph-name="onequarter" unicode="&#xbc;" horiz-adv-x="795" 
d="M668 0v106h-230v32l240 255h25v-253h57v-34h-57v-106h-35zM478 140h190v202zM120 21l279 344l274 348l28 -23l-279 -345l-275 -348zM254 367v-35h-194v35h82v322c-3.33301 -4 -8.83301 -8.83301 -16.5 -14.5s-16 -11 -25 -16s-18.333 -9.16699 -28 -12.5
s-18.5 -5 -26.5 -5v35c10.667 0 21.5 2.66699 32.5 8s21.167 11.333 30.5 18s17 13 23 19l10 10h36v-364h76z" />
    <glyph glyph-name="onehalf" unicode="&#xbd;" horiz-adv-x="838" 
d="M497 0c0 50.667 10.666 89.502 31.999 116.502s52 48.167 92 63.5c14.667 6 30 11.667 46 17s30.5 11.666 43.5 18.999s23.667 16.5 32 27.5s12.5 24.5 12.5 40.5c0 21.333 -8.16699 39.5 -24.5 54.5s-42.5 22.5 -78.5 22.5c-17.333 0 -32.5 -2 -45.5 -6
s-24.5 -8.83301 -34.5 -14.5s-18.667 -11.834 -26 -18.501s-13.333 -13 -18 -19l-26 28c2 2.66699 6.66699 7.66699 14 15s17.333 14.833 30 22.5s28.334 14.5 47.001 20.5s40 9 64 9c46 0 80.5 -11.167 103.5 -33.5s34.5 -49.5 34.5 -81.5c0 -20.667 -4.66699 -38 -14 -52
s-21 -25.833 -35 -35.5s-29 -17.667 -45 -24s-31 -11.5 -45 -15.5c-24 -7.33301 -43 -15.5 -57 -24.5s-24.667 -18.833 -32 -29.5s-12 -21.667 -14 -33s-3 -23 -3 -35h246v-34h-299zM88.999 21.002l279 344l274 348l28 -23l-279 -345l-275 -348zM255.999 367.002v-35h-194
v35h82v322c-3.33301 -4 -8.83301 -8.83301 -16.5 -14.5s-16 -11 -25 -16s-18.333 -9.16699 -28 -12.5s-18.5 -5 -26.5 -5v35c10.667 0 21.5 2.66699 32.5 8s21.167 11.333 30.5 18s17 13 23 19l10 10h36v-364h76z" />
    <glyph glyph-name="threequarters" unicode="&#xbe;" horiz-adv-x="810" 
d="M196 327c-42 0 -77.001 8.32617 -105.001 24.9932s-44 39 -48 67l23 21c0.666992 -9.33301 4.5 -18.666 11.5 -27.999s16.167 -17.666 27.5 -24.999s24.833 -13.166 40.5 -17.499s32.5 -6.5 50.5 -6.5c16.667 0 32.334 1.83301 47.001 5.5s27.334 8.83398 38.001 15.501
s19.167 14.667 25.5 24s9.5 19.666 9.5 30.999c0 24.667 -13.5 44 -40.5 58s-63.167 21 -108.5 21h-23v32h23c42.667 0 75.834 5.83301 99.501 17.5s35.5 29.167 35.5 52.5c0 12 -3 22.667 -9 32s-14 17.5 -24 24.5s-21.833 12.333 -35.5 16s-28.167 5.5 -43.5 5.5
c-28 0 -52.167 -5.16699 -72.5 -15.5s-35.166 -24.166 -44.499 -41.499l-25 26c11.333 19.333 30 34.833 56 46.5s54.667 17.5 86 17.5c21.333 0 41.166 -2.83301 59.499 -8.5s34.166 -13.334 47.499 -23.001s23.833 -21.167 31.5 -34.5s11.5 -27.666 11.5 -42.999
c0 -46 -30 -75 -90 -87c31.333 -5.33301 56.166 -17.166 74.499 -35.499s27.5 -40.166 27.5 -65.499c0 -16 -4.16699 -30.667 -12.5 -44s-19.5 -24.666 -33.5 -33.999s-30.5 -16.5 -49.5 -21.5s-39.167 -7.5 -60.5 -7.5zM678.999 -0.00683594v106h-230v32l240 255h25v-253
h57v-34h-57v-106h-35zM488.999 139.993h190v202zM154.999 20.9932l279 344l274 348l28 -23l-279 -345l-275 -348z" />
    <glyph glyph-name="questiondown" unicode="&#xbf;" horiz-adv-x="466" 
d="M306 313c0 -26 -1.83496 -48.3301 -5.50195 -66.9971s-9.16699 -34.834 -16.5 -48.501s-16.333 -25.334 -27 -35.001s-22.667 -18.5 -36 -26.5c-14 -8 -29.333 -16.167 -46 -24.5s-32.167 -18.333 -46.5 -30s-26.166 -26.167 -35.499 -43.5s-14 -39 -14 -65
c0 -24 4.16699 -45 12.5 -63s19.333 -33 33 -45s29.334 -20.833 47.001 -26.5s35.834 -8.5 54.501 -8.5c38 0 72.333 10 103 30s53.667 46 69 78l36 -22c-9.33301 -20.667 -21.333 -39 -36 -55s-31.167 -29.5 -49.5 -40.5s-38 -19.333 -59 -25s-42.167 -8.5 -63.5 -8.5
c-24.667 0 -48.5 4 -71.5 12s-43.5 19.833 -61.5 35.5s-32.333 35.334 -43 59.001s-16 51.167 -16 82.5c0 28 4.16699 51.667 12.5 71s19.333 35.666 33 48.999s29.167 24.833 46.5 34.5s34.666 18.5 51.999 26.5c14 6.66699 26.167 13.5 36.5 20.5s19 16.167 26 27.5
s12.333 25.666 16 42.999s5.5 39 5.5 65h44zM304.998 506.003v-98h-44v98h44z" />
    <glyph glyph-name="Agrave" unicode="&#xc0;" horiz-adv-x="675" 
d="M316 710h44l300 -710h-54l-99 234h-339l-99 -234h-55zM493 276l-155 372l-158 -372h313zM254 918h57l62 -85l-34 -16z" />
    <glyph glyph-name="Aacute" unicode="&#xc1;" horiz-adv-x="675" 
d="M316 710h44l300 -710h-54l-99 234h-339l-99 -234h-55zM493 276l-155 372l-158 -372h313zM337 816l-35 16l61 85h58z" />
    <glyph glyph-name="Acircumflex" unicode="&#xc2;" horiz-adv-x="675" 
d="M316 710h44l300 -710h-54l-99 234h-339l-99 -234h-55zM493 276l-155 372l-158 -372h313zM223 836l96 81h37l97 -81l-30 -17l-85 63l-85 -63z" />
    <glyph glyph-name="Atilde" unicode="&#xc3;" horiz-adv-x="675" 
d="M316 710h44l300 -710h-54l-99 234h-339l-99 -234h-55zM493 276l-155 372l-158 -372h313zM399 834c-14.667 0 -27.6699 1.99902 -39.0029 5.99902s-21.666 8.5 -30.999 13.5s-18.5 9.66699 -27.5 14s-18.5 6.5 -28.5 6.5c-11.333 0 -20.333 -2.33301 -27 -7
s-11.667 -9.83398 -15 -15.501s-5.66602 -11 -6.99902 -16s-2 -8.16699 -2 -9.5h-34c0 2.66699 1 8.5 3 17.5s6.16699 18.333 12.5 28s15 18.334 26 26.001s25.5 11.5 43.5 11.5c13.333 0 25.166 -2.16699 35.499 -6.5s20.166 -9 29.499 -14s18.833 -9.5 28.5 -13.5
s20.834 -6 33.501 -6c13.333 0 23.833 2.33301 31.5 7s13.334 9.83398 17.001 15.501s6 11 7 16s1.5 8.16699 1.5 9.5h34c0 -3.33301 -1.16699 -9.5 -3.5 -18.5s-6.66602 -18.167 -12.999 -27.5s-15.5 -17.833 -27.5 -25.5s-28 -11.5 -48 -11.5z" />
    <glyph glyph-name="Adieresis" unicode="&#xc4;" horiz-adv-x="675" 
d="M316 710h44l300 -710h-54l-99 234h-339l-99 -234h-55zM493 276l-155 372l-158 -372h313zM248 828v88h44v-88h-44zM384 828v88h44v-88h-44z" />
    <glyph glyph-name="Aring" unicode="&#xc5;" horiz-adv-x="675" 
d="M316 710h44l300 -710h-54l-99 234h-339l-99 -234h-55zM493 276l-155 372l-158 -372h313zM269 855c0 18 6.5 32.833 19.5 44.5s29.167 17.5 48.5 17.5s35.5 -5.83301 48.5 -17.5s19.5 -26.5 19.5 -44.5c0 -18.667 -6.5 -33.834 -19.5 -45.501s-29.167 -17.5 -48.5 -17.5
s-35.5 5.83301 -48.5 17.5s-19.5 26.834 -19.5 45.501zM337 894c-11.333 0 -20.833 -3.5 -28.5 -10.5s-11.5 -16.5 -11.5 -28.5c0 -11.333 3.83301 -20.833 11.5 -28.5s17.167 -11.5 28.5 -11.5c10.667 0 20.167 3.83301 28.5 11.5s12.5 17.167 12.5 28.5
c0 12 -4 21.5 -12 28.5s-17.667 10.5 -29 10.5z" />
    <glyph glyph-name="AE" unicode="&#xc6;" horiz-adv-x="962" 
d="M434 710h474v-46h-410v-278h356v-47h-356v-293h419v-46h-469v234h-267l-151 -234h-57zM445 280v366l-240 -366h240z" />
    <glyph glyph-name="Ccedilla" unicode="&#xc7;" horiz-adv-x="687" 
d="M296 -125c9.33301 -4.66699 21.8311 -9 37.498 -13s32.167 -6 49.5 -6c38.667 0 58 12.333 58 37c0 13.333 -4.5 22.666 -13.5 27.999s-20.833 8 -35.5 8c-14 0 -28.667 -1.66699 -44 -5s-27.666 -6.33301 -36.999 -9l44 80c-46.667 2 -89.334 14 -128.001 36
s-71.834 50 -99.501 84s-49.167 72.333 -64.5 115s-23 86 -23 130c0 42.667 7.5 85.167 22.5 127.5s36.833 80.166 65.5 113.499s63.834 60.5 105.501 81.5s89.167 31.5 142.5 31.5c63.333 0 117.333 -14.5 162 -43.5s78 -66.167 100 -111.5l-42 -24
c-12.667 24.667 -27.5 45.334 -44.5 62.001s-35.333 30.167 -55 40.5s-40.167 17.833 -61.5 22.5s-42.333 7 -63 7c-45.333 0 -85.333 -9.16699 -120 -27.5s-64 -42.166 -88 -71.499s-42.167 -62.5 -54.5 -99.5s-18.5 -74.167 -18.5 -111.5c0 -42 7.33301 -82 22 -120
s34.667 -71.5 60 -100.5s55.333 -52.167 90 -69.5s72 -26 112 -26c21.333 0 43.333 2.66699 66 8s44.334 13.666 65.001 24.999s40 25.833 58 43.5s33 38.5 45 62.5l44 -21c-11.333 -25.333 -26.5 -47.833 -45.5 -67.5s-40.333 -36.5 -64 -50.5
s-48.834 -24.833 -75.501 -32.5s-53 -12.167 -79 -13.5l-29 -48c6 2.66699 12.833 4.33398 20.5 5.00098s14.167 1 19.5 1c22.667 0 40.334 -5 53.001 -15s19 -24.667 19 -44c0 -21.333 -8 -37.5 -24 -48.5s-39 -16.5 -69 -16.5c-19.333 0 -37.166 1.83301 -53.499 5.5
s-30.833 8.16699 -43.5 13.5z" />
    <glyph glyph-name="Egrave" unicode="&#xc8;" 
d="M566 46v-46h-473v710h464v-46h-413v-279h361v-44h-361v-295h422zM256 918h57l62 -85l-34 -16z" />
    <glyph glyph-name="Eacute" unicode="&#xc9;" 
d="M339 816l-35 16l61 85h58zM566 46v-46h-473v710h464v-46h-413v-279h361v-44h-361v-295h422z" />
    <glyph glyph-name="Ecircumflex" unicode="&#xca;" 
d="M225 836l96 81h37l97 -81l-30 -17l-85 63l-85 -63zM566 46v-46h-473v710h464v-46h-413v-279h361v-44h-361v-295h422z" />
    <glyph glyph-name="Edieresis" unicode="&#xcb;" 
d="M249 828v88h44v-88h-44zM385 828v88h44v-88h-44zM566 46v-46h-473v710h464v-46h-413v-279h361v-44h-361v-295h422z" />
    <glyph glyph-name="Igrave" unicode="&#xcc;" horiz-adv-x="237" 
d="M93 0v710h51v-710h-51zM34 918h57l62 -85l-34 -16z" />
    <glyph glyph-name="Iacute" unicode="&#xcd;" horiz-adv-x="237" 
d="M93 0v710h51v-710h-51zM117 816l-35 16l61 85h58z" />
    <glyph glyph-name="Icircumflex" unicode="&#xce;" horiz-adv-x="237" 
d="M93 0v710h51v-710h-51zM3 836l96 81h37l97 -81l-30 -17l-85 63l-85 -63z" />
    <glyph glyph-name="Idieresis" unicode="&#xcf;" horiz-adv-x="237" 
d="M93 0v710h51v-710h-51zM28 828v88h44v-88h-44zM164 828v88h44v-88h-44z" />
    <glyph glyph-name="Eth" unicode="&#xd0;" horiz-adv-x="720" 
d="M100 0v336h-65v42h65v332h236c56 0 105.167 -9.33301 147.5 -28s77.5 -44 105.5 -76s49 -69.5 63 -112.5s21 -88.833 21 -137.5c0 -54 -7.83301 -102.833 -23.5 -146.5s-38.167 -81 -67.5 -112s-64.833 -55 -106.5 -72s-88.167 -25.5 -139.5 -25.5h-236zM622 356
c0 44.667 -6.33496 85.834 -19.002 123.501s-31.167 70.167 -55.5 97.5s-54.166 48.666 -89.499 63.999s-76 23 -122 23h-185v-286h178v-42h-178v-290h185c46.667 0 87.834 7.83301 123.501 23.5s65.5 37.5 89.5 65.5s42.167 60.833 54.5 98.5s18.5 78.5 18.5 122.5z" />
    <glyph glyph-name="Ntilde" unicode="&#xd1;" horiz-adv-x="773" 
d="M144 614v-614h-51v710h39l498 -625v625h51v-710h-47zM452 834c-14.667 0 -27.6699 1.99902 -39.0029 5.99902s-21.666 8.5 -30.999 13.5s-18.5 9.66699 -27.5 14s-18.5 6.5 -28.5 6.5c-11.333 0 -20.333 -2.33301 -27 -7s-11.667 -9.83398 -15 -15.501
s-5.66602 -11 -6.99902 -16s-2 -8.16699 -2 -9.5h-34c0 2.66699 1 8.5 3 17.5s6.16699 18.333 12.5 28s15 18.334 26 26.001s25.5 11.5 43.5 11.5c13.333 0 25.166 -2.16699 35.499 -6.5s20.166 -9 29.499 -14s18.833 -9.5 28.5 -13.5s20.834 -6 33.501 -6
c13.333 0 23.833 2.33301 31.5 7s13.334 9.83398 17.001 15.501s6 11 7 16s1.5 8.16699 1.5 9.5h34c0 -3.33301 -1.16699 -9.5 -3.5 -18.5s-6.66602 -18.167 -12.999 -27.5s-15.5 -17.833 -27.5 -25.5s-28 -11.5 -48 -11.5z" />
    <glyph glyph-name="Ograve" unicode="&#xd2;" horiz-adv-x="753" 
d="M376 -5c-49.333 0 -94.333 10.3369 -135 31.0039s-75.667 47.667 -105 81s-52 71.666 -68 114.999s-24 87.666 -24 132.999c0 47.333 8.5 92.666 25.5 135.999s40.333 81.666 70 114.999s64.834 59.833 105.501 79.5s84.667 29.5 132 29.5
c49.333 0 94.5 -10.5 135.5 -31.5s76 -48.5 105 -82.5s51.5 -72.5 67.5 -115.5s24 -86.5 24 -130.5c0 -48 -8.5 -93.667 -25.5 -137s-40.333 -81.5 -70 -114.5s-64.834 -59.333 -105.501 -79s-84.667 -29.5 -132 -29.5zM95 355.004
c0 -40.667 6.83691 -79.834 20.5039 -117.501s33 -71 58 -100s54.833 -52.167 89.5 -69.5s72.667 -26 114 -26c42.667 0 81.167 9 115.5 27s63.666 41.833 87.999 71.5s43.166 63.167 56.499 100.5s20 75.333 20 114c0 40.667 -7 79.834 -21 117.501s-33.5 71 -58.5 100
s-54.5 52.167 -88.5 69.5s-71.333 26 -112 26c-42.667 0 -81.334 -9 -116.001 -27s-64.334 -41.833 -89.001 -71.5s-43.667 -63.167 -57 -100.5s-20 -75.333 -20 -114zM293.004 918.004h57l62 -85l-34 -16z" />
    <glyph glyph-name="Oacute" unicode="&#xd3;" horiz-adv-x="753" 
d="M376 816l-35 16l61 85h58zM376 -5c-49.333 0 -94.333 10.3369 -135 31.0039s-75.667 47.667 -105 81s-52 71.666 -68 114.999s-24 87.666 -24 132.999c0 47.333 8.5 92.666 25.5 135.999s40.333 81.666 70 114.999s64.834 59.833 105.501 79.5s84.667 29.5 132 29.5
c49.333 0 94.5 -10.5 135.5 -31.5s76 -48.5 105 -82.5s51.5 -72.5 67.5 -115.5s24 -86.5 24 -130.5c0 -48 -8.5 -93.667 -25.5 -137s-40.333 -81.5 -70 -114.5s-64.834 -59.333 -105.501 -79s-84.667 -29.5 -132 -29.5zM95 355.004
c0 -40.667 6.83691 -79.834 20.5039 -117.501s33 -71 58 -100s54.833 -52.167 89.5 -69.5s72.667 -26 114 -26c42.667 0 81.167 9 115.5 27s63.666 41.833 87.999 71.5s43.166 63.167 56.499 100.5s20 75.333 20 114c0 40.667 -7 79.834 -21 117.501s-33.5 71 -58.5 100
s-54.5 52.167 -88.5 69.5s-71.333 26 -112 26c-42.667 0 -81.334 -9 -116.001 -27s-64.334 -41.833 -89.001 -71.5s-43.667 -63.167 -57 -100.5s-20 -75.333 -20 -114z" />
    <glyph glyph-name="Ocircumflex" unicode="&#xd4;" horiz-adv-x="753" 
d="M262 836l96 81h37l97 -81l-30 -17l-85 63l-85 -63zM376 -5c-49.333 0 -94.333 10.3369 -135 31.0039s-75.667 47.667 -105 81s-52 71.666 -68 114.999s-24 87.666 -24 132.999c0 47.333 8.5 92.666 25.5 135.999s40.333 81.666 70 114.999s64.834 59.833 105.501 79.5
s84.667 29.5 132 29.5c49.333 0 94.5 -10.5 135.5 -31.5s76 -48.5 105 -82.5s51.5 -72.5 67.5 -115.5s24 -86.5 24 -130.5c0 -48 -8.5 -93.667 -25.5 -137s-40.333 -81.5 -70 -114.5s-64.834 -59.333 -105.501 -79s-84.667 -29.5 -132 -29.5zM95 355.004
c0 -40.667 6.83691 -79.834 20.5039 -117.501s33 -71 58 -100s54.833 -52.167 89.5 -69.5s72.667 -26 114 -26c42.667 0 81.167 9 115.5 27s63.666 41.833 87.999 71.5s43.166 63.167 56.499 100.5s20 75.333 20 114c0 40.667 -7 79.834 -21 117.501s-33.5 71 -58.5 100
s-54.5 52.167 -88.5 69.5s-71.333 26 -112 26c-42.667 0 -81.334 -9 -116.001 -27s-64.334 -41.833 -89.001 -71.5s-43.667 -63.167 -57 -100.5s-20 -75.333 -20 -114z" />
    <glyph glyph-name="Otilde" unicode="&#xd5;" horiz-adv-x="753" 
d="M376 -5c-49.333 0 -94.333 10.3369 -135 31.0039s-75.667 47.667 -105 81s-52 71.666 -68 114.999s-24 87.666 -24 132.999c0 47.333 8.5 92.666 25.5 135.999s40.333 81.666 70 114.999s64.834 59.833 105.501 79.5s84.667 29.5 132 29.5
c49.333 0 94.5 -10.5 135.5 -31.5s76 -48.5 105 -82.5s51.5 -72.5 67.5 -115.5s24 -86.5 24 -130.5c0 -48 -8.5 -93.667 -25.5 -137s-40.333 -81.5 -70 -114.5s-64.834 -59.333 -105.501 -79s-84.667 -29.5 -132 -29.5zM95 355.004
c0 -40.667 6.83691 -79.834 20.5039 -117.501s33 -71 58 -100s54.833 -52.167 89.5 -69.5s72.667 -26 114 -26c42.667 0 81.167 9 115.5 27s63.666 41.833 87.999 71.5s43.166 63.167 56.499 100.5s20 75.333 20 114c0 40.667 -7 79.834 -21 117.501s-33.5 71 -58.5 100
s-54.5 52.167 -88.5 69.5s-71.333 26 -112 26c-42.667 0 -81.334 -9 -116.001 -27s-64.334 -41.833 -89.001 -71.5s-43.667 -63.167 -57 -100.5s-20 -75.333 -20 -114zM438.004 834.004c-14.667 0 -27.6699 1.99902 -39.0029 5.99902s-21.666 8.5 -30.999 13.5
s-18.5 9.66699 -27.5 14s-18.5 6.5 -28.5 6.5c-11.333 0 -20.333 -2.33301 -27 -7s-11.667 -9.83398 -15 -15.501s-5.66602 -11 -6.99902 -16s-2 -8.16699 -2 -9.5h-34c0 2.66699 1 8.5 3 17.5s6.16699 18.333 12.5 28s15 18.334 26 26.001s25.5 11.5 43.5 11.5
c13.333 0 25.166 -2.16699 35.499 -6.5s20.166 -9 29.499 -14s18.833 -9.5 28.5 -13.5s20.834 -6 33.501 -6c13.333 0 23.833 2.33301 31.5 7s13.334 9.83398 17.001 15.501s6 11 7 16s1.5 8.16699 1.5 9.5h34c0 -3.33301 -1.16699 -9.5 -3.5 -18.5
s-6.66602 -18.167 -12.999 -27.5s-15.5 -17.833 -27.5 -25.5s-28 -11.5 -48 -11.5z" />
    <glyph glyph-name="Odieresis" unicode="&#xd6;" horiz-adv-x="753" 
d="M287 828v88h44v-88h-44zM423 828v88h44v-88h-44zM376 -5c-49.333 0 -94.333 10.3369 -135 31.0039s-75.667 47.667 -105 81s-52 71.666 -68 114.999s-24 87.666 -24 132.999c0 47.333 8.5 92.666 25.5 135.999s40.333 81.666 70 114.999s64.834 59.833 105.501 79.5
s84.667 29.5 132 29.5c49.333 0 94.5 -10.5 135.5 -31.5s76 -48.5 105 -82.5s51.5 -72.5 67.5 -115.5s24 -86.5 24 -130.5c0 -48 -8.5 -93.667 -25.5 -137s-40.333 -81.5 -70 -114.5s-64.834 -59.333 -105.501 -79s-84.667 -29.5 -132 -29.5zM95 355.004
c0 -40.667 6.83691 -79.834 20.5039 -117.501s33 -71 58 -100s54.833 -52.167 89.5 -69.5s72.667 -26 114 -26c42.667 0 81.167 9 115.5 27s63.666 41.833 87.999 71.5s43.166 63.167 56.499 100.5s20 75.333 20 114c0 40.667 -7 79.834 -21 117.501s-33.5 71 -58.5 100
s-54.5 52.167 -88.5 69.5s-71.333 26 -112 26c-42.667 0 -81.334 -9 -116.001 -27s-64.334 -41.833 -89.001 -71.5s-43.667 -63.167 -57 -100.5s-20 -75.333 -20 -114z" />
    <glyph glyph-name="multiply" unicode="&#xd7;" horiz-adv-x="451" 
d="M385 145l-33 -32l-127 126l-126 -126l-32 33l125 125l-125 127l33 32l125 -126l127 127l32 -33l-126 -127z" />
    <glyph glyph-name="Oslash" unicode="&#xd8;" horiz-adv-x="753" 
d="M639 710l-52.002 -77.999c38.667 -35.333 68.667 -77.5 90 -126.5s32 -99.167 32 -150.5c0 -48 -8.5 -93.667 -25.5 -137s-40.333 -81.5 -70 -114.5s-64.834 -59.333 -105.501 -79s-84.667 -29.5 -132 -29.5c-32.667 0 -63.667 4.66699 -93 14s-56 22.333 -80 39l-31 -48
h-57l50 77c-38 34.667 -67.667 76.334 -89 125.001s-32 99.667 -32 153c0 47.333 8.5 92.666 25.5 135.999s40.333 81.666 70 114.999s64.834 59.833 105.501 79.5s84.667 29.5 132 29.5c32.667 0 63.334 -4.66699 92.001 -14s55.334 -22.333 80.001 -39l32 48h58z
M94.998 355.001c0 -46 8.5 -89.5 25.5 -130.5s40.833 -76.5 71.5 -106.5l331 504c-21.333 14.667 -44.166 26 -68.499 34s-50.166 12 -77.499 12c-42.667 0 -81.334 -9 -116.001 -27s-64.334 -41.833 -89.001 -71.5s-43.667 -63.167 -57 -100.5s-20 -75.333 -20 -114z
M656.998 355.001c0 45.333 -8.66504 88.5 -25.998 129.5s-41 76.5 -71 106.5l-331 -504c21.333 -14 44.333 -25 69 -33s51 -12 79 -12c42.667 0 81.167 9 115.5 27s63.666 41.833 87.999 71.5s43.166 63.167 56.499 100.5s20 75.333 20 114z" />
    <glyph glyph-name="Ugrave" unicode="&#xd9;" horiz-adv-x="756" 
d="M378 42c48 0 87.832 8.99805 119.499 26.998s56.667 41.667 75 71s31.333 62.666 39 99.999s11.5 75 11.5 113v357h51v-357c0 -47.333 -5.16699 -92.666 -15.5 -135.999s-27.166 -81.5 -50.499 -114.5s-53.666 -59.167 -90.999 -78.5s-83.333 -29 -138 -29
c-56.667 0 -104 10.167 -142 30.5s-68.5 47.333 -91.5 81s-39.333 71.834 -49 114.501s-14.5 86.667 -14.5 132v357h51v-357c0 -39.333 3.83301 -77.666 11.5 -114.999s21 -70.5 40 -99.5s44.167 -52.333 75.5 -70s70.666 -26.5 117.999 -26.5zM294.999 917.998h57l62 -85
l-34 -16z" />
    <glyph glyph-name="Uacute" unicode="&#xda;" horiz-adv-x="756" 
d="M378 816l-35 16l61 85h58zM378 42c48 0 87.832 8.99805 119.499 26.998s56.667 41.667 75 71s31.333 62.666 39 99.999s11.5 75 11.5 113v357h51v-357c0 -47.333 -5.16699 -92.666 -15.5 -135.999s-27.166 -81.5 -50.499 -114.5s-53.666 -59.167 -90.999 -78.5
s-83.333 -29 -138 -29c-56.667 0 -104 10.167 -142 30.5s-68.5 47.333 -91.5 81s-39.333 71.834 -49 114.501s-14.5 86.667 -14.5 132v357h51v-357c0 -39.333 3.83301 -77.666 11.5 -114.999s21 -70.5 40 -99.5s44.167 -52.333 75.5 -70s70.666 -26.5 117.999 -26.5z" />
    <glyph glyph-name="Ucircumflex" unicode="&#xdb;" horiz-adv-x="756" 
d="M264 836l96 81h37l97 -81l-30 -17l-85 63l-85 -63zM378 42c48 0 87.832 8.99805 119.499 26.998s56.667 41.667 75 71s31.333 62.666 39 99.999s11.5 75 11.5 113v357h51v-357c0 -47.333 -5.16699 -92.666 -15.5 -135.999s-27.166 -81.5 -50.499 -114.5
s-53.666 -59.167 -90.999 -78.5s-83.333 -29 -138 -29c-56.667 0 -104 10.167 -142 30.5s-68.5 47.333 -91.5 81s-39.333 71.834 -49 114.501s-14.5 86.667 -14.5 132v357h51v-357c0 -39.333 3.83301 -77.666 11.5 -114.999s21 -70.5 40 -99.5s44.167 -52.333 75.5 -70
s70.666 -26.5 117.999 -26.5z" />
    <glyph glyph-name="Udieresis" unicode="&#xdc;" horiz-adv-x="756" 
d="M288 828v88h44v-88h-44zM424 828v88h44v-88h-44zM378 42c48 0 87.832 8.99805 119.499 26.998s56.667 41.667 75 71s31.333 62.666 39 99.999s11.5 75 11.5 113v357h51v-357c0 -47.333 -5.16699 -92.666 -15.5 -135.999s-27.166 -81.5 -50.499 -114.5
s-53.666 -59.167 -90.999 -78.5s-83.333 -29 -138 -29c-56.667 0 -104 10.167 -142 30.5s-68.5 47.333 -91.5 81s-39.333 71.834 -49 114.501s-14.5 86.667 -14.5 132v357h51v-357c0 -39.333 3.83301 -77.666 11.5 -114.999s21 -70.5 40 -99.5s44.167 -52.333 75.5 -70
s70.666 -26.5 117.999 -26.5z" />
    <glyph glyph-name="Yacute" unicode="&#xdd;" horiz-adv-x="647" 
d="M75 710l248 -393l249 393h57l-280 -442v-268h-51v270l-279 440h56zM322 816l-35 16l61 85h58z" />
    <glyph glyph-name="Thorn" unicode="&#xde;" horiz-adv-x="601" 
d="M366 566c30 0 57.667 -6.33398 83 -19.001s47 -29.5 65 -50.5s32.167 -44.667 42.5 -71s15.5 -53.166 15.5 -80.499c0 -28.667 -4.83301 -56.334 -14.5 -83.001s-23.167 -50.167 -40.5 -70.5s-38.333 -36.666 -63 -48.999s-52 -18.5 -82 -18.5h-228v-124h-51v710h51v-144
h222zM371 170.999c23.333 0 44.332 5 62.999 15s34.5 23.167 47.5 39.5s23 34.833 30 55.5s10.5 42 10.5 64c0 22.667 -4.16699 44.5 -12.5 65.5s-19.666 39.5 -33.999 55.5s-31 28.833 -50 38.5s-39.5 14.5 -61.5 14.5h-220v-348h227z" />
    <glyph glyph-name="germandbls" unicode="&#xdf;" horiz-adv-x="549" 
d="M235 40c68.667 1.33301 122.837 15.999 162.504 43.999s59.5 69.333 59.5 124c0 25.333 -4.5 48.333 -13.5 69s-21.5 38.5 -37.5 53.5s-35.167 26.5 -57.5 34.5s-46.833 12 -73.5 12h-17v47h16c19.333 0 37.166 3 53.499 9s30.5 14.5 42.5 25.5s21.333 24 28 39
s10 31.5 10 49.5c0 18.667 -3.5 35.5 -10.5 50.5s-16.833 27.833 -29.5 38.5s-27.334 18.834 -44.001 24.501s-34.334 8.5 -53.001 8.5c-23.333 0 -43.833 -4.16699 -61.5 -12.5s-32.667 -19.666 -45 -33.999s-21.666 -31.5 -27.999 -51.5s-9.5 -41.667 -9.5 -65v-506h-49
v513c0 30 4.83301 57.333 14.5 82s23 45.834 40 63.501s37.5 31.334 61.5 41.001s50 14.5 78 14.5c26 0 50.333 -4 73 -12s42.167 -19 58.5 -33s29.166 -30.833 38.499 -50.5s14 -40.834 14 -63.501c0 -18 -2.83301 -35.333 -8.5 -52s-13.5 -31.834 -23.5 -45.501
s-21.833 -25.334 -35.5 -35.001s-28.167 -16.167 -43.5 -19.5c52 -11.333 92.167 -34.5 120.5 -69.5s42.5 -77.833 42.5 -128.5c0 -66 -24.333 -117 -73 -153s-115.334 -55.333 -200.001 -58v46z" />
    <glyph glyph-name="agrave" unicode="&#xe0;" horiz-adv-x="537" 
d="M206 -10c-24 0 -46.333 4.16406 -67 12.4971s-38.834 19.666 -54.501 33.999s-27.834 31.333 -36.501 51s-13 40.834 -13 63.501s5.33301 43.334 16 62.001s25.5 34.834 44.5 48.501s41.833 24.334 68.5 32.001s56 11.5 88 11.5c28 0 56.167 -2.5 84.5 -7.5
s53.833 -11.833 76.5 -20.5v51c0 49.333 -14 88.5 -42 117.5s-66 43.5 -114 43.5c-25.333 0 -52.166 -5.33301 -80.499 -16s-57.166 -26 -86.499 -46l-19 34c66.667 45.333 130 68 190 68c62.667 0 112 -18.167 148 -54.5s54 -86.5 54 -150.5v-254
c0 -16.667 7.33301 -25 22 -25v-45c-3.33301 -0.666992 -6.83301 -1.16699 -10.5 -1.5s-6.83398 -0.5 -9.50098 -0.5c-13.333 0 -24 4.5 -32 13.5s-12.667 19.833 -14 32.5v43c-24 -31.333 -54.667 -55.333 -92 -72s-77.666 -25 -120.999 -25zM216 29.9971
c38.667 0 74.166 7.33105 106.499 21.998s57.166 34 74.499 58c10.667 14 16 27.333 16 40v92c-24 9.33301 -49 16.333 -75 21s-53 7 -81 7c-26 0 -49.667 -2.83301 -71 -8.5s-39.666 -13.5 -54.999 -23.5s-27.166 -22.167 -35.499 -36.5s-12.5 -30.166 -12.5 -47.499
s3.33301 -33.666 10 -48.999s16 -28.5 28 -39.5s26.167 -19.667 42.5 -26s33.833 -9.5 52.5 -9.5zM176.999 729.995h57l62 -85l-34 -16z" />
    <glyph glyph-name="aacute" unicode="&#xe1;" horiz-adv-x="537" 
d="M206 -10c-24 0 -46.333 4.16406 -67 12.4971s-38.834 19.666 -54.501 33.999s-27.834 31.333 -36.501 51s-13 40.834 -13 63.501s5.33301 43.334 16 62.001s25.5 34.834 44.5 48.501s41.833 24.334 68.5 32.001s56 11.5 88 11.5c28 0 56.167 -2.5 84.5 -7.5
s53.833 -11.833 76.5 -20.5v51c0 49.333 -14 88.5 -42 117.5s-66 43.5 -114 43.5c-25.333 0 -52.166 -5.33301 -80.499 -16s-57.166 -26 -86.499 -46l-19 34c66.667 45.333 130 68 190 68c62.667 0 112 -18.167 148 -54.5s54 -86.5 54 -150.5v-254
c0 -16.667 7.33301 -25 22 -25v-45c-3.33301 -0.666992 -6.83301 -1.16699 -10.5 -1.5s-6.83398 -0.5 -9.50098 -0.5c-13.333 0 -24 4.5 -32 13.5s-12.667 19.833 -14 32.5v43c-24 -31.333 -54.667 -55.333 -92 -72s-77.666 -25 -120.999 -25zM216 29.9971
c38.667 0 74.166 7.33105 106.499 21.998s57.166 34 74.499 58c10.667 14 16 27.333 16 40v92c-24 9.33301 -49 16.333 -75 21s-53 7 -81 7c-26 0 -49.667 -2.83301 -71 -8.5s-39.666 -13.5 -54.999 -23.5s-27.166 -22.167 -35.499 -36.5s-12.5 -30.166 -12.5 -47.499
s3.33301 -33.666 10 -48.999s16 -28.5 28 -39.5s26.167 -19.667 42.5 -26s33.833 -9.5 52.5 -9.5zM259.999 628.995l-35 16l61 85h58z" />
    <glyph glyph-name="acircumflex" unicode="&#xe2;" horiz-adv-x="537" 
d="M206 -10c-24 0 -46.333 4.16406 -67 12.4971s-38.834 19.666 -54.501 33.999s-27.834 31.333 -36.501 51s-13 40.834 -13 63.501s5.33301 43.334 16 62.001s25.5 34.834 44.5 48.501s41.833 24.334 68.5 32.001s56 11.5 88 11.5c28 0 56.167 -2.5 84.5 -7.5
s53.833 -11.833 76.5 -20.5v51c0 49.333 -14 88.5 -42 117.5s-66 43.5 -114 43.5c-25.333 0 -52.166 -5.33301 -80.499 -16s-57.166 -26 -86.499 -46l-19 34c66.667 45.333 130 68 190 68c62.667 0 112 -18.167 148 -54.5s54 -86.5 54 -150.5v-254
c0 -16.667 7.33301 -25 22 -25v-45c-3.33301 -0.666992 -6.83301 -1.16699 -10.5 -1.5s-6.83398 -0.5 -9.50098 -0.5c-13.333 0 -24 4.5 -32 13.5s-12.667 19.833 -14 32.5v43c-24 -31.333 -54.667 -55.333 -92 -72s-77.666 -25 -120.999 -25zM216 29.9971
c38.667 0 74.166 7.33105 106.499 21.998s57.166 34 74.499 58c10.667 14 16 27.333 16 40v92c-24 9.33301 -49 16.333 -75 21s-53 7 -81 7c-26 0 -49.667 -2.83301 -71 -8.5s-39.666 -13.5 -54.999 -23.5s-27.166 -22.167 -35.499 -36.5s-12.5 -30.166 -12.5 -47.499
s3.33301 -33.666 10 -48.999s16 -28.5 28 -39.5s26.167 -19.667 42.5 -26s33.833 -9.5 52.5 -9.5zM145.999 648.995l96 81h37l97 -81l-30 -17l-85 63l-85 -63z" />
    <glyph glyph-name="atilde" unicode="&#xe3;" horiz-adv-x="537" 
d="M206 -10c-24 0 -46.333 4.16406 -67 12.4971s-38.834 19.666 -54.501 33.999s-27.834 31.333 -36.501 51s-13 40.834 -13 63.501s5.33301 43.334 16 62.001s25.5 34.834 44.5 48.501s41.833 24.334 68.5 32.001s56 11.5 88 11.5c28 0 56.167 -2.5 84.5 -7.5
s53.833 -11.833 76.5 -20.5v51c0 49.333 -14 88.5 -42 117.5s-66 43.5 -114 43.5c-25.333 0 -52.166 -5.33301 -80.499 -16s-57.166 -26 -86.499 -46l-19 34c66.667 45.333 130 68 190 68c62.667 0 112 -18.167 148 -54.5s54 -86.5 54 -150.5v-254
c0 -16.667 7.33301 -25 22 -25v-45c-3.33301 -0.666992 -6.83301 -1.16699 -10.5 -1.5s-6.83398 -0.5 -9.50098 -0.5c-13.333 0 -24 4.5 -32 13.5s-12.667 19.833 -14 32.5v43c-24 -31.333 -54.667 -55.333 -92 -72s-77.666 -25 -120.999 -25zM216 29.9971
c38.667 0 74.166 7.33105 106.499 21.998s57.166 34 74.499 58c10.667 14 16 27.333 16 40v92c-24 9.33301 -49 16.333 -75 21s-53 7 -81 7c-26 0 -49.667 -2.83301 -71 -8.5s-39.666 -13.5 -54.999 -23.5s-27.166 -22.167 -35.499 -36.5s-12.5 -30.166 -12.5 -47.499
s3.33301 -33.666 10 -48.999s16 -28.5 28 -39.5s26.167 -19.667 42.5 -26s33.833 -9.5 52.5 -9.5zM321.999 646.995c-14.667 0 -27.6699 1.99902 -39.0029 5.99902s-21.666 8.5 -30.999 13.5s-18.5 9.66699 -27.5 14s-18.5 6.5 -28.5 6.5c-11.333 0 -20.333 -2.33301 -27 -7
s-11.667 -9.83398 -15 -15.501s-5.66602 -11 -6.99902 -16s-2 -8.16699 -2 -9.5h-34c0 2.66699 1 8.5 3 17.5s6.16699 18.333 12.5 28s15 18.334 26 26.001s25.5 11.5 43.5 11.5c13.333 0 25.166 -2.16699 35.499 -6.5s20.166 -9 29.499 -14s18.833 -9.5 28.5 -13.5
s20.834 -6 33.501 -6c13.333 0 23.833 2.33301 31.5 7s13.334 9.83398 17.001 15.501s6 11 7 16s1.5 8.16699 1.5 9.5h34c0 -3.33301 -1.16699 -9.5 -3.5 -18.5s-6.66602 -18.167 -12.999 -27.5s-15.5 -17.833 -27.5 -25.5s-28 -11.5 -48 -11.5z" />
    <glyph glyph-name="adieresis" unicode="&#xe4;" horiz-adv-x="537" 
d="M206 -10c-24 0 -46.333 4.16406 -67 12.4971s-38.834 19.666 -54.501 33.999s-27.834 31.333 -36.501 51s-13 40.834 -13 63.501s5.33301 43.334 16 62.001s25.5 34.834 44.5 48.501s41.833 24.334 68.5 32.001s56 11.5 88 11.5c28 0 56.167 -2.5 84.5 -7.5
s53.833 -11.833 76.5 -20.5v51c0 49.333 -14 88.5 -42 117.5s-66 43.5 -114 43.5c-25.333 0 -52.166 -5.33301 -80.499 -16s-57.166 -26 -86.499 -46l-19 34c66.667 45.333 130 68 190 68c62.667 0 112 -18.167 148 -54.5s54 -86.5 54 -150.5v-254
c0 -16.667 7.33301 -25 22 -25v-45c-3.33301 -0.666992 -6.83301 -1.16699 -10.5 -1.5s-6.83398 -0.5 -9.50098 -0.5c-13.333 0 -24 4.5 -32 13.5s-12.667 19.833 -14 32.5v43c-24 -31.333 -54.667 -55.333 -92 -72s-77.666 -25 -120.999 -25zM216 29.9971
c38.667 0 74.166 7.33105 106.499 21.998s57.166 34 74.499 58c10.667 14 16 27.333 16 40v92c-24 9.33301 -49 16.333 -75 21s-53 7 -81 7c-26 0 -49.667 -2.83301 -71 -8.5s-39.666 -13.5 -54.999 -23.5s-27.166 -22.167 -35.499 -36.5s-12.5 -30.166 -12.5 -47.499
s3.33301 -33.666 10 -48.999s16 -28.5 28 -39.5s26.167 -19.667 42.5 -26s33.833 -9.5 52.5 -9.5zM170.999 639.995v88h44v-88h-44zM306.999 639.995v88h44v-88h-44z" />
    <glyph glyph-name="aring" unicode="&#xe5;" horiz-adv-x="537" 
d="M206 -10c-24 0 -46.333 4.16406 -67 12.4971s-38.834 19.666 -54.501 33.999s-27.834 31.333 -36.501 51s-13 40.834 -13 63.501s5.33301 43.334 16 62.001s25.5 34.834 44.5 48.501s41.833 24.334 68.5 32.001s56 11.5 88 11.5c28 0 56.167 -2.5 84.5 -7.5
s53.833 -11.833 76.5 -20.5v51c0 49.333 -14 88.5 -42 117.5s-66 43.5 -114 43.5c-25.333 0 -52.166 -5.33301 -80.499 -16s-57.166 -26 -86.499 -46l-19 34c66.667 45.333 130 68 190 68c62.667 0 112 -18.167 148 -54.5s54 -86.5 54 -150.5v-254
c0 -16.667 7.33301 -25 22 -25v-45c-3.33301 -0.666992 -6.83301 -1.16699 -10.5 -1.5s-6.83398 -0.5 -9.50098 -0.5c-13.333 0 -24 4.5 -32 13.5s-12.667 19.833 -14 32.5v43c-24 -31.333 -54.667 -55.333 -92 -72s-77.666 -25 -120.999 -25zM216 29.9971
c38.667 0 74.166 7.33105 106.499 21.998s57.166 34 74.499 58c10.667 14 16 27.333 16 40v92c-24 9.33301 -49 16.333 -75 21s-53 7 -81 7c-26 0 -49.667 -2.83301 -71 -8.5s-39.666 -13.5 -54.999 -23.5s-27.166 -22.167 -35.499 -36.5s-12.5 -30.166 -12.5 -47.499
s3.33301 -33.666 10 -48.999s16 -28.5 28 -39.5s26.167 -19.667 42.5 -26s33.833 -9.5 52.5 -9.5zM191.999 667.995c0 18 6.5 32.833 19.5 44.5s29.167 17.5 48.5 17.5s35.5 -5.83301 48.5 -17.5s19.5 -26.5 19.5 -44.5c0 -18.667 -6.5 -33.834 -19.5 -45.501
s-29.167 -17.5 -48.5 -17.5s-35.5 5.83301 -48.5 17.5s-19.5 26.834 -19.5 45.501zM259.999 706.995c-11.333 0 -20.833 -3.5 -28.5 -10.5s-11.5 -16.5 -11.5 -28.5c0 -11.333 3.83301 -20.833 11.5 -28.5s17.167 -11.5 28.5 -11.5c10.667 0 20.167 3.83301 28.5 11.5
s12.5 17.167 12.5 28.5c0 12 -4 21.5 -12 28.5s-17.667 10.5 -29 10.5z" />
    <glyph glyph-name="ae" unicode="&#xe6;" horiz-adv-x="930" 
d="M206 -10c-24 0 -46.333 4.17285 -67 12.5059s-38.834 19.666 -54.501 33.999s-27.834 31.333 -36.501 51s-13 40.834 -13 63.501s5.33301 43.334 16 62.001s25.5 34.834 44.5 48.501s41.667 24.334 68 32.001s55.5 11.5 87.5 11.5c23.333 0 47 -1.83301 71 -5.5
s46.333 -8.5 67 -14.5c1.33301 14 3.5 28.167 6.5 42.5s7.16699 28.166 12.5 41.499c-7.33301 37.333 -24.166 66.666 -50.499 87.999s-59.833 32 -100.5 32c-25.333 0 -52.166 -5.33301 -80.499 -16s-57.166 -26 -86.499 -46l-20 34c67.333 45.333 131 68 191 68
c44 0 81.167 -9.66699 111.5 -29s52.833 -46.666 67.5 -81.999c21.333 33.333 49.666 60.166 84.999 80.499s74.333 30.5 117 30.5c36.667 0 70.667 -7 102 -21s58.5 -33.333 81.5 -58s41 -53.334 54 -86.001s19.5 -67.334 19.5 -104.001c0 -2 -0.166992 -5.5 -0.5 -10.5
s-0.5 -8.16699 -0.5 -9.5h-461c2 -30 9 -57.833 21 -83.5s27.5 -47.834 46.5 -66.501s40.833 -33.334 65.5 -44.001s50.667 -16 78 -16c18 0 35.833 2.5 53.5 7.5s34 11.833 49 20.5s28.333 19.167 40 31.5s20.834 25.833 27.501 40.5l44 -12
c-8 -18.667 -19.167 -35.834 -33.5 -51.501s-31 -29.167 -50 -40.5s-39.833 -20.166 -62.5 -26.499s-46 -9.5 -70 -9.5c-44.667 0 -85.334 10.667 -122.001 32s-66.667 49.666 -90 84.999c-10.667 -20.667 -24.667 -38.334 -42 -53.001s-36.333 -26.834 -57 -36.501
s-42.167 -16.667 -64.5 -21s-43.833 -6.5 -64.5 -6.5zM216 30.0059c38.667 0 74.332 7.16504 106.999 21.498s57.334 33.833 74.001 58.5c10 12.667 15.333 24.334 16 35.001c-7.33301 15.333 -13 32.333 -17 51s-6.33301 36.667 -7 54c-42 13.333 -86 20 -132 20
c-52 0 -94 -10.667 -126 -32s-48 -49.333 -48 -84c0 -17.333 3.33301 -33.666 10 -48.999s16 -28.5 28 -39.5s26.167 -19.667 42.5 -26s33.833 -9.5 52.5 -9.5zM849.998 277.004c-2 30.667 -8.66797 59.0029 -20.001 85.0029s-26.333 48.333 -45 67
s-40.167 33.167 -64.5 43.5s-50.5 15.5 -78.5 15.5s-54.167 -5.33301 -78.5 -16s-45.666 -25.334 -63.999 -44.001s-33 -40.834 -44 -66.501s-17.167 -53.834 -18.5 -84.501h413z" />
    <glyph glyph-name="ccedilla" unicode="&#xe7;" horiz-adv-x="545" 
d="M222 -125c9.33301 -4.66699 21.8301 -9.00391 37.4971 -13.0039s32.167 -6 49.5 -6c38.667 0 58 12.333 58 37c0 13.333 -4.5 22.666 -13.5 27.999s-20.833 8 -35.5 8c-14 0 -28.667 -1.66699 -44 -5s-27.666 -6.33301 -36.999 -9l42 76
c-34 2.66699 -65.5 11.5 -94.5 26.5s-54 34.833 -75 59.5s-37.5 52.834 -49.5 84.501s-18 65.167 -18 100.5c0 36.667 6.33301 71.334 19 104.001s30.334 61 53.001 85s49.667 43 81 57s65.666 21 102.999 21c47.333 0 89 -10.667 125 -32s63 -51 81 -89l-49 -16
c-15.333 28.667 -37.166 51.167 -65.499 67.5s-59.5 24.5 -93.5 24.5c-28.667 0 -55.334 -5.66699 -80.001 -17s-46.167 -27 -64.5 -47s-32.833 -43.5 -43.5 -70.5s-16 -56.167 -16 -87.5s5.5 -60.833 16.5 -88.5s25.667 -51.667 44 -72s40 -36.5 65 -48.5
s51.5 -18 79.5 -18c18 0 35.833 2.66699 53.5 8s34 12.333 49 21s28 18.834 39 30.501s18.5 23.834 22.5 36.501l49 -14c-6.66699 -17.333 -16.334 -33.5 -29.001 -48.5s-27.667 -28 -45 -39s-36.666 -20 -57.999 -27s-43.333 -10.833 -66 -11.5l-26 -44
c6 2.66699 12.833 4.33398 20.5 5.00098s14.167 1 19.5 1c22.667 0 40.334 -5 53.001 -15s19 -24.667 19 -44c0 -21.333 -8 -37.5 -24 -48.5s-39 -16.5 -69 -16.5c-19.333 0 -37.166 1.83301 -53.499 5.5s-30.833 8.16699 -43.5 13.5z" />
    <glyph glyph-name="egrave" unicode="&#xe8;" horiz-adv-x="583" 
d="M299 -10c-36.667 0 -70.6699 7.16797 -102.003 21.501s-58.5 34 -81.5 59s-41 53.833 -54 86.5s-19.5 67.667 -19.5 105c0 36.667 6.5 71.167 19.5 103.5s30.833 60.666 53.5 84.999s49.5 43.5 80.5 57.5s64.5 21 100.5 21c36.667 0 70.667 -7.16699 102 -21.5
s58.333 -33.666 81 -57.999s40.334 -52.666 53.001 -84.999s19 -66.5 19 -102.5v-12.5c0 -5 -0.333008 -8.16699 -1 -9.5h-456c2 -30 9 -57.833 21 -83.5s27.167 -47.834 45.5 -66.501s39.5 -33.334 63.5 -44.001s49.667 -16 77 -16c18 0 35.667 2.5 53 7.5
s33.5 11.833 48.5 20.5s28.333 19.167 40 31.5s20.834 25.833 27.501 40.5l44 -12c-7.33301 -18.667 -18.166 -35.834 -32.499 -51.501s-31 -29.167 -50 -40.5s-39.833 -20.166 -62.5 -26.499s-46 -9.5 -70 -9.5zM502.997 280.001c-2 30.667 -8.83301 58.668 -20.5 84.001
s-26.667 47.166 -45 65.499s-39.5 32.666 -63.5 42.999s-49.667 15.5 -77 15.5s-53 -5.16699 -77 -15.5s-45.167 -24.666 -63.5 -42.999s-33 -40.333 -44 -66s-17.5 -53.5 -19.5 -83.5h410zM210.997 730.002h57l62 -85l-34 -16z" />
    <glyph glyph-name="eacute" unicode="&#xe9;" horiz-adv-x="583" 
d="M294 629l-35 16l61 85h58zM299 -10c-36.667 0 -70.6699 7.16797 -102.003 21.501s-58.5 34 -81.5 59s-41 53.833 -54 86.5s-19.5 67.667 -19.5 105c0 36.667 6.5 71.167 19.5 103.5s30.833 60.666 53.5 84.999s49.5 43.5 80.5 57.5s64.5 21 100.5 21
c36.667 0 70.667 -7.16699 102 -21.5s58.333 -33.666 81 -57.999s40.334 -52.666 53.001 -84.999s19 -66.5 19 -102.5v-12.5c0 -5 -0.333008 -8.16699 -1 -9.5h-456c2 -30 9 -57.833 21 -83.5s27.167 -47.834 45.5 -66.501s39.5 -33.334 63.5 -44.001s49.667 -16 77 -16
c18 0 35.667 2.5 53 7.5s33.5 11.833 48.5 20.5s28.333 19.167 40 31.5s20.834 25.833 27.501 40.5l44 -12c-7.33301 -18.667 -18.166 -35.834 -32.499 -51.501s-31 -29.167 -50 -40.5s-39.833 -20.166 -62.5 -26.499s-46 -9.5 -70 -9.5zM502.997 280.001
c-2 30.667 -8.83301 58.668 -20.5 84.001s-26.667 47.166 -45 65.499s-39.5 32.666 -63.5 42.999s-49.667 15.5 -77 15.5s-53 -5.16699 -77 -15.5s-45.167 -24.666 -63.5 -42.999s-33 -40.333 -44 -66s-17.5 -53.5 -19.5 -83.5h410z" />
    <glyph glyph-name="ecircumflex" unicode="&#xea;" horiz-adv-x="583" 
d="M180 649l96 81h37l97 -81l-30 -17l-85 63l-85 -63zM299 -10c-36.667 0 -70.6699 7.16797 -102.003 21.501s-58.5 34 -81.5 59s-41 53.833 -54 86.5s-19.5 67.667 -19.5 105c0 36.667 6.5 71.167 19.5 103.5s30.833 60.666 53.5 84.999s49.5 43.5 80.5 57.5
s64.5 21 100.5 21c36.667 0 70.667 -7.16699 102 -21.5s58.333 -33.666 81 -57.999s40.334 -52.666 53.001 -84.999s19 -66.5 19 -102.5v-12.5c0 -5 -0.333008 -8.16699 -1 -9.5h-456c2 -30 9 -57.833 21 -83.5s27.167 -47.834 45.5 -66.501s39.5 -33.334 63.5 -44.001
s49.667 -16 77 -16c18 0 35.667 2.5 53 7.5s33.5 11.833 48.5 20.5s28.333 19.167 40 31.5s20.834 25.833 27.501 40.5l44 -12c-7.33301 -18.667 -18.166 -35.834 -32.499 -51.501s-31 -29.167 -50 -40.5s-39.833 -20.166 -62.5 -26.499s-46 -9.5 -70 -9.5zM502.997 280.001
c-2 30.667 -8.83301 58.668 -20.5 84.001s-26.667 47.166 -45 65.499s-39.5 32.666 -63.5 42.999s-49.667 15.5 -77 15.5s-53 -5.16699 -77 -15.5s-45.167 -24.666 -63.5 -42.999s-33 -40.333 -44 -66s-17.5 -53.5 -19.5 -83.5h410z" />
    <glyph glyph-name="edieresis" unicode="&#xeb;" horiz-adv-x="583" 
d="M205 640v88h44v-88h-44zM341 640v88h44v-88h-44zM299 -10c-36.667 0 -70.6699 7.16797 -102.003 21.501s-58.5 34 -81.5 59s-41 53.833 -54 86.5s-19.5 67.667 -19.5 105c0 36.667 6.5 71.167 19.5 103.5s30.833 60.666 53.5 84.999s49.5 43.5 80.5 57.5
s64.5 21 100.5 21c36.667 0 70.667 -7.16699 102 -21.5s58.333 -33.666 81 -57.999s40.334 -52.666 53.001 -84.999s19 -66.5 19 -102.5v-12.5c0 -5 -0.333008 -8.16699 -1 -9.5h-456c2 -30 9 -57.833 21 -83.5s27.167 -47.834 45.5 -66.501s39.5 -33.334 63.5 -44.001
s49.667 -16 77 -16c18 0 35.667 2.5 53 7.5s33.5 11.833 48.5 20.5s28.333 19.167 40 31.5s20.834 25.833 27.501 40.5l44 -12c-7.33301 -18.667 -18.166 -35.834 -32.499 -51.501s-31 -29.167 -50 -40.5s-39.833 -20.166 -62.5 -26.499s-46 -9.5 -70 -9.5zM502.997 280.001
c-2 30.667 -8.83301 58.668 -20.5 84.001s-26.667 47.166 -45 65.499s-39.5 32.666 -63.5 42.999s-49.667 15.5 -77 15.5s-53 -5.16699 -77 -15.5s-45.167 -24.666 -63.5 -42.999s-33 -40.333 -44 -66s-17.5 -53.5 -19.5 -83.5h410z" />
    <glyph glyph-name="igrave" unicode="&#xec;" horiz-adv-x="207" 
d="M78 0v520h50v-520h-50zM19 730h57l62 -85l-34 -16z" />
    <glyph glyph-name="iacute" unicode="&#xed;" horiz-adv-x="207" 
d="M102 629l-35 16l61 85h58zM78 0v520h50v-520h-50z" />
    <glyph glyph-name="icircumflex" unicode="&#xee;" horiz-adv-x="207" 
d="M-12 649l96 81h37l97 -81l-30 -17l-85 63l-85 -63zM78 0v520h50v-520h-50z" />
    <glyph glyph-name="idieresis" unicode="&#xef;" horiz-adv-x="207" 
d="M13 640v88h44v-88h-44zM149 640v88h44v-88h-44zM78 0v520h50v-520h-50z" />
    <glyph glyph-name="eth" unicode="&#xf0;" horiz-adv-x="599" 
d="M486 689l-85.998 -54c30.667 -29.333 56 -59.5 76 -90.5s35.667 -62 47 -93s19.166 -62.167 23.499 -93.5s6.5 -62.333 6.5 -93c0 -40 -6.83301 -76.667 -20.5 -110s-32.167 -62.333 -55.5 -87s-50.666 -43.834 -81.999 -57.501s-64.333 -20.5 -99 -20.5
s-67.334 6.33301 -98.001 19s-57.334 30 -80.001 52s-40.667 47.667 -54 77s-20 60.666 -20 93.999c0 32.667 6.5 63.667 19.5 93s30.667 55 53 77s48.333 39.5 78 52.5s61.5 19.5 95.5 19.5c47.333 0 90 -11.667 128 -35s66 -54 84 -92c-6 44 -19 88.333 -39 133
s-53.667 89.334 -101 134.001l-116 -74l-18 25l112 69c-19.333 16 -40.333 32 -63 48s-48 32 -76 48h71c20 -12 38.833 -24.167 56.5 -36.5s34.167 -25.166 49.5 -38.499l91 58zM95.002 231c0 -27.333 5.33496 -52.833 16.002 -76.5s25 -44.334 43 -62.001
s39.333 -31.667 64 -42s51 -15.5 79 -15.5s54.5 5.5 79.5 16.5s46.833 26 65.5 45s33.334 41.167 44.001 66.5s16 52 16 80c0 26 -5.33301 50.333 -16 73s-25.334 42.5 -44.001 59.5s-40.167 30.5 -64.5 40.5s-50.5 15 -78.5 15s-54.333 -5.33301 -79 -16
s-46.334 -25 -65.001 -43s-33.334 -39.167 -44.001 -63.5s-16 -50.166 -16 -77.499z" />
    <glyph glyph-name="ntilde" unicode="&#xf1;" horiz-adv-x="576" 
d="M503 0l-50.001 0.00195312v290c0 67.333 -9.5 116.333 -28.5 147s-49.167 46 -90.5 46c-22 0 -43.833 -4 -65.5 -12s-41.834 -19.333 -60.501 -34s-35 -31.834 -49 -51.501s-24.333 -40.834 -31 -63.501v-322h-50v520h47v-124c10.667 20 23.834 38.167 39.501 54.5
s33.334 30.333 53.001 42s40.5 20.667 62.5 27s44.667 9.5 68 9.5c56.667 0 96.667 -19.833 120 -59.5s35 -96.5 35 -170.5v-299zM350.999 647.002c-14.667 0 -27.6699 1.99902 -39.0029 5.99902s-21.666 8.5 -30.999 13.5s-18.5 9.66699 -27.5 14s-18.5 6.5 -28.5 6.5
c-11.333 0 -20.333 -2.33301 -27 -7s-11.667 -9.83398 -15 -15.501s-5.66602 -11 -6.99902 -16s-2 -8.16699 -2 -9.5h-34c0 2.66699 1 8.5 3 17.5s6.16699 18.333 12.5 28s15 18.334 26 26.001s25.5 11.5 43.5 11.5c13.333 0 25.166 -2.16699 35.499 -6.5
s20.166 -9 29.499 -14s18.833 -9.5 28.5 -13.5s20.834 -6 33.501 -6c13.333 0 23.833 2.33301 31.5 7s13.334 9.83398 17.001 15.501s6 11 7 16s1.5 8.16699 1.5 9.5h34c0 -3.33301 -1.16699 -9.5 -3.5 -18.5s-6.66602 -18.167 -12.999 -27.5s-15.5 -17.833 -27.5 -25.5
s-28 -11.5 -48 -11.5z" />
    <glyph glyph-name="ograve" unicode="&#xf2;" horiz-adv-x="592" 
d="M296 -10c-36.667 0 -70.499 7.16699 -101.499 21.5s-57.833 33.833 -80.5 58.5s-40.334 53.334 -53.001 86.001s-19 67 -19 103c0 36.667 6.5 71.334 19.5 104.001s30.833 61.334 53.5 86.001s49.5 44.167 80.5 58.5s64.5 21.5 100.5 21.5s69.333 -7.16699 100 -21.5
s57.5 -33.833 80.5 -58.5s41 -53.334 54 -86.001s19.5 -67.334 19.5 -104.001c0 -36 -6.5 -70.333 -19.5 -103s-30.833 -61.334 -53.5 -86.001s-49.5 -44.167 -80.5 -58.5s-64.5 -21.5 -100.5 -21.5zM92.001 257c0 -30.667 5.33203 -59.499 15.999 -86.499
s25.167 -50.5 43.5 -70.5s39.833 -35.833 64.5 -47.5s51 -17.5 79 -17.5s54.333 5.83301 79 17.5s46.334 27.834 65.001 48.501s33.334 44.5 44.001 71.5s16 56.167 16 87.5c0 30.667 -5.33301 59.5 -16 86.5s-25.334 50.667 -44.001 71s-40.167 36.5 -64.5 48.5
s-50.5 18 -78.5 18s-54.333 -6 -79 -18s-46.167 -28.333 -64.5 -49s-33 -44.834 -44 -72.501s-16.5 -56.834 -16.5 -87.501zM212 730.001h57l62 -85l-34 -16z" />
    <glyph glyph-name="oacute" unicode="&#xf3;" horiz-adv-x="592" 
d="M295 629l-35 16l61 85h58zM296 -10c-36.667 0 -70.499 7.16699 -101.499 21.5s-57.833 33.833 -80.5 58.5s-40.334 53.334 -53.001 86.001s-19 67 -19 103c0 36.667 6.5 71.334 19.5 104.001s30.833 61.334 53.5 86.001s49.5 44.167 80.5 58.5s64.5 21.5 100.5 21.5
s69.333 -7.16699 100 -21.5s57.5 -33.833 80.5 -58.5s41 -53.334 54 -86.001s19.5 -67.334 19.5 -104.001c0 -36 -6.5 -70.333 -19.5 -103s-30.833 -61.334 -53.5 -86.001s-49.5 -44.167 -80.5 -58.5s-64.5 -21.5 -100.5 -21.5zM92.001 257
c0 -30.667 5.33203 -59.499 15.999 -86.499s25.167 -50.5 43.5 -70.5s39.833 -35.833 64.5 -47.5s51 -17.5 79 -17.5s54.333 5.83301 79 17.5s46.334 27.834 65.001 48.501s33.334 44.5 44.001 71.5s16 56.167 16 87.5c0 30.667 -5.33301 59.5 -16 86.5
s-25.334 50.667 -44.001 71s-40.167 36.5 -64.5 48.5s-50.5 18 -78.5 18s-54.333 -6 -79 -18s-46.167 -28.333 -64.5 -49s-33 -44.834 -44 -72.501s-16.5 -56.834 -16.5 -87.501z" />
    <glyph glyph-name="ocircumflex" unicode="&#xf4;" horiz-adv-x="592" 
d="M181 649l96 81h37l97 -81l-30 -17l-85 63l-85 -63zM296 -10c-36.667 0 -70.499 7.16699 -101.499 21.5s-57.833 33.833 -80.5 58.5s-40.334 53.334 -53.001 86.001s-19 67 -19 103c0 36.667 6.5 71.334 19.5 104.001s30.833 61.334 53.5 86.001s49.5 44.167 80.5 58.5
s64.5 21.5 100.5 21.5s69.333 -7.16699 100 -21.5s57.5 -33.833 80.5 -58.5s41 -53.334 54 -86.001s19.5 -67.334 19.5 -104.001c0 -36 -6.5 -70.333 -19.5 -103s-30.833 -61.334 -53.5 -86.001s-49.5 -44.167 -80.5 -58.5s-64.5 -21.5 -100.5 -21.5zM92.001 257
c0 -30.667 5.33203 -59.499 15.999 -86.499s25.167 -50.5 43.5 -70.5s39.833 -35.833 64.5 -47.5s51 -17.5 79 -17.5s54.333 5.83301 79 17.5s46.334 27.834 65.001 48.501s33.334 44.5 44.001 71.5s16 56.167 16 87.5c0 30.667 -5.33301 59.5 -16 86.5
s-25.334 50.667 -44.001 71s-40.167 36.5 -64.5 48.5s-50.5 18 -78.5 18s-54.333 -6 -79 -18s-46.167 -28.333 -64.5 -49s-33 -44.834 -44 -72.501s-16.5 -56.834 -16.5 -87.501z" />
    <glyph glyph-name="otilde" unicode="&#xf5;" horiz-adv-x="592" 
d="M296 -10c-36.667 0 -70.499 7.16699 -101.499 21.5s-57.833 33.833 -80.5 58.5s-40.334 53.334 -53.001 86.001s-19 67 -19 103c0 36.667 6.5 71.334 19.5 104.001s30.833 61.334 53.5 86.001s49.5 44.167 80.5 58.5s64.5 21.5 100.5 21.5s69.333 -7.16699 100 -21.5
s57.5 -33.833 80.5 -58.5s41 -53.334 54 -86.001s19.5 -67.334 19.5 -104.001c0 -36 -6.5 -70.333 -19.5 -103s-30.833 -61.334 -53.5 -86.001s-49.5 -44.167 -80.5 -58.5s-64.5 -21.5 -100.5 -21.5zM92.001 257c0 -30.667 5.33203 -59.499 15.999 -86.499
s25.167 -50.5 43.5 -70.5s39.833 -35.833 64.5 -47.5s51 -17.5 79 -17.5s54.333 5.83301 79 17.5s46.334 27.834 65.001 48.501s33.334 44.5 44.001 71.5s16 56.167 16 87.5c0 30.667 -5.33301 59.5 -16 86.5s-25.334 50.667 -44.001 71s-40.167 36.5 -64.5 48.5
s-50.5 18 -78.5 18s-54.333 -6 -79 -18s-46.167 -28.333 -64.5 -49s-33 -44.834 -44 -72.501s-16.5 -56.834 -16.5 -87.501zM357 647.001c-14.667 0 -27.6699 1.99902 -39.0029 5.99902s-21.666 8.5 -30.999 13.5s-18.5 9.66699 -27.5 14s-18.5 6.5 -28.5 6.5
c-11.333 0 -20.333 -2.33301 -27 -7s-11.667 -9.83398 -15 -15.501s-5.66602 -11 -6.99902 -16s-2 -8.16699 -2 -9.5h-34c0 2.66699 1 8.5 3 17.5s6.16699 18.333 12.5 28s15 18.334 26 26.001s25.5 11.5 43.5 11.5c13.333 0 25.166 -2.16699 35.499 -6.5
s20.166 -9 29.499 -14s18.833 -9.5 28.5 -13.5s20.834 -6 33.501 -6c13.333 0 23.833 2.33301 31.5 7s13.334 9.83398 17.001 15.501s6 11 7 16s1.5 8.16699 1.5 9.5h34c0 -3.33301 -1.16699 -9.5 -3.5 -18.5s-6.66602 -18.167 -12.999 -27.5s-15.5 -17.833 -27.5 -25.5
s-28 -11.5 -48 -11.5z" />
    <glyph glyph-name="odieresis" unicode="&#xf6;" horiz-adv-x="592" 
d="M206 640v88h44v-88h-44zM342 640v88h44v-88h-44zM296 -10c-36.667 0 -70.499 7.16699 -101.499 21.5s-57.833 33.833 -80.5 58.5s-40.334 53.334 -53.001 86.001s-19 67 -19 103c0 36.667 6.5 71.334 19.5 104.001s30.833 61.334 53.5 86.001s49.5 44.167 80.5 58.5
s64.5 21.5 100.5 21.5s69.333 -7.16699 100 -21.5s57.5 -33.833 80.5 -58.5s41 -53.334 54 -86.001s19.5 -67.334 19.5 -104.001c0 -36 -6.5 -70.333 -19.5 -103s-30.833 -61.334 -53.5 -86.001s-49.5 -44.167 -80.5 -58.5s-64.5 -21.5 -100.5 -21.5zM92.001 257
c0 -30.667 5.33203 -59.499 15.999 -86.499s25.167 -50.5 43.5 -70.5s39.833 -35.833 64.5 -47.5s51 -17.5 79 -17.5s54.333 5.83301 79 17.5s46.334 27.834 65.001 48.501s33.334 44.5 44.001 71.5s16 56.167 16 87.5c0 30.667 -5.33301 59.5 -16 86.5
s-25.334 50.667 -44.001 71s-40.167 36.5 -64.5 48.5s-50.5 18 -78.5 18s-54.333 -6 -79 -18s-46.167 -28.333 -64.5 -49s-33 -44.834 -44 -72.501s-16.5 -56.834 -16.5 -87.501z" />
    <glyph glyph-name="divide" unicode="&#xf7;" horiz-adv-x="540" 
d="M248 394v81h44v-81h-44zM248 81v80h44v-80h-44zM69 257v43h403v-43h-403z" />
    <glyph glyph-name="oslash" unicode="&#xf8;" horiz-adv-x="592" 
d="M104 -1l34 47.999c-30 25.333 -53.5 56.333 -70.5 93s-25.5 76.334 -25.5 119.001c0 36.667 6.5 71.334 19.5 104.001s30.833 61.334 53.5 86.001s49.5 44.167 80.5 58.5s64.5 21.5 100.5 21.5c24 0 47 -3.5 69 -10.5s42.667 -16.5 62 -28.5l22 31h40l-36 -50
c30 -25.333 53.667 -56.333 71 -93s26 -76.334 26 -119.001c0 -36 -6.5 -70.333 -19.5 -103s-30.833 -61.334 -53.5 -86.001s-49.5 -44.167 -80.5 -58.5s-64.5 -21.5 -100.5 -21.5c-25.333 0 -48.833 3.33301 -70.5 10s-42.167 16 -61.5 28l-22 -29h-38zM92 256.999
c0 -35.333 6.66699 -67.666 20 -96.999s31.333 -54.333 54 -75l235 366c-15.333 10.667 -31.833 18.834 -49.5 24.501s-36.167 8.5 -55.5 8.5c-28 0 -54.333 -6 -79 -18s-46.167 -28.333 -64.5 -49s-33 -44.834 -44 -72.501s-16.5 -56.834 -16.5 -87.501zM295 34.999
c28 0 54.332 5.83105 78.999 17.498s46.334 27.834 65.001 48.501s33.334 44.5 44.001 71.5s16 56.167 16 87.5c0 34 -6.66699 65.833 -20 95.5s-31.333 54.834 -54 75.501l-236 -364c31.333 -21.333 66.666 -32 105.999 -32z" />
    <glyph glyph-name="ugrave" unicode="&#xf9;" horiz-adv-x="587" 
d="M239 -10c-110.667 0 -166 76.667 -166 230v300h50v-293c0 -128 43.667 -192 131 -192c22 0 43.333 3.83301 64 11.5s40 18.334 58 32.001s33.833 30.167 47.5 49.5s24.5 40.666 32.5 63.999v328h50v-450c0 -16.667 7 -25 21 -25v-45
c-3.33301 -0.666992 -6.33301 -1 -9 -1h-6c-13.333 0 -25.166 4.16699 -35.499 12.5s-15.5 19.5 -15.5 33.5v78c-22.667 -42 -53.834 -74.667 -93.501 -98s-82.5 -35 -128.5 -35zM204 730h57l62 -85l-34 -16z" />
    <glyph glyph-name="uacute" unicode="&#xfa;" horiz-adv-x="587" 
d="M286 629l-35 16l61 85h58zM239 -10c-110.667 0 -166 76.667 -166 230v300h50v-293c0 -128 43.667 -192 131 -192c22 0 43.333 3.83301 64 11.5s40 18.334 58 32.001s33.833 30.167 47.5 49.5s24.5 40.666 32.5 63.999v328h50v-450c0 -16.667 7 -25 21 -25v-45
c-3.33301 -0.666992 -6.33301 -1 -9 -1h-6c-13.333 0 -25.166 4.16699 -35.499 12.5s-15.5 19.5 -15.5 33.5v78c-22.667 -42 -53.834 -74.667 -93.501 -98s-82.5 -35 -128.5 -35z" />
    <glyph glyph-name="ucircumflex" unicode="&#xfb;" horiz-adv-x="587" 
d="M172 649l96 81h37l97 -81l-30 -17l-85 63l-85 -63zM239 -10c-110.667 0 -166 76.667 -166 230v300h50v-293c0 -128 43.667 -192 131 -192c22 0 43.333 3.83301 64 11.5s40 18.334 58 32.001s33.833 30.167 47.5 49.5s24.5 40.666 32.5 63.999v328h50v-450
c0 -16.667 7 -25 21 -25v-45c-3.33301 -0.666992 -6.33301 -1 -9 -1h-6c-13.333 0 -25.166 4.16699 -35.499 12.5s-15.5 19.5 -15.5 33.5v78c-22.667 -42 -53.834 -74.667 -93.501 -98s-82.5 -35 -128.5 -35z" />
    <glyph glyph-name="udieresis" unicode="&#xfc;" horiz-adv-x="587" 
d="M197 640v88h44v-88h-44zM333 640v88h44v-88h-44zM239 -10c-110.667 0 -166 76.667 -166 230v300h50v-293c0 -128 43.667 -192 131 -192c22 0 43.333 3.83301 64 11.5s40 18.334 58 32.001s33.833 30.167 47.5 49.5s24.5 40.666 32.5 63.999v328h50v-450
c0 -16.667 7 -25 21 -25v-45c-3.33301 -0.666992 -6.33301 -1 -9 -1h-6c-13.333 0 -25.166 4.16699 -35.499 12.5s-15.5 19.5 -15.5 33.5v78c-22.667 -42 -53.834 -74.667 -93.501 -98s-82.5 -35 -128.5 -35z" />
    <glyph glyph-name="yacute" unicode="&#xfd;" horiz-adv-x="540" 
d="M113 -176c3.33301 -0.666992 8.33105 -1.00098 14.998 -1.00098s12.834 0.333008 18.501 1s11.167 2.33398 16.5 5.00098c4 2 7.66699 4.83301 11 8.5s8 11.167 14 22.5s13.667 28 23 50l38 90l-232 520h52l207 -471l193 471h49l-285 -684
c-7.33301 -18.667 -19.166 -33.167 -35.499 -43.5s-38.5 -15.5 -66.5 -15.5h-8.5c-3 0 -6.16699 0.333008 -9.5 1v46zM274.998 628.999l-35 16l61 85h58z" />
    <glyph glyph-name="thorn" unicode="&#xfe;" horiz-adv-x="603" 
d="M562 258c-0.666992 -36 -7.66504 -70.332 -20.998 -102.999s-31.333 -61.5 -54 -86.5s-49.334 -45 -80.001 -60s-63.667 -22.5 -99 -22.5c-19.333 0 -37.833 2.66699 -55.5 8s-34.334 12.666 -50.001 21.999s-29.667 20 -42 32s-22.833 25 -31.5 39v-300h-51v923h51v-289
c22 30.667 48.167 56.5 78.5 77.5s66.833 31.5 109.5 31.5c38 0 72.167 -8.16699 102.5 -24.5s56 -37.5 77 -63.5s37.167 -55.167 48.5 -87.5s17 -64.5 17 -96.5zM511.002 258.001c0 29.333 -4.66797 57.501 -14.001 84.501s-22.666 51 -39.999 72s-38 37.833 -62 50.5
s-50.667 19 -80 19c-22 0 -42.333 -3.66699 -61 -11s-35.834 -17.166 -51.501 -29.499s-29.667 -26.5 -42 -42.5s-22.833 -32.667 -31.5 -50v-180c0 -18 5.83301 -35.333 17.5 -52s26.334 -31.334 44.001 -44.001s37 -22.834 58 -30.501s40.5 -11.5 58.5 -11.5
c30 0 57.5 6.33301 82.5 19s46.5 29.5 64.5 50.5s32 45 42 72s15 54.833 15 83.5z" />
    <glyph glyph-name="ydieresis" unicode="&#xff;" horiz-adv-x="540" 
d="M113 -176c3.33301 -0.666992 8.33105 -1.00098 14.998 -1.00098s12.834 0.333008 18.501 1s11.167 2.33398 16.5 5.00098c4 2 7.66699 4.83301 11 8.5s8 11.167 14 22.5s13.667 28 23 50l38 90l-232 520h52l207 -471l193 471h49l-285 -684
c-7.33301 -18.667 -19.166 -33.167 -35.499 -43.5s-38.5 -15.5 -66.5 -15.5h-8.5c-3 0 -6.16699 0.333008 -9.5 1v46zM185.998 639.999v88h44v-88h-44zM321.998 639.999v88h44v-88h-44z" />
    <glyph glyph-name="Amacron" unicode="&#x100;" horiz-adv-x="675" 
d="M316 710h44l300 -710h-54l-99 234h-339l-99 -234h-55zM493 276l-155 372l-158 -372h313zM196 859v37h285v-37h-285z" />
    <glyph glyph-name="amacron" unicode="&#x101;" horiz-adv-x="537" 
d="M206 -10c-24 0 -46.333 4.16406 -67 12.4971s-38.834 19.666 -54.501 33.999s-27.834 31.333 -36.501 51s-13 40.834 -13 63.501s5.33301 43.334 16 62.001s25.5 34.834 44.5 48.501s41.833 24.334 68.5 32.001s56 11.5 88 11.5c28 0 56.167 -2.5 84.5 -7.5
s53.833 -11.833 76.5 -20.5v51c0 49.333 -14 88.5 -42 117.5s-66 43.5 -114 43.5c-25.333 0 -52.166 -5.33301 -80.499 -16s-57.166 -26 -86.499 -46l-19 34c66.667 45.333 130 68 190 68c62.667 0 112 -18.167 148 -54.5s54 -86.5 54 -150.5v-254
c0 -16.667 7.33301 -25 22 -25v-45c-3.33301 -0.666992 -6.83301 -1.16699 -10.5 -1.5s-6.83398 -0.5 -9.50098 -0.5c-13.333 0 -24 4.5 -32 13.5s-12.667 19.833 -14 32.5v43c-24 -31.333 -54.667 -55.333 -92 -72s-77.666 -25 -120.999 -25zM216 29.9971
c38.667 0 74.166 7.33105 106.499 21.998s57.166 34 74.499 58c10.667 14 16 27.333 16 40v92c-24 9.33301 -49 16.333 -75 21s-53 7 -81 7c-26 0 -49.667 -2.83301 -71 -8.5s-39.666 -13.5 -54.999 -23.5s-27.166 -22.167 -35.499 -36.5s-12.5 -30.166 -12.5 -47.499
s3.33301 -33.666 10 -48.999s16 -28.5 28 -39.5s26.167 -19.667 42.5 -26s33.833 -9.5 52.5 -9.5zM118.999 671.995v37h285v-37h-285z" />
    <glyph glyph-name="Abreve" unicode="&#x102;" horiz-adv-x="675" 
d="M316 710h44l300 -710h-54l-99 234h-339l-99 -234h-55zM493 276l-155 372l-158 -372h313zM338 853c13.333 0 25.5 6.16699 36.5 18.5s17.5 27.5 19.5 45.5h33c0 -12.667 -2.33301 -24.667 -7 -36s-11.167 -21.166 -19.5 -29.499s-17.833 -14.833 -28.5 -19.5
s-22 -7 -34 -7s-23.5 2.33301 -34.5 7s-20.5 11.167 -28.5 19.5s-14.333 18.166 -19 29.499s-7 23.333 -7 36h33c0 -16.667 5.66699 -31.5 17 -44.5s24.333 -19.5 39 -19.5z" />
    <glyph glyph-name="abreve" unicode="&#x103;" horiz-adv-x="537" 
d="M206 -10c-24 0 -46.333 4.16406 -67 12.4971s-38.834 19.666 -54.501 33.999s-27.834 31.333 -36.501 51s-13 40.834 -13 63.501s5.33301 43.334 16 62.001s25.5 34.834 44.5 48.501s41.833 24.334 68.5 32.001s56 11.5 88 11.5c28 0 56.167 -2.5 84.5 -7.5
s53.833 -11.833 76.5 -20.5v51c0 49.333 -14 88.5 -42 117.5s-66 43.5 -114 43.5c-25.333 0 -52.166 -5.33301 -80.499 -16s-57.166 -26 -86.499 -46l-19 34c66.667 45.333 130 68 190 68c62.667 0 112 -18.167 148 -54.5s54 -86.5 54 -150.5v-254
c0 -16.667 7.33301 -25 22 -25v-45c-3.33301 -0.666992 -6.83301 -1.16699 -10.5 -1.5s-6.83398 -0.5 -9.50098 -0.5c-13.333 0 -24 4.5 -32 13.5s-12.667 19.833 -14 32.5v43c-24 -31.333 -54.667 -55.333 -92 -72s-77.666 -25 -120.999 -25zM216 29.9971
c38.667 0 74.166 7.33105 106.499 21.998s57.166 34 74.499 58c10.667 14 16 27.333 16 40v92c-24 9.33301 -49 16.333 -75 21s-53 7 -81 7c-26 0 -49.667 -2.83301 -71 -8.5s-39.666 -13.5 -54.999 -23.5s-27.166 -22.167 -35.499 -36.5s-12.5 -30.166 -12.5 -47.499
s3.33301 -33.666 10 -48.999s16 -28.5 28 -39.5s26.167 -19.667 42.5 -26s33.833 -9.5 52.5 -9.5zM260.999 665.995c13.333 0 25.5 6.16699 36.5 18.5s17.5 27.5 19.5 45.5h33c0 -12.667 -2.33301 -24.667 -7 -36s-11.167 -21.166 -19.5 -29.499
s-17.833 -14.833 -28.5 -19.5s-22 -7 -34 -7s-23.5 2.33301 -34.5 7s-20.5 11.167 -28.5 19.5s-14.333 18.166 -19 29.499s-7 23.333 -7 36h33c0 -16.667 5.66699 -31.5 17 -44.5s24.333 -19.5 39 -19.5z" />
    <glyph glyph-name="Aogonek" unicode="&#x104;" horiz-adv-x="674" 
d="M610 -169c-21.333 4.66699 -37.833 13 -49.5 25s-17.5 26.333 -17.5 43s5.83301 33.167 17.5 49.5s30.167 33.5 55.5 51.5h-11l-99 234h-339l-99 -234h-55l302 710h44l300 -710c-30 -19.333 -51.167 -36 -63.5 -50s-18.5 -28.667 -18.5 -44
c0 -25.333 16.333 -40.333 49 -45zM492 276l-155 372l-158 -372h313z" />
    <glyph glyph-name="aogonek" unicode="&#x105;" horiz-adv-x="537" 
d="M436 -169c-21.333 4.66699 -37.833 12.998 -49.5 24.998s-17.5 26.333 -17.5 43c0 17.333 6 34.166 18 50.499s31.333 33.833 58 52.5c-7.33301 3.33301 -13.333 8.83301 -18 16.5s-7.33398 16.167 -8.00098 25.5v43c-24 -31.333 -54.667 -55.333 -92 -72
s-77.666 -25 -120.999 -25c-24 0 -46.333 4.16699 -67 12.5s-38.834 19.666 -54.501 33.999s-27.834 31.333 -36.501 51s-13 40.834 -13 63.501s5.33301 43.334 16 62.001s25.5 34.834 44.5 48.501s41.833 24.334 68.5 32.001s56 11.5 88 11.5c28 0 56.167 -2.5 84.5 -7.5
s53.833 -11.833 76.5 -20.5v51c0 49.333 -14 88.5 -42 117.5s-66 43.5 -114 43.5c-25.333 0 -52.166 -5.33301 -80.499 -16s-57.166 -26 -86.499 -46l-19 34c66.667 45.333 130 68 190 68c62.667 0 112 -18.167 148 -54.5s54 -86.5 54 -150.5v-254
c0 -16.667 7.33301 -25 22 -25v-45c-30 -19.333 -51.167 -36 -63.5 -50s-18.5 -28.667 -18.5 -44c0 -25.333 16.333 -40.333 49 -45zM216 29.998c38.667 0 74.166 7.33105 106.499 21.998s57.166 34 74.499 58c10.667 14 16 27.333 16 40v92c-24 9.33301 -49 16.333 -75 21
s-53 7 -81 7c-26 0 -49.667 -2.83301 -71 -8.5s-39.666 -13.5 -54.999 -23.5s-27.166 -22.167 -35.499 -36.5s-12.5 -30.166 -12.5 -47.499s3.33301 -33.666 10 -48.999s16 -28.5 28 -39.5s26.167 -19.667 42.5 -26s33.833 -9.5 52.5 -9.5z" />
    <glyph glyph-name="Cacute" unicode="&#x106;" horiz-adv-x="690" 
d="M378 816l-35 16l61 85h58zM44 360c0 42.667 7.49414 85.1689 22.4941 127.502s36.833 80.166 65.5 113.499s63.834 60.5 105.501 81.5s89.167 31.5 142.5 31.5c63.333 0 117.333 -14.5 162 -43.5s78 -66.167 100 -111.5l-42 -24
c-12.667 24.667 -27.5 45.334 -44.5 62.001s-35.333 30.167 -55 40.5s-40.167 17.833 -61.5 22.5s-42.333 7 -63 7c-45.333 0 -85.333 -9.16699 -120 -27.5s-64 -42.166 -88 -71.499s-42.167 -62.5 -54.5 -99.5s-18.5 -74.167 -18.5 -111.5c0 -42 7.33301 -82 22 -120
s34.667 -71.5 60 -100.5s55.333 -52.167 90 -69.5s72 -26 112 -26c21.333 0 43.333 2.66699 66 8s44.334 13.666 65.001 24.999s40 25.833 58 43.5s33 38.5 45 62.5l44 -21c-12 -26.667 -28.333 -50.334 -49 -71.001s-43.667 -38 -69 -52s-52.166 -24.5 -80.499 -31.5
s-56.166 -10.5 -83.499 -10.5c-48.667 0 -93.167 10.667 -133.5 32s-75.166 49.166 -104.499 83.499s-52.166 73.333 -68.499 117s-24.5 88.167 -24.5 133.5z" />
    <glyph glyph-name="cacute" unicode="&#x107;" horiz-adv-x="545" 
d="M295 629l-35 16l61 85h58zM42 262c0 36.667 6.33594 71.3301 19.0029 103.997s30.334 61 53.001 85s49.667 43 81 57s65.666 21 102.999 21c47.333 0 89 -10.667 125 -32s63 -51 81 -89l-49 -16c-15.333 28.667 -37.166 51.167 -65.499 67.5s-59.5 24.5 -93.5 24.5
c-28.667 0 -55.334 -5.66699 -80.001 -17s-46.167 -27 -64.5 -47s-32.833 -43.5 -43.5 -70.5s-16 -56.167 -16 -87.5s5.5 -60.833 16.5 -88.5s25.667 -51.667 44 -72s40 -36.5 65 -48.5s51.5 -18 79.5 -18c18 0 35.833 2.66699 53.5 8s34 12.333 49 21s28 18.834 39 30.501
s18.5 23.834 22.5 36.501l49 -14c-6.66699 -18 -16.834 -34.833 -30.501 -50.5s-29.834 -29.167 -48.501 -40.5s-39.334 -20.166 -62.001 -26.499s-46 -9.5 -70 -9.5c-36.667 0 -70.667 7.16699 -102 21.5s-58.5 34 -81.5 59s-41 53.833 -54 86.5s-19.5 67.667 -19.5 105z
" />
    <glyph glyph-name="Ccircumflex" unicode="&#x108;" horiz-adv-x="690" 
d="M264 836l96 81h37l97 -81l-30 -17l-85 63l-85 -63zM44 360c0 42.667 7.49414 85.1689 22.4941 127.502s36.833 80.166 65.5 113.499s63.834 60.5 105.501 81.5s89.167 31.5 142.5 31.5c63.333 0 117.333 -14.5 162 -43.5s78 -66.167 100 -111.5l-42 -24
c-12.667 24.667 -27.5 45.334 -44.5 62.001s-35.333 30.167 -55 40.5s-40.167 17.833 -61.5 22.5s-42.333 7 -63 7c-45.333 0 -85.333 -9.16699 -120 -27.5s-64 -42.166 -88 -71.499s-42.167 -62.5 -54.5 -99.5s-18.5 -74.167 -18.5 -111.5c0 -42 7.33301 -82 22 -120
s34.667 -71.5 60 -100.5s55.333 -52.167 90 -69.5s72 -26 112 -26c21.333 0 43.333 2.66699 66 8s44.334 13.666 65.001 24.999s40 25.833 58 43.5s33 38.5 45 62.5l44 -21c-12 -26.667 -28.333 -50.334 -49 -71.001s-43.667 -38 -69 -52s-52.166 -24.5 -80.499 -31.5
s-56.166 -10.5 -83.499 -10.5c-48.667 0 -93.167 10.667 -133.5 32s-75.166 49.166 -104.499 83.499s-52.166 73.333 -68.499 117s-24.5 88.167 -24.5 133.5z" />
    <glyph glyph-name="ccircumflex" unicode="&#x109;" horiz-adv-x="545" 
d="M181 649l96 81h37l97 -81l-30 -17l-85 63l-85 -63zM42 262c0 36.667 6.33594 71.3301 19.0029 103.997s30.334 61 53.001 85s49.667 43 81 57s65.666 21 102.999 21c47.333 0 89 -10.667 125 -32s63 -51 81 -89l-49 -16c-15.333 28.667 -37.166 51.167 -65.499 67.5
s-59.5 24.5 -93.5 24.5c-28.667 0 -55.334 -5.66699 -80.001 -17s-46.167 -27 -64.5 -47s-32.833 -43.5 -43.5 -70.5s-16 -56.167 -16 -87.5s5.5 -60.833 16.5 -88.5s25.667 -51.667 44 -72s40 -36.5 65 -48.5s51.5 -18 79.5 -18c18 0 35.833 2.66699 53.5 8
s34 12.333 49 21s28 18.834 39 30.501s18.5 23.834 22.5 36.501l49 -14c-6.66699 -18 -16.834 -34.833 -30.501 -50.5s-29.834 -29.167 -48.501 -40.5s-39.334 -20.166 -62.001 -26.499s-46 -9.5 -70 -9.5c-36.667 0 -70.667 7.16699 -102 21.5s-58.5 34 -81.5 59
s-41 53.833 -54 86.5s-19.5 67.667 -19.5 105z" />
    <glyph glyph-name="Cdotaccent" unicode="&#x10a;" horiz-adv-x="690" 
d="M44 360c0 42.667 7.49414 85.1689 22.4941 127.502s36.833 80.166 65.5 113.499s63.834 60.5 105.501 81.5s89.167 31.5 142.5 31.5c63.333 0 117.333 -14.5 162 -43.5s78 -66.167 100 -111.5l-42 -24c-12.667 24.667 -27.5 45.334 -44.5 62.001s-35.333 30.167 -55 40.5
s-40.167 17.833 -61.5 22.5s-42.333 7 -63 7c-45.333 0 -85.333 -9.16699 -120 -27.5s-64 -42.166 -88 -71.499s-42.167 -62.5 -54.5 -99.5s-18.5 -74.167 -18.5 -111.5c0 -42 7.33301 -82 22 -120s34.667 -71.5 60 -100.5s55.333 -52.167 90 -69.5s72 -26 112 -26
c21.333 0 43.333 2.66699 66 8s44.334 13.666 65.001 24.999s40 25.833 58 43.5s33 38.5 45 62.5l44 -21c-12 -26.667 -28.333 -50.334 -49 -71.001s-43.667 -38 -69 -52s-52.166 -24.5 -80.499 -31.5s-56.166 -10.5 -83.499 -10.5c-48.667 0 -93.167 10.667 -133.5 32
s-75.166 49.166 -104.499 83.499s-52.166 73.333 -68.499 117s-24.5 88.167 -24.5 133.5zM355.994 827.002v90h46v-90h-46z" />
    <glyph glyph-name="cdotaccent" unicode="&#x10b;" horiz-adv-x="545" 
d="M42 262c0 36.667 6.33594 71.3301 19.0029 103.997s30.334 61 53.001 85s49.667 43 81 57s65.666 21 102.999 21c47.333 0 89 -10.667 125 -32s63 -51 81 -89l-49 -16c-15.333 28.667 -37.166 51.167 -65.499 67.5s-59.5 24.5 -93.5 24.5
c-28.667 0 -55.334 -5.66699 -80.001 -17s-46.167 -27 -64.5 -47s-32.833 -43.5 -43.5 -70.5s-16 -56.167 -16 -87.5s5.5 -60.833 16.5 -88.5s25.667 -51.667 44 -72s40 -36.5 65 -48.5s51.5 -18 79.5 -18c18 0 35.833 2.66699 53.5 8s34 12.333 49 21s28 18.834 39 30.501
s18.5 23.834 22.5 36.501l49 -14c-6.66699 -18 -16.834 -34.833 -30.501 -50.5s-29.834 -29.167 -48.501 -40.5s-39.334 -20.166 -62.001 -26.499s-46 -9.5 -70 -9.5c-36.667 0 -70.667 7.16699 -102 21.5s-58.5 34 -81.5 59s-41 53.833 -54 86.5s-19.5 67.667 -19.5 105z
M273.003 639.996v90h46v-90h-46z" />
    <glyph glyph-name="Ccaron" unicode="&#x10c;" horiz-adv-x="690" 
d="M294 917l85 -63l85 63l30 -17l-97 -81h-37l-96 81zM44 360c0 42.667 7.49414 85.1689 22.4941 127.502s36.833 80.166 65.5 113.499s63.834 60.5 105.501 81.5s89.167 31.5 142.5 31.5c63.333 0 117.333 -14.5 162 -43.5s78 -66.167 100 -111.5l-42 -24
c-12.667 24.667 -27.5 45.334 -44.5 62.001s-35.333 30.167 -55 40.5s-40.167 17.833 -61.5 22.5s-42.333 7 -63 7c-45.333 0 -85.333 -9.16699 -120 -27.5s-64 -42.166 -88 -71.499s-42.167 -62.5 -54.5 -99.5s-18.5 -74.167 -18.5 -111.5c0 -42 7.33301 -82 22 -120
s34.667 -71.5 60 -100.5s55.333 -52.167 90 -69.5s72 -26 112 -26c21.333 0 43.333 2.66699 66 8s44.334 13.666 65.001 24.999s40 25.833 58 43.5s33 38.5 45 62.5l44 -21c-12 -26.667 -28.333 -50.334 -49 -71.001s-43.667 -38 -69 -52s-52.166 -24.5 -80.499 -31.5
s-56.166 -10.5 -83.499 -10.5c-48.667 0 -93.167 10.667 -133.5 32s-75.166 49.166 -104.499 83.499s-52.166 73.333 -68.499 117s-24.5 88.167 -24.5 133.5z" />
    <glyph glyph-name="ccaron" unicode="&#x10d;" horiz-adv-x="545" 
d="M211 730l85 -63l85 63l30 -17l-97 -81h-37l-96 81zM42 262c0 36.667 6.33594 71.3301 19.0029 103.997s30.334 61 53.001 85s49.667 43 81 57s65.666 21 102.999 21c47.333 0 89 -10.667 125 -32s63 -51 81 -89l-49 -16c-15.333 28.667 -37.166 51.167 -65.499 67.5
s-59.5 24.5 -93.5 24.5c-28.667 0 -55.334 -5.66699 -80.001 -17s-46.167 -27 -64.5 -47s-32.833 -43.5 -43.5 -70.5s-16 -56.167 -16 -87.5s5.5 -60.833 16.5 -88.5s25.667 -51.667 44 -72s40 -36.5 65 -48.5s51.5 -18 79.5 -18c18 0 35.833 2.66699 53.5 8
s34 12.333 49 21s28 18.834 39 30.501s18.5 23.834 22.5 36.501l49 -14c-6.66699 -18 -16.834 -34.833 -30.501 -50.5s-29.834 -29.167 -48.501 -40.5s-39.334 -20.166 -62.001 -26.499s-46 -9.5 -70 -9.5c-36.667 0 -70.667 7.16699 -102 21.5s-58.5 34 -81.5 59
s-41 53.833 -54 86.5s-19.5 67.667 -19.5 105z" />
    <glyph glyph-name="Dcaron" unicode="&#x10e;" horiz-adv-x="713" 
d="M262 917l85 -63l85 63l30 -17l-97 -81h-37l-96 81zM93 0v710h236c56 0 105.167 -9.33301 147.5 -28s77.5 -44 105.5 -76s49 -69.5 63 -112.5s21 -88.833 21 -137.5c0 -54 -7.83301 -102.833 -23.5 -146.5s-38.167 -81 -67.5 -112s-64.833 -55 -106.5 -72
s-88.167 -25.5 -139.5 -25.5h-236zM615 356c0 44.667 -6.33496 85.834 -19.002 123.501s-31.167 70.167 -55.5 97.5s-54.166 48.666 -89.499 63.999s-76 23 -122 23h-185v-618h185c46.667 0 87.834 7.83301 123.501 23.5s65.5 37.5 89.5 65.5s42.167 60.833 54.5 98.5
s18.5 78.5 18.5 122.5z" />
    <glyph glyph-name="dcaron" unicode="&#x10f;" horiz-adv-x="615" 
d="M607 629l-35 16l61 85h58zM292 -10c-36 0 -69.333 7.50098 -100 22.501s-57.167 35 -79.5 60s-39.666 53.667 -51.999 86s-18.5 65.833 -18.5 100.5c0 36 6 70.333 18 103s28.667 61.334 50 86.001s46.5 44.334 75.5 59.001s60.833 22 95.5 22
c22.667 0 44 -3.33301 64 -10s38.667 -15.5 56 -26.5s33 -23.833 47 -38.5s26 -30.334 36 -47.001v323h50v-660c0 -16.667 7 -25 21 -25v-45c-4 -0.666992 -7.33301 -1.16699 -10 -1.5s-5.33398 -0.5 -8.00098 -0.5c-13.333 0 -24.666 5.16699 -33.999 15.5
s-14 21.166 -14 32.499v58c-21.333 -34.667 -49.833 -62.334 -85.5 -83.001s-72.834 -31 -111.501 -31zM301 35.001c18 0 37.3301 3.66895 57.9971 11.002s39.834 17.5 57.501 30.5s32.834 27.833 45.501 44.5s20 34.667 22 54v171c-7.33301 18.667 -17.833 36.5 -31.5 53.5
s-29.167 31.667 -46.5 44s-36 22.166 -56 29.499s-39.333 11 -58 11c-30 0 -57.333 -6.5 -82 -19.5s-45.667 -30 -63 -51s-30.666 -45 -39.999 -72s-14 -54.833 -14 -83.5c0 -30 5.33301 -58.333 16 -85s25.5 -50.334 44.5 -71.001s41 -37 66 -49s52.167 -18 81.5 -18z" />
    <glyph glyph-name="Dcroat" unicode="&#x110;" horiz-adv-x="720" 
d="M100 0v336h-65v42h65v332h236c56 0 105.167 -9.33301 147.5 -28s77.5 -44 105.5 -76s49 -69.5 63 -112.5s21 -88.833 21 -137.5c0 -54 -7.83301 -102.833 -23.5 -146.5s-38.167 -81 -67.5 -112s-64.833 -55 -106.5 -72s-88.167 -25.5 -139.5 -25.5h-236zM622 356
c0 44.667 -6.33496 85.834 -19.002 123.501s-31.167 70.167 -55.5 97.5s-54.166 48.666 -89.499 63.999s-76 23 -122 23h-185v-286h178v-42h-178v-290h185c46.667 0 87.834 7.83301 123.501 23.5s65.5 37.5 89.5 65.5s42.167 60.833 54.5 98.5s18.5 78.5 18.5 122.5z" />
    <glyph glyph-name="dcroat" unicode="&#x111;" horiz-adv-x="615" 
d="M292 -10c-36 0 -69.333 7.50098 -100 22.501s-57.167 35 -79.5 60s-39.666 53.667 -51.999 86s-18.5 65.833 -18.5 100.5c0 36 6 70.333 18 103s28.667 61.334 50 86.001s46.5 44.334 75.5 59.001s60.833 22 95.5 22c22.667 0 44 -3.33301 64 -10s38.667 -15.5 56 -26.5
s33 -23.833 47 -38.5s26 -30.334 36 -47.001v216h-118v36h118v71h50v-71h72v-36h-72v-553c0 -16.667 7 -25 21 -25v-45c-4 -0.666992 -7.33301 -1.16699 -10 -1.5s-5.33398 -0.5 -8.00098 -0.5c-13.333 0 -24.666 5.16699 -33.999 15.5s-14 21.166 -14 32.499v58
c-21.333 -34.667 -49.833 -62.334 -85.5 -83.001s-72.834 -31 -111.501 -31zM301 35.001c18 0 37.3301 3.66895 57.9971 11.002s39.834 17.5 57.501 30.5s32.834 27.833 45.501 44.5s20 34.667 22 54v171c-7.33301 18.667 -17.833 36.5 -31.5 53.5s-29.167 31.667 -46.5 44
s-36 22.166 -56 29.499s-39.333 11 -58 11c-30 0 -57.333 -6.5 -82 -19.5s-45.667 -30 -63 -51s-30.666 -45 -39.999 -72s-14 -54.833 -14 -83.5c0 -30 5.33301 -58.333 16 -85s25.5 -50.334 44.5 -71.001s41 -37 66 -49s52.167 -18 81.5 -18z" />
    <glyph glyph-name="Emacron" unicode="&#x112;" 
d="M566 46v-46h-473v710h464v-46h-413v-279h361v-44h-361v-295h422zM198 859v37h285v-37h-285z" />
    <glyph glyph-name="emacron" unicode="&#x113;" horiz-adv-x="583" 
d="M299 -10c-36.667 0 -70.6699 7.16797 -102.003 21.501s-58.5 34 -81.5 59s-41 53.833 -54 86.5s-19.5 67.667 -19.5 105c0 36.667 6.5 71.167 19.5 103.5s30.833 60.666 53.5 84.999s49.5 43.5 80.5 57.5s64.5 21 100.5 21c36.667 0 70.667 -7.16699 102 -21.5
s58.333 -33.666 81 -57.999s40.334 -52.666 53.001 -84.999s19 -66.5 19 -102.5v-12.5c0 -5 -0.333008 -8.16699 -1 -9.5h-456c2 -30 9 -57.833 21 -83.5s27.167 -47.834 45.5 -66.501s39.5 -33.334 63.5 -44.001s49.667 -16 77 -16c18 0 35.667 2.5 53 7.5
s33.5 11.833 48.5 20.5s28.333 19.167 40 31.5s20.834 25.833 27.501 40.5l44 -12c-7.33301 -18.667 -18.166 -35.834 -32.499 -51.501s-31 -29.167 -50 -40.5s-39.833 -20.166 -62.5 -26.499s-46 -9.5 -70 -9.5zM502.997 280.001c-2 30.667 -8.83301 58.668 -20.5 84.001
s-26.667 47.166 -45 65.499s-39.5 32.666 -63.5 42.999s-49.667 15.5 -77 15.5s-53 -5.16699 -77 -15.5s-45.167 -24.666 -63.5 -42.999s-33 -40.333 -44 -66s-17.5 -53.5 -19.5 -83.5h410zM152.997 672.002v37h285v-37h-285z" />
    <glyph glyph-name="Ebreve" unicode="&#x114;" 
d="M566 46v-46h-473v710h464v-46h-413v-279h361v-44h-361v-295h422zM340 853c13.333 0 25.5 6.16699 36.5 18.5s17.5 27.5 19.5 45.5h33c0 -12.667 -2.33301 -24.667 -7 -36s-11.167 -21.166 -19.5 -29.499s-17.833 -14.833 -28.5 -19.5s-22 -7 -34 -7
s-23.5 2.33301 -34.5 7s-20.5 11.167 -28.5 19.5s-14.333 18.166 -19 29.499s-7 23.333 -7 36h33c0 -16.667 5.66699 -31.5 17 -44.5s24.333 -19.5 39 -19.5z" />
    <glyph glyph-name="ebreve" unicode="&#x115;" horiz-adv-x="583" 
d="M299 -10c-36.667 0 -70.6699 7.16797 -102.003 21.501s-58.5 34 -81.5 59s-41 53.833 -54 86.5s-19.5 67.667 -19.5 105c0 36.667 6.5 71.167 19.5 103.5s30.833 60.666 53.5 84.999s49.5 43.5 80.5 57.5s64.5 21 100.5 21c36.667 0 70.667 -7.16699 102 -21.5
s58.333 -33.666 81 -57.999s40.334 -52.666 53.001 -84.999s19 -66.5 19 -102.5v-12.5c0 -5 -0.333008 -8.16699 -1 -9.5h-456c2 -30 9 -57.833 21 -83.5s27.167 -47.834 45.5 -66.501s39.5 -33.334 63.5 -44.001s49.667 -16 77 -16c18 0 35.667 2.5 53 7.5
s33.5 11.833 48.5 20.5s28.333 19.167 40 31.5s20.834 25.833 27.501 40.5l44 -12c-7.33301 -18.667 -18.166 -35.834 -32.499 -51.501s-31 -29.167 -50 -40.5s-39.833 -20.166 -62.5 -26.499s-46 -9.5 -70 -9.5zM502.997 280.001c-2 30.667 -8.83301 58.668 -20.5 84.001
s-26.667 47.166 -45 65.499s-39.5 32.666 -63.5 42.999s-49.667 15.5 -77 15.5s-53 -5.16699 -77 -15.5s-45.167 -24.666 -63.5 -42.999s-33 -40.333 -44 -66s-17.5 -53.5 -19.5 -83.5h410zM294.997 666.002c13.333 0 25.5 6.16699 36.5 18.5s17.5 27.5 19.5 45.5h33
c0 -12.667 -2.33301 -24.667 -7 -36s-11.167 -21.166 -19.5 -29.499s-17.833 -14.833 -28.5 -19.5s-22 -7 -34 -7s-23.5 2.33301 -34.5 7s-20.5 11.167 -28.5 19.5s-14.333 18.166 -19 29.499s-7 23.333 -7 36h33c0 -16.667 5.66699 -31.5 17 -44.5s24.333 -19.5 39 -19.5z
" />
    <glyph glyph-name="Edotaccent" unicode="&#x116;" 
d="M566 46v-46h-473v710h464v-46h-413v-279h361v-44h-361v-295h422zM316 827v90h46v-90h-46z" />
    <glyph glyph-name="edotaccent" unicode="&#x117;" horiz-adv-x="583" 
d="M299 -10c-36.667 0 -70.6699 7.16797 -102.003 21.501s-58.5 34 -81.5 59s-41 53.833 -54 86.5s-19.5 67.667 -19.5 105c0 36.667 6.5 71.167 19.5 103.5s30.833 60.666 53.5 84.999s49.5 43.5 80.5 57.5s64.5 21 100.5 21c36.667 0 70.667 -7.16699 102 -21.5
s58.333 -33.666 81 -57.999s40.334 -52.666 53.001 -84.999s19 -66.5 19 -102.5v-12.5c0 -5 -0.333008 -8.16699 -1 -9.5h-456c2 -30 9 -57.833 21 -83.5s27.167 -47.834 45.5 -66.501s39.5 -33.334 63.5 -44.001s49.667 -16 77 -16c18 0 35.667 2.5 53 7.5
s33.5 11.833 48.5 20.5s28.333 19.167 40 31.5s20.834 25.833 27.501 40.5l44 -12c-7.33301 -18.667 -18.166 -35.834 -32.499 -51.501s-31 -29.167 -50 -40.5s-39.833 -20.166 -62.5 -26.499s-46 -9.5 -70 -9.5zM502.997 280.001c-2 30.667 -8.83301 58.668 -20.5 84.001
s-26.667 47.166 -45 65.499s-39.5 32.666 -63.5 42.999s-49.667 15.5 -77 15.5s-53 -5.16699 -77 -15.5s-45.167 -24.666 -63.5 -42.999s-33 -40.333 -44 -66s-17.5 -53.5 -19.5 -83.5h410zM271.997 640.002v90h46v-90h-46z" />
    <glyph glyph-name="Eogonek" unicode="&#x118;" 
d="M566 46v-46c-30 -19.333 -51.167 -36 -63.5 -50s-18.5 -28.667 -18.5 -44c0 -25.333 16.333 -40.333 49 -45l-16 -30c-21.333 4.66699 -37.833 13 -49.5 25s-17.5 26.333 -17.5 43s5.83301 33.167 17.5 49.5s30.167 33.5 55.5 51.5h-430v710h464v-46h-413v-279h361v-44
h-361v-295h422z" />
    <glyph glyph-name="eogonek" unicode="&#x119;" horiz-adv-x="583" 
d="M282 -176c-21.333 4.66699 -37.834 12.999 -49.501 24.999s-17.5 26.333 -17.5 43s5.5 32.834 16.5 48.501s28.5 32.5 52.5 50.5c-34.667 2 -66.834 10.5 -96.501 25.5s-55.167 34.833 -76.5 59.5s-38.166 52.834 -50.499 84.501s-18.5 65.5 -18.5 101.5
c0 36.667 6.5 71.167 19.5 103.5s30.833 60.666 53.5 84.999s49.5 43.5 80.5 57.5s64.5 21 100.5 21c36.667 0 70.667 -7.16699 102 -21.5s58.333 -33.666 81 -57.999s40.334 -52.666 53.001 -84.999s19 -66.5 19 -102.5v-12.5c0 -5 -0.333008 -8.16699 -1 -9.5h-456
c2 -30 9 -57.833 21 -83.5s27.167 -47.834 45.5 -66.501s39.5 -33.334 63.5 -44.001s49.667 -16 77 -16c18 0 35.667 2.5 53 7.5s33.5 11.833 48.5 20.5s28.333 19.167 40 31.5s20.834 25.833 27.501 40.5l44 -12c-6.66699 -16.667 -16.167 -32.167 -28.5 -46.5
s-26.5 -27 -42.5 -38s-33.833 -20.167 -53.5 -27.5s-39.834 -12 -60.501 -14c-30 -19.333 -50.833 -35.833 -62.5 -49.5s-17.5 -28.167 -17.5 -43.5c0 -25.333 16.333 -40.333 49 -45zM502.999 279.999c-2 30.667 -8.83301 58.668 -20.5 84.001s-26.667 47.166 -45 65.499
s-39.5 32.666 -63.5 42.999s-49.667 15.5 -77 15.5s-53 -5.16699 -77 -15.5s-45.167 -24.666 -63.5 -42.999s-33 -40.333 -44 -66s-17.5 -53.5 -19.5 -83.5h410z" />
    <glyph glyph-name="Ecaron" unicode="&#x11a;" 
d="M255 917l85 -63l85 63l30 -17l-97 -81h-37l-96 81zM566 46v-46h-473v710h464v-46h-413v-279h361v-44h-361v-295h422z" />
    <glyph glyph-name="ecaron" unicode="&#x11b;" horiz-adv-x="583" 
d="M210 730l85 -63l85 63l30 -17l-97 -81h-37l-96 81zM299 -10c-36.667 0 -70.6699 7.16797 -102.003 21.501s-58.5 34 -81.5 59s-41 53.833 -54 86.5s-19.5 67.667 -19.5 105c0 36.667 6.5 71.167 19.5 103.5s30.833 60.666 53.5 84.999s49.5 43.5 80.5 57.5
s64.5 21 100.5 21c36.667 0 70.667 -7.16699 102 -21.5s58.333 -33.666 81 -57.999s40.334 -52.666 53.001 -84.999s19 -66.5 19 -102.5v-12.5c0 -5 -0.333008 -8.16699 -1 -9.5h-456c2 -30 9 -57.833 21 -83.5s27.167 -47.834 45.5 -66.501s39.5 -33.334 63.5 -44.001
s49.667 -16 77 -16c18 0 35.667 2.5 53 7.5s33.5 11.833 48.5 20.5s28.333 19.167 40 31.5s20.834 25.833 27.501 40.5l44 -12c-7.33301 -18.667 -18.166 -35.834 -32.499 -51.501s-31 -29.167 -50 -40.5s-39.833 -20.166 -62.5 -26.499s-46 -9.5 -70 -9.5zM502.997 280.001
c-2 30.667 -8.83301 58.668 -20.5 84.001s-26.667 47.166 -45 65.499s-39.5 32.666 -63.5 42.999s-49.667 15.5 -77 15.5s-53 -5.16699 -77 -15.5s-45.167 -24.666 -63.5 -42.999s-33 -40.333 -44 -66s-17.5 -53.5 -19.5 -83.5h410z" />
    <glyph glyph-name="Gcircumflex" unicode="&#x11c;" horiz-adv-x="717" 
d="M255 836l96 81h37l97 -81l-30 -17l-85 63l-85 -63zM616 111c-68.667 -77.333 -148.331 -115.999 -238.998 -115.999c-48 0 -92.5 10.333 -133.5 31s-76.167 48 -105.5 82s-52.333 72.667 -69 116s-25 87.333 -25 132c0 46.667 8.16699 91.667 24.5 135
s39 81.666 68 114.999s63.5 59.833 103.5 79.5s83.667 29.5 131 29.5c35.333 0 67.166 -3.83301 95.499 -11.5s53.666 -18.334 75.999 -32.001s41.666 -30 57.999 -49s30.166 -39.833 41.499 -62.5l-42 -25c-24 46.667 -55.833 80.5 -95.5 101.5s-84.5 31.5 -134.5 31.5
c-42 0 -80 -9 -114 -27s-63 -41.667 -87 -71s-42.333 -62.666 -55 -99.999s-19 -75.666 -19 -114.999c0 -42 7.33301 -81.833 22 -119.5s34.834 -70.834 60.501 -99.501s55.834 -51.5 90.501 -68.5s72 -25.5 112 -25.5c43.333 0 84.5 10 123.5 30s76.5 51.667 112.5 95v137
h-161v41h205v-345h-44v111z" />
    <glyph glyph-name="gcircumflex" unicode="&#x11d;" 
d="M206 649l96 81h37l97 -81l-30 -17l-85 63l-85 -63zM288 -8c-36 0 -69.0039 7.50195 -99.0039 22.502s-55.833 35 -77.5 60s-38.667 53.5 -51 85.5s-18.5 65 -18.5 99c0 35.333 5.83301 69.333 17.5 102s28.167 61.5 49.5 86.5s46.833 44.833 76.5 59.5s62.5 22 98.5 22
c45.333 0 84.833 -11.833 118.5 -35.5s62.167 -52.5 85.5 -86.5v113h46v-530c0 -35.333 -6.66699 -66.333 -20 -93s-31.166 -48.834 -53.499 -66.501s-48.333 -31 -78 -40s-60.834 -13.5 -93.501 -13.5c-30 0 -57 2.83301 -81 8.5s-45.167 13.667 -63.5 24
s-34.666 23 -48.999 38s-26.833 31.5 -37.5 49.5l34 23c20.667 -35.333 48.667 -61.166 84 -77.499s73 -24.5 113 -24.5c26.667 0 51.834 3.66699 75.501 11s44.334 18.166 62.001 32.499s31.667 32.166 42 53.499s15.5 46.333 15.5 75v114
c-21.333 -34 -49.666 -61.167 -84.999 -81.5s-72.333 -30.5 -111 -30.5zM299.996 35.002c22 0 43.499 4.16699 64.499 12.5s40 19.166 57 32.499s31 28.333 42 45s17.833 33.334 20.5 50.001v171c-8 20 -18.667 38.5 -32 55.5s-28.5 31.5 -45.5 43.5s-35.333 21.5 -55 28.5
s-39.5 10.5 -59.5 10.5c-31.333 0 -59.333 -6.66699 -84 -20s-45.5 -30.666 -62.5 -51.999s-30 -45.5 -39 -72.5s-13.5 -54.167 -13.5 -81.5c0 -30 5.33301 -58.333 16 -85s25.334 -50.334 44.001 -71.001s40.667 -37 66 -49s52.333 -18 81 -18z" />
    <glyph glyph-name="Gbreve" unicode="&#x11e;" horiz-adv-x="717" 
d="M616 111c-68.667 -77.333 -148.331 -115.999 -238.998 -115.999c-48 0 -92.5 10.333 -133.5 31s-76.167 48 -105.5 82s-52.333 72.667 -69 116s-25 87.333 -25 132c0 46.667 8.16699 91.667 24.5 135s39 81.666 68 114.999s63.5 59.833 103.5 79.5s83.667 29.5 131 29.5
c35.333 0 67.166 -3.83301 95.499 -11.5s53.666 -18.334 75.999 -32.001s41.666 -30 57.999 -49s30.166 -39.833 41.499 -62.5l-42 -25c-24 46.667 -55.833 80.5 -95.5 101.5s-84.5 31.5 -134.5 31.5c-42 0 -80 -9 -114 -27s-63 -41.667 -87 -71
s-42.333 -62.666 -55 -99.999s-19 -75.666 -19 -114.999c0 -42 7.33301 -81.833 22 -119.5s34.834 -70.834 60.501 -99.501s55.834 -51.5 90.501 -68.5s72 -25.5 112 -25.5c43.333 0 84.5 10 123.5 30s76.5 51.667 112.5 95v137h-161v41h205v-345h-44v111zM370.003 853.001
c13.333 0 25.5 6.16699 36.5 18.5s17.5 27.5 19.5 45.5h33c0 -12.667 -2.33301 -24.667 -7 -36s-11.167 -21.166 -19.5 -29.499s-17.833 -14.833 -28.5 -19.5s-22 -7 -34 -7s-23.5 2.33301 -34.5 7s-20.5 11.167 -28.5 19.5s-14.333 18.166 -19 29.499s-7 23.333 -7 36h33
c0 -16.667 5.66699 -31.5 17 -44.5s24.333 -19.5 39 -19.5z" />
    <glyph glyph-name="gbreve" unicode="&#x11f;" 
d="M288 -8c-36 0 -69.0039 7.50195 -99.0039 22.502s-55.833 35 -77.5 60s-38.667 53.5 -51 85.5s-18.5 65 -18.5 99c0 35.333 5.83301 69.333 17.5 102s28.167 61.5 49.5 86.5s46.833 44.833 76.5 59.5s62.5 22 98.5 22c45.333 0 84.833 -11.833 118.5 -35.5
s62.167 -52.5 85.5 -86.5v113h46v-530c0 -35.333 -6.66699 -66.333 -20 -93s-31.166 -48.834 -53.499 -66.501s-48.333 -31 -78 -40s-60.834 -13.5 -93.501 -13.5c-30 0 -57 2.83301 -81 8.5s-45.167 13.667 -63.5 24s-34.666 23 -48.999 38s-26.833 31.5 -37.5 49.5l34 23
c20.667 -35.333 48.667 -61.166 84 -77.499s73 -24.5 113 -24.5c26.667 0 51.834 3.66699 75.501 11s44.334 18.166 62.001 32.499s31.667 32.166 42 53.499s15.5 46.333 15.5 75v114c-21.333 -34 -49.666 -61.167 -84.999 -81.5s-72.333 -30.5 -111 -30.5zM299.996 35.002
c22 0 43.499 4.16699 64.499 12.5s40 19.166 57 32.499s31 28.333 42 45s17.833 33.334 20.5 50.001v171c-8 20 -18.667 38.5 -32 55.5s-28.5 31.5 -45.5 43.5s-35.333 21.5 -55 28.5s-39.5 10.5 -59.5 10.5c-31.333 0 -59.333 -6.66699 -84 -20
s-45.5 -30.666 -62.5 -51.999s-30 -45.5 -39 -72.5s-13.5 -54.167 -13.5 -81.5c0 -30 5.33301 -58.333 16 -85s25.334 -50.334 44.001 -71.001s40.667 -37 66 -49s52.333 -18 81 -18zM320.995 666.002c13.333 0 25.5 6.16699 36.5 18.5s17.5 27.5 19.5 45.5h33
c0 -12.667 -2.33301 -24.667 -7 -36s-11.167 -21.166 -19.5 -29.499s-17.833 -14.833 -28.5 -19.5s-22 -7 -34 -7s-23.5 2.33301 -34.5 7s-20.5 11.167 -28.5 19.5s-14.333 18.166 -19 29.499s-7 23.333 -7 36h33c0 -16.667 5.66699 -31.5 17 -44.5s24.333 -19.5 39 -19.5z
" />
    <glyph glyph-name="Gdotaccent" unicode="&#x120;" horiz-adv-x="717" 
d="M616 111c-68.667 -77.333 -148.331 -115.999 -238.998 -115.999c-48 0 -92.5 10.333 -133.5 31s-76.167 48 -105.5 82s-52.333 72.667 -69 116s-25 87.333 -25 132c0 46.667 8.16699 91.667 24.5 135s39 81.666 68 114.999s63.5 59.833 103.5 79.5s83.667 29.5 131 29.5
c35.333 0 67.166 -3.83301 95.499 -11.5s53.666 -18.334 75.999 -32.001s41.666 -30 57.999 -49s30.166 -39.833 41.499 -62.5l-42 -25c-24 46.667 -55.833 80.5 -95.5 101.5s-84.5 31.5 -134.5 31.5c-42 0 -80 -9 -114 -27s-63 -41.667 -87 -71
s-42.333 -62.666 -55 -99.999s-19 -75.666 -19 -114.999c0 -42 7.33301 -81.833 22 -119.5s34.834 -70.834 60.501 -99.501s55.834 -51.5 90.501 -68.5s72 -25.5 112 -25.5c43.333 0 84.5 10 123.5 30s76.5 51.667 112.5 95v137h-161v41h205v-345h-44v111zM346.003 827.001
v90h46v-90h-46z" />
    <glyph glyph-name="gdotaccent" unicode="&#x121;" 
d="M288 -8c-36 0 -69.0039 7.50195 -99.0039 22.502s-55.833 35 -77.5 60s-38.667 53.5 -51 85.5s-18.5 65 -18.5 99c0 35.333 5.83301 69.333 17.5 102s28.167 61.5 49.5 86.5s46.833 44.833 76.5 59.5s62.5 22 98.5 22c45.333 0 84.833 -11.833 118.5 -35.5
s62.167 -52.5 85.5 -86.5v113h46v-530c0 -35.333 -6.66699 -66.333 -20 -93s-31.166 -48.834 -53.499 -66.501s-48.333 -31 -78 -40s-60.834 -13.5 -93.501 -13.5c-30 0 -57 2.83301 -81 8.5s-45.167 13.667 -63.5 24s-34.666 23 -48.999 38s-26.833 31.5 -37.5 49.5l34 23
c20.667 -35.333 48.667 -61.166 84 -77.499s73 -24.5 113 -24.5c26.667 0 51.834 3.66699 75.501 11s44.334 18.166 62.001 32.499s31.667 32.166 42 53.499s15.5 46.333 15.5 75v114c-21.333 -34 -49.666 -61.167 -84.999 -81.5s-72.333 -30.5 -111 -30.5zM299.996 35.002
c22 0 43.499 4.16699 64.499 12.5s40 19.166 57 32.499s31 28.333 42 45s17.833 33.334 20.5 50.001v171c-8 20 -18.667 38.5 -32 55.5s-28.5 31.5 -45.5 43.5s-35.333 21.5 -55 28.5s-39.5 10.5 -59.5 10.5c-31.333 0 -59.333 -6.66699 -84 -20
s-45.5 -30.666 -62.5 -51.999s-30 -45.5 -39 -72.5s-13.5 -54.167 -13.5 -81.5c0 -30 5.33301 -58.333 16 -85s25.334 -50.334 44.001 -71.001s40.667 -37 66 -49s52.333 -18 81 -18zM297.995 640.002v90h46v-90h-46z" />
    <glyph glyph-name="Gcommaaccent" unicode="&#x122;" horiz-adv-x="717" 
d="M352 -187l15 68h-16v70h49v-70l-21 -68h-27zM616 111c-68.667 -77.333 -148.331 -115.999 -238.998 -115.999c-48 0 -92.5 10.333 -133.5 31s-76.167 48 -105.5 82s-52.333 72.667 -69 116s-25 87.333 -25 132c0 46.667 8.16699 91.667 24.5 135s39 81.666 68 114.999
s63.5 59.833 103.5 79.5s83.667 29.5 131 29.5c35.333 0 67.166 -3.83301 95.499 -11.5s53.666 -18.334 75.999 -32.001s41.666 -30 57.999 -49s30.166 -39.833 41.499 -62.5l-42 -25c-24 46.667 -55.833 80.5 -95.5 101.5s-84.5 31.5 -134.5 31.5c-42 0 -80 -9 -114 -27
s-63 -41.667 -87 -71s-42.333 -62.666 -55 -99.999s-19 -75.666 -19 -114.999c0 -42 7.33301 -81.833 22 -119.5s34.834 -70.834 60.501 -99.501s55.834 -51.5 90.501 -68.5s72 -25.5 112 -25.5c43.333 0 84.5 10 123.5 30s76.5 51.667 112.5 95v137h-161v41h205v-345h-44
v111z" />
    <glyph glyph-name="gcommaaccent" unicode="&#x123;" 
d="M323 736l-15 -68h16v-70h-49v70l21 68h27zM288 -8c-36 0 -69.0039 7.50195 -99.0039 22.502s-55.833 35 -77.5 60s-38.667 53.5 -51 85.5s-18.5 65 -18.5 99c0 35.333 5.83301 69.333 17.5 102s28.167 61.5 49.5 86.5s46.833 44.833 76.5 59.5s62.5 22 98.5 22
c45.333 0 84.833 -11.833 118.5 -35.5s62.167 -52.5 85.5 -86.5v113h46v-530c0 -35.333 -6.66699 -66.333 -20 -93s-31.166 -48.834 -53.499 -66.501s-48.333 -31 -78 -40s-60.834 -13.5 -93.501 -13.5c-30 0 -57 2.83301 -81 8.5s-45.167 13.667 -63.5 24
s-34.666 23 -48.999 38s-26.833 31.5 -37.5 49.5l34 23c20.667 -35.333 48.667 -61.166 84 -77.499s73 -24.5 113 -24.5c26.667 0 51.834 3.66699 75.501 11s44.334 18.166 62.001 32.499s31.667 32.166 42 53.499s15.5 46.333 15.5 75v114
c-21.333 -34 -49.666 -61.167 -84.999 -81.5s-72.333 -30.5 -111 -30.5zM299.996 35.002c22 0 43.499 4.16699 64.499 12.5s40 19.166 57 32.499s31 28.333 42 45s17.833 33.334 20.5 50.001v171c-8 20 -18.667 38.5 -32 55.5s-28.5 31.5 -45.5 43.5s-35.333 21.5 -55 28.5
s-39.5 10.5 -59.5 10.5c-31.333 0 -59.333 -6.66699 -84 -20s-45.5 -30.666 -62.5 -51.999s-30 -45.5 -39 -72.5s-13.5 -54.167 -13.5 -81.5c0 -30 5.33301 -58.333 16 -85s25.334 -50.334 44.001 -71.001s40.667 -37 66 -49s52.333 -18 81 -18z" />
    <glyph glyph-name="Hcircumflex" unicode="&#x124;" horiz-adv-x="735" 
d="M255 836l96 81h37l97 -81l-30 -17l-85 63l-85 -63zM643 710v-710h-51v340h-448v-340h-51v710h51v-324h448v324h51z" />
    <glyph glyph-name="hcircumflex" unicode="&#x125;" horiz-adv-x="576" 
d="M213 648l92 81h36l94 -81l-29 -17l-82 63l-82 -63zM503 0l-50.0029 0.000976562v290c0 128.667 -43 193 -129 193c-21.333 0 -42.166 -4 -62.499 -12s-39.333 -19.333 -57 -34s-33.167 -31.834 -46.5 -51.501s-23.333 -40.834 -30 -63.501v-322h-50v730h50v-334
c21.333 40.667 50.833 73 88.5 97s78.167 36 121.5 36c28.667 0 53.334 -5.33301 74.001 -16s37.834 -26 51.501 -46s23.667 -44.167 30 -72.5s9.5 -60.166 9.5 -95.499v-299z" />
    <glyph glyph-name="Hbar" unicode="&#x126;" horiz-adv-x="745" 
d="M648 710v-127h50v-32h-50v-551h-51v340h-448v-340h-51v551h-50v32h50v127h51v-127h448v127h51zM597 386v165h-448v-165h448z" />
    <glyph glyph-name="hbar" unicode="&#x127;" horiz-adv-x="576" 
d="M503 0l-50.0029 0.000976562v290c0 128.667 -43 193 -129 193c-21.333 0 -42.166 -4 -62.499 -12s-39.333 -19.333 -57 -34s-33.167 -31.834 -46.5 -51.501s-23.333 -40.834 -30 -63.501v-322h-50v623h-66v36h66v71h50v-71h125v-36h-125v-227
c21.333 40.667 50.833 73 88.5 97s78.167 36 121.5 36c28.667 0 53.334 -5.33301 74.001 -16s37.834 -26 51.501 -46s23.667 -44.167 30 -72.5s9.5 -60.166 9.5 -95.499v-299z" />
    <glyph glyph-name="Itilde" unicode="&#x128;" horiz-adv-x="237" 
d="M93 0v710h51v-710h-51zM179 834c-14.667 0 -27.6699 1.99902 -39.0029 5.99902s-21.666 8.5 -30.999 13.5s-18.5 9.66699 -27.5 14s-18.5 6.5 -28.5 6.5c-11.333 0 -20.333 -2.33301 -27 -7s-11.667 -9.83398 -15 -15.501s-5.66602 -11 -6.99902 -16s-2 -8.16699 -2 -9.5
h-34c0 2.66699 1 8.5 3 17.5s6.16699 18.333 12.5 28s15 18.334 26 26.001s25.5 11.5 43.5 11.5c13.333 0 25.166 -2.16699 35.499 -6.5s20.166 -9 29.499 -14s18.833 -9.5 28.5 -13.5s20.834 -6 33.501 -6c13.333 0 23.833 2.33301 31.5 7s13.334 9.83398 17.001 15.501
s6 11 7 16s1.5 8.16699 1.5 9.5h34c0 -3.33301 -1.16699 -9.5 -3.5 -18.5s-6.66602 -18.167 -12.999 -27.5s-15.5 -17.833 -27.5 -25.5s-28 -11.5 -48 -11.5z" />
    <glyph glyph-name="itilde" unicode="&#x129;" horiz-adv-x="207" 
d="M78 0v520h50v-520h-50zM164 647c-14.667 0 -27.6699 1.99902 -39.0029 5.99902s-21.666 8.5 -30.999 13.5s-18.5 9.66699 -27.5 14s-18.5 6.5 -28.5 6.5c-11.333 0 -20.333 -2.33301 -27 -7s-11.667 -9.83398 -15 -15.501s-5.66602 -11 -6.99902 -16s-2 -8.16699 -2 -9.5
h-34c0 2.66699 1 8.5 3 17.5s6.16699 18.333 12.5 28s15 18.334 26 26.001s25.5 11.5 43.5 11.5c13.333 0 25.166 -2.16699 35.499 -6.5s20.166 -9 29.499 -14s18.833 -9.5 28.5 -13.5s20.834 -6 33.501 -6c13.333 0 23.833 2.33301 31.5 7s13.334 9.83398 17.001 15.501
s6 11 7 16s1.5 8.16699 1.5 9.5h34c0 -3.33301 -1.16699 -9.5 -3.5 -18.5s-6.66602 -18.167 -12.999 -27.5s-15.5 -17.833 -27.5 -25.5s-28 -11.5 -48 -11.5z" />
    <glyph glyph-name="Imacron" unicode="&#x12a;" horiz-adv-x="237" 
d="M93 0v710h51v-710h-51zM-24 859v37h285v-37h-285z" />
    <glyph glyph-name="imacron" unicode="&#x12b;" horiz-adv-x="207" 
d="M78 0v520h50v-520h-50zM-39 672v37h285v-37h-285z" />
    <glyph glyph-name="Ibreve" unicode="&#x12c;" horiz-adv-x="237" 
d="M93 0v710h51v-710h-51zM119 853c13.333 0 25.5 6.16699 36.5 18.5s17.5 27.5 19.5 45.5h33c0 -12.667 -2.33301 -24.667 -7 -36s-11.167 -21.166 -19.5 -29.499s-17.833 -14.833 -28.5 -19.5s-22 -7 -34 -7s-23.5 2.33301 -34.5 7s-20.5 11.167 -28.5 19.5
s-14.333 18.166 -19 29.499s-7 23.333 -7 36h33c0 -16.667 5.66699 -31.5 17 -44.5s24.333 -19.5 39 -19.5z" />
    <glyph glyph-name="ibreve" unicode="&#x12d;" horiz-adv-x="207" 
d="M78 0v520h50v-520h-50zM104 666c13.333 0 25.5 6.16699 36.5 18.5s17.5 27.5 19.5 45.5h33c0 -12.667 -2.33301 -24.667 -7 -36s-11.167 -21.166 -19.5 -29.499s-17.833 -14.833 -28.5 -19.5s-22 -7 -34 -7s-23.5 2.33301 -34.5 7s-20.5 11.167 -28.5 19.5
s-14.333 18.166 -19 29.499s-7 23.333 -7 36h33c0 -16.667 5.66699 -31.5 17 -44.5s24.333 -19.5 39 -19.5z" />
    <glyph glyph-name="Iogonek" unicode="&#x12e;" horiz-adv-x="237" 
d="M95 -169c-21.333 4.66699 -37.833 13 -49.5 25s-17.5 26.333 -17.5 43s5.83301 33.167 17.5 49.5s30.167 33.5 55.5 51.5h-8v710h51v-710c-30 -19.333 -51.167 -36 -63.5 -50s-18.5 -28.667 -18.5 -44c0 -25.333 16.333 -40.333 49 -45l-16 -30v0z" />
    <glyph glyph-name="iogonek" unicode="&#x12f;" horiz-adv-x="207" 
d="M80 -169c-21.333 4.66699 -37.833 13 -49.5 25s-17.5 26.333 -17.5 43s5.83301 33.167 17.5 49.5s30.167 33.5 55.5 51.5h-7v520h50v-520c-30 -19.333 -51.167 -36 -63.5 -50s-18.5 -28.667 -18.5 -44c0 -25.333 16.333 -40.333 49 -45zM79 638v92h50v-92h-50z" />
    <glyph glyph-name="Idotaccent" unicode="&#x130;" horiz-adv-x="237" 
d="M93 0v710h51v-710h-51zM95 827v90h46v-90h-46z" />
    <glyph glyph-name="dotlessi" unicode="&#x131;" horiz-adv-x="207" 
d="M78 0v520h50v-520h-50z" />
    <glyph glyph-name="IJ" unicode="&#x132;" horiz-adv-x="715" 
d="M93 0v710h51v-710h-51zM269 74c16.667 -11.333 36.667 -20.502 60 -27.502s49.333 -10.5 78 -10.5c38.667 0 69.334 7 92.001 21s40 34.333 52 61s19.833 59.5 23.5 98.5s5.5 83.167 5.5 132.5v361h51v-361c0 -54 -2.33301 -103.167 -7 -147.5
s-14.834 -82.166 -30.501 -113.499s-38.167 -55.666 -67.5 -72.999s-69 -26 -119 -26c-60 0 -111.333 14.667 -154 44z" />
    <glyph glyph-name="ij" unicode="&#x133;" horiz-adv-x="421" 
d="M78 0v520h50v-520h-50zM78 638v92h50v-92h-50zM197 -177c-21.333 0 -41.165 2.83105 -59.498 8.49805s-34.833 15.167 -49.5 28.5l27 33c11.333 -9.33301 23.666 -15.666 36.999 -18.999s26.666 -5 39.999 -5c12.667 0 25 2.5 37 7.5s22.667 12 32 21s17 19.667 23 32
s9 25.833 9 40.5v550h50v-548c0 -22 -4.16699 -42 -12.5 -60s-19.5 -33.667 -33.5 -47s-29.667 -23.666 -47 -30.999s-35 -11 -53 -11zM293.001 637.998v92h50v-92h-50z" />
    <glyph glyph-name="Jcircumflex" unicode="&#x134;" horiz-adv-x="478" 
d="M254 836l96 81h37l97 -81l-30 -17l-85 63l-85 -63zM32 74c16.667 -11.333 36.667 -20.502 60 -27.502s49.333 -10.5 78 -10.5c38.667 0 69.334 7 92.001 21s40 34.333 52 61s19.833 59.5 23.5 98.5s5.5 83.167 5.5 132.5v361h51v-361c0 -54 -2.33301 -103.167 -7 -147.5
s-14.834 -82.166 -30.501 -113.499s-38.167 -55.666 -67.5 -72.999s-69 -26 -119 -26c-60 0 -111.333 14.667 -154 44z" />
    <glyph glyph-name="jcircumflex" unicode="&#x135;" horiz-adv-x="207" 
d="M-18 -177c-21.333 0 -41.168 2.83105 -59.501 8.49805s-34.5 15.167 -48.5 28.5l27 33c10.667 -9.33301 22.834 -15.666 36.501 -18.999s27.167 -5 40.5 -5c12 0 24 2.5 36 7.5s22.833 12 32.5 21s17.334 19.667 23.001 32s8.5 25.833 8.5 40.5v550h50v-548
c0 -22 -4.16699 -42 -12.5 -60s-19.333 -33.667 -33 -47s-29.334 -23.666 -47.001 -30.999s-35.5 -11 -53.5 -11zM-12.002 648.998l96 81h37l97 -81l-30 -17l-85 63l-85 -63z" />
    <glyph glyph-name="Kcommaaccent" unicode="&#x136;" horiz-adv-x="635" 
d="M298 -187l15 68h-16v70h49v-70l-21 -68h-27zM93 0v710h51v-431l414 431h59l-295 -311l310 -399h-58l-285 368l-145 -149v-219h-51z" />
    <glyph glyph-name="kcommaaccent" unicode="&#x137;" horiz-adv-x="522" 
d="M245 -187l15 68h-16v70h49v-70l-21 -68h-27zM454 0l-203 278l-123 -113v-165h-50v730h50v-510l316 299h58l-217 -211l224 -308h-55z" />
    <glyph glyph-name="kgreenlandic" unicode="&#x138;" horiz-adv-x="522" 
d="M454 0l-203 278l-123 -113v-165h-50v520h50v-300l316 299h58l-217 -211l224 -308h-55z" />
    <glyph glyph-name="Lacute" unicode="&#x139;" horiz-adv-x="581" 
d="M338 816l-35 16l61 85h58zM93 0v710h51v-664h424v-46h-475z" />
    <glyph glyph-name="lacute" unicode="&#x13a;" horiz-adv-x="259" 
d="M98 775l-35 16l61 85h58zM82 730l51.001 -0.000976562v-627c0 -19.333 5.5 -34.666 16.5 -45.999s26.167 -17 45.5 -17c7.33301 0 16.166 0.833008 26.499 2.5s19.833 4.16699 28.5 7.5l10 -40c-11.333 -4.66699 -25.333 -8.5 -42 -11.5s-31 -4.5 -43 -4.5
c-28 0 -50.5 8.5 -67.5 25.5s-25.5 39.833 -25.5 68.5v642z" />
    <glyph glyph-name="Lcommaaccent" unicode="&#x13b;" horiz-adv-x="581" 
d="M306 -187l15 68h-16v70h49v-70l-21 -68h-27zM93 0v710h51v-664h424v-46h-475z" />
    <glyph glyph-name="lcommaaccent" unicode="&#x13c;" horiz-adv-x="259" 
d="M143 -187l15 68h-16v70h49v-70l-21 -68h-27zM82 730l51.001 -0.000976562v-627c0 -19.333 5.5 -34.666 16.5 -45.999s26.167 -17 45.5 -17c7.33301 0 16.166 0.833008 26.499 2.5s19.833 4.16699 28.5 7.5l10 -40c-11.333 -4.66699 -25.333 -8.5 -42 -11.5
s-31 -4.5 -43 -4.5c-28 0 -50.5 8.5 -67.5 25.5s-25.5 39.833 -25.5 68.5v642z" />
    <glyph glyph-name="Lcaron" unicode="&#x13d;" horiz-adv-x="581" 
d="M372 629l-35 16l61 85h58zM93 0v710h51v-664h424v-46h-475z" />
    <glyph glyph-name="lcaron" unicode="&#x13e;" horiz-adv-x="259" 
d="M215 629l-35 16l61 85h58zM82 730l51.001 -0.000976562v-627c0 -19.333 5.5 -34.666 16.5 -45.999s26.167 -17 45.5 -17c7.33301 0 16.166 0.833008 26.499 2.5s19.833 4.16699 28.5 7.5l10 -40c-11.333 -4.66699 -25.333 -8.5 -42 -11.5s-31 -4.5 -43 -4.5
c-28 0 -50.5 8.5 -67.5 25.5s-25.5 39.833 -25.5 68.5v642z" />
    <glyph glyph-name="Ldot" unicode="&#x13f;" horiz-adv-x="581" 
d="M93 0v710h51v-664h424v-46h-475zM366 353v101h44v-101h-44z" />
    <glyph glyph-name="ldot" unicode="&#x140;" horiz-adv-x="292" 
d="M82 730l51.001 -0.000976562v-627c0 -19.333 5.5 -34.666 16.5 -45.999s26.167 -17 45.5 -17c7.33301 0 16.166 0.833008 26.499 2.5s19.833 4.16699 28.5 7.5l10 -40c-11.333 -4.66699 -25.333 -8.5 -42 -11.5s-31 -4.5 -43 -4.5c-28 0 -50.5 8.5 -67.5 25.5
s-25.5 39.833 -25.5 68.5v642zM231.001 258.999v101h44v-101h-44z" />
    <glyph glyph-name="Lslash" unicode="&#x141;" horiz-adv-x="588" 
d="M100 0v279l-60 -53l-19 31l79 70v383h51v-337l167 149l19 -30l-186 -167v-279h424v-46h-475z" />
    <glyph glyph-name="lslash" unicode="&#x142;" horiz-adv-x="277" 
d="M99 352l-66.999 -57.001l-20 29l87 75v331h51v-287l90 77l20 -30l-110 -94v-293c0 -19.333 5.5 -34.666 16.5 -45.999s26.167 -17 45.5 -17c7.33301 0 16.166 0.833008 26.499 2.5s19.833 4.16699 28.5 7.5l10 -40c-11.333 -4.66699 -25.333 -8.5 -42 -11.5
s-31 -4.5 -43 -4.5c-28 0 -50.5 8.5 -67.5 25.5s-25.5 39.833 -25.5 68.5v264z" />
    <glyph glyph-name="Nacute" unicode="&#x143;" horiz-adv-x="773" 
d="M389 816l-35 16l61 85h58zM144 614v-614h-51v710h39l498 -625v625h51v-710h-47z" />
    <glyph glyph-name="nacute" unicode="&#x144;" horiz-adv-x="576" 
d="M289 629l-35 16l61 85h58zM503 0l-50.001 0.00195312v290c0 67.333 -9.5 116.333 -28.5 147s-49.167 46 -90.5 46c-22 0 -43.833 -4 -65.5 -12s-41.834 -19.333 -60.501 -34s-35 -31.834 -49 -51.501s-24.333 -40.834 -31 -63.501v-322h-50v520h47v-124
c10.667 20 23.834 38.167 39.501 54.5s33.334 30.333 53.001 42s40.5 20.667 62.5 27s44.667 9.5 68 9.5c56.667 0 96.667 -19.833 120 -59.5s35 -96.5 35 -170.5v-299z" />
    <glyph glyph-name="Ncommaaccent" unicode="&#x145;" horiz-adv-x="773" 
d="M365 -187l15 68h-16v70h49v-70l-21 -68h-27zM144 614v-614h-51v710h39l498 -625v625h51v-710h-47z" />
    <glyph glyph-name="ncommaaccent" unicode="&#x146;" horiz-adv-x="576" 
d="M259 -187l15 68h-16v70h49v-70l-21 -68h-27zM503 0l-50.001 0.00195312v290c0 67.333 -9.5 116.333 -28.5 147s-49.167 46 -90.5 46c-22 0 -43.833 -4 -65.5 -12s-41.834 -19.333 -60.501 -34s-35 -31.834 -49 -51.501s-24.333 -40.834 -31 -63.501v-322h-50v520h47v-124
c10.667 20 23.834 38.167 39.501 54.5s33.334 30.333 53.001 42s40.5 20.667 62.5 27s44.667 9.5 68 9.5c56.667 0 96.667 -19.833 120 -59.5s35 -96.5 35 -170.5v-299z" />
    <glyph glyph-name="Ncaron" unicode="&#x147;" horiz-adv-x="773" 
d="M306 917l85 -63l85 63l30 -17l-97 -81h-37l-96 81zM144 614v-614h-51v710h39l498 -625v625h51v-710h-47z" />
    <glyph glyph-name="ncaron" unicode="&#x148;" horiz-adv-x="576" 
d="M205 730l85 -63l85 63l30 -17l-97 -81h-37l-96 81zM503 0l-50.001 0.00195312v290c0 67.333 -9.5 116.333 -28.5 147s-49.167 46 -90.5 46c-22 0 -43.833 -4 -65.5 -12s-41.834 -19.333 -60.501 -34s-35 -31.834 -49 -51.501s-24.333 -40.834 -31 -63.501v-322h-50v520
h47v-124c10.667 20 23.834 38.167 39.501 54.5s33.334 30.333 53.001 42s40.5 20.667 62.5 27s44.667 9.5 68 9.5c56.667 0 96.667 -19.833 120 -59.5s35 -96.5 35 -170.5v-299z" />
    <glyph glyph-name="napostrophe" unicode="&#x149;" horiz-adv-x="576" 
d="M36 629l-34 16l39 54v31h80zM503 0l-50.001 0.00195312v290c0 67.333 -9.5 116.333 -28.5 147s-49.167 46 -90.5 46c-22 0 -43.833 -4 -65.5 -12s-41.834 -19.333 -60.501 -34s-35 -31.834 -49 -51.501s-24.333 -40.834 -31 -63.501v-322h-50v520h47v-124
c10.667 20 23.834 38.167 39.501 54.5s33.334 30.333 53.001 42s40.5 20.667 62.5 27s44.667 9.5 68 9.5c56.667 0 96.667 -19.833 120 -59.5s35 -96.5 35 -170.5v-299z" />
    <glyph glyph-name="Eng" unicode="&#x14a;" horiz-adv-x="770" 
d="M144 613l0.00292969 -613.001h-51v710h39l494 -623v622h51v-738c0 -22 -4.33301 -42 -13 -60s-19.834 -33.5 -33.501 -46.5s-29.167 -23.167 -46.5 -30.5s-35 -11 -53 -11c-21.333 0 -41.166 2.83301 -59.499 8.5s-34.833 15.167 -49.5 28.5l27 33
c11.333 -9.33301 23.666 -15.666 36.999 -18.999s26.666 -5 39.999 -5c12 0 24.167 2.5 36.5 7.5s23.166 12 32.499 21s17 19.667 23 32s9 25.833 9 40.5v34z" />
    <glyph glyph-name="eng" unicode="&#x14b;" horiz-adv-x="576" 
d="M358 -177c-21.333 0 -41.333 2.83301 -60 8.5s-35 15.167 -49 28.5l27 33c11.333 -9.33301 23.666 -15.666 36.999 -18.999s26.666 -5 39.999 -5c12 0 24 2.5 36 7.5s22.833 12 32.5 21s17.334 19.667 23.001 32s8.5 25.833 8.5 40.5v320
c0 67.333 -9.5 116.333 -28.5 147s-49.167 46 -90.5 46c-22 0 -43.833 -4 -65.5 -12s-41.834 -19.333 -60.501 -34s-35 -31.834 -49 -51.501s-24.333 -40.834 -31 -63.501v-322h-50v520h47v-124c10.667 20 23.834 38.167 39.501 54.5s33.334 30.333 53.001 42
s40.5 20.667 62.5 27s44.667 9.5 68 9.5c56.667 0 96.667 -19.833 120 -59.5s35 -96.5 35 -170.5v-327c0 -22 -4.16699 -42 -12.5 -60s-19.333 -33.667 -33 -47s-29.167 -23.666 -46.5 -30.999s-35 -11 -53 -11z" />
    <glyph glyph-name="Omacron" unicode="&#x14c;" horiz-adv-x="753" 
d="M235 859v37h285v-37h-285zM376 -5c-49.333 0 -94.333 10.3369 -135 31.0039s-75.667 47.667 -105 81s-52 71.666 -68 114.999s-24 87.666 -24 132.999c0 47.333 8.5 92.666 25.5 135.999s40.333 81.666 70 114.999s64.834 59.833 105.501 79.5s84.667 29.5 132 29.5
c49.333 0 94.5 -10.5 135.5 -31.5s76 -48.5 105 -82.5s51.5 -72.5 67.5 -115.5s24 -86.5 24 -130.5c0 -48 -8.5 -93.667 -25.5 -137s-40.333 -81.5 -70 -114.5s-64.834 -59.333 -105.501 -79s-84.667 -29.5 -132 -29.5zM95 355.004
c0 -40.667 6.83691 -79.834 20.5039 -117.501s33 -71 58 -100s54.833 -52.167 89.5 -69.5s72.667 -26 114 -26c42.667 0 81.167 9 115.5 27s63.666 41.833 87.999 71.5s43.166 63.167 56.499 100.5s20 75.333 20 114c0 40.667 -7 79.834 -21 117.501s-33.5 71 -58.5 100
s-54.5 52.167 -88.5 69.5s-71.333 26 -112 26c-42.667 0 -81.334 -9 -116.001 -27s-64.334 -41.833 -89.001 -71.5s-43.667 -63.167 -57 -100.5s-20 -75.333 -20 -114z" />
    <glyph glyph-name="omacron" unicode="&#x14d;" horiz-adv-x="592" 
d="M154 672v37h285v-37h-285zM296 -10c-36.667 0 -70.499 7.16699 -101.499 21.5s-57.833 33.833 -80.5 58.5s-40.334 53.334 -53.001 86.001s-19 67 -19 103c0 36.667 6.5 71.334 19.5 104.001s30.833 61.334 53.5 86.001s49.5 44.167 80.5 58.5s64.5 21.5 100.5 21.5
s69.333 -7.16699 100 -21.5s57.5 -33.833 80.5 -58.5s41 -53.334 54 -86.001s19.5 -67.334 19.5 -104.001c0 -36 -6.5 -70.333 -19.5 -103s-30.833 -61.334 -53.5 -86.001s-49.5 -44.167 -80.5 -58.5s-64.5 -21.5 -100.5 -21.5zM92.001 257
c0 -30.667 5.33203 -59.499 15.999 -86.499s25.167 -50.5 43.5 -70.5s39.833 -35.833 64.5 -47.5s51 -17.5 79 -17.5s54.333 5.83301 79 17.5s46.334 27.834 65.001 48.501s33.334 44.5 44.001 71.5s16 56.167 16 87.5c0 30.667 -5.33301 59.5 -16 86.5
s-25.334 50.667 -44.001 71s-40.167 36.5 -64.5 48.5s-50.5 18 -78.5 18s-54.333 -6 -79 -18s-46.167 -28.333 -64.5 -49s-33 -44.834 -44 -72.501s-16.5 -56.834 -16.5 -87.501z" />
    <glyph glyph-name="Obreve" unicode="&#x14e;" horiz-adv-x="753" 
d="M376 -5c-49.333 0 -94.333 10.3369 -135 31.0039s-75.667 47.667 -105 81s-52 71.666 -68 114.999s-24 87.666 -24 132.999c0 47.333 8.5 92.666 25.5 135.999s40.333 81.666 70 114.999s64.834 59.833 105.501 79.5s84.667 29.5 132 29.5
c49.333 0 94.5 -10.5 135.5 -31.5s76 -48.5 105 -82.5s51.5 -72.5 67.5 -115.5s24 -86.5 24 -130.5c0 -48 -8.5 -93.667 -25.5 -137s-40.333 -81.5 -70 -114.5s-64.834 -59.333 -105.501 -79s-84.667 -29.5 -132 -29.5zM95 355.004
c0 -40.667 6.83691 -79.834 20.5039 -117.501s33 -71 58 -100s54.833 -52.167 89.5 -69.5s72.667 -26 114 -26c42.667 0 81.167 9 115.5 27s63.666 41.833 87.999 71.5s43.166 63.167 56.499 100.5s20 75.333 20 114c0 40.667 -7 79.834 -21 117.501s-33.5 71 -58.5 100
s-54.5 52.167 -88.5 69.5s-71.333 26 -112 26c-42.667 0 -81.334 -9 -116.001 -27s-64.334 -41.833 -89.001 -71.5s-43.667 -63.167 -57 -100.5s-20 -75.333 -20 -114zM378.004 853.004c13.333 0 25.5 6.16699 36.5 18.5s17.5 27.5 19.5 45.5h33
c0 -12.667 -2.33301 -24.667 -7 -36s-11.167 -21.166 -19.5 -29.499s-17.833 -14.833 -28.5 -19.5s-22 -7 -34 -7s-23.5 2.33301 -34.5 7s-20.5 11.167 -28.5 19.5s-14.333 18.166 -19 29.499s-7 23.333 -7 36h33c0 -16.667 5.66699 -31.5 17 -44.5s24.333 -19.5 39 -19.5z
" />
    <glyph glyph-name="obreve" unicode="&#x14f;" horiz-adv-x="592" 
d="M296 -10c-36.667 0 -70.499 7.16699 -101.499 21.5s-57.833 33.833 -80.5 58.5s-40.334 53.334 -53.001 86.001s-19 67 -19 103c0 36.667 6.5 71.334 19.5 104.001s30.833 61.334 53.5 86.001s49.5 44.167 80.5 58.5s64.5 21.5 100.5 21.5s69.333 -7.16699 100 -21.5
s57.5 -33.833 80.5 -58.5s41 -53.334 54 -86.001s19.5 -67.334 19.5 -104.001c0 -36 -6.5 -70.333 -19.5 -103s-30.833 -61.334 -53.5 -86.001s-49.5 -44.167 -80.5 -58.5s-64.5 -21.5 -100.5 -21.5zM92.001 257c0 -30.667 5.33203 -59.499 15.999 -86.499
s25.167 -50.5 43.5 -70.5s39.833 -35.833 64.5 -47.5s51 -17.5 79 -17.5s54.333 5.83301 79 17.5s46.334 27.834 65.001 48.501s33.334 44.5 44.001 71.5s16 56.167 16 87.5c0 30.667 -5.33301 59.5 -16 86.5s-25.334 50.667 -44.001 71s-40.167 36.5 -64.5 48.5
s-50.5 18 -78.5 18s-54.333 -6 -79 -18s-46.167 -28.333 -64.5 -49s-33 -44.834 -44 -72.501s-16.5 -56.834 -16.5 -87.501zM296 666.001c13.333 0 25.5 6.16699 36.5 18.5s17.5 27.5 19.5 45.5h33c0 -12.667 -2.33301 -24.667 -7 -36s-11.167 -21.166 -19.5 -29.499
s-17.833 -14.833 -28.5 -19.5s-22 -7 -34 -7s-23.5 2.33301 -34.5 7s-20.5 11.167 -28.5 19.5s-14.333 18.166 -19 29.499s-7 23.333 -7 36h33c0 -16.667 5.66699 -31.5 17 -44.5s24.333 -19.5 39 -19.5z" />
    <glyph glyph-name="Ohungarumlaut" unicode="&#x150;" horiz-adv-x="753" 
d="M314 817l-29 16l59 85h53zM430 817l-30 16l60 85h53zM376 -5c-49.333 0 -94.333 10.3369 -135 31.0039s-75.667 47.667 -105 81s-52 71.666 -68 114.999s-24 87.666 -24 132.999c0 47.333 8.5 92.666 25.5 135.999s40.333 81.666 70 114.999s64.834 59.833 105.501 79.5
s84.667 29.5 132 29.5c49.333 0 94.5 -10.5 135.5 -31.5s76 -48.5 105 -82.5s51.5 -72.5 67.5 -115.5s24 -86.5 24 -130.5c0 -48 -8.5 -93.667 -25.5 -137s-40.333 -81.5 -70 -114.5s-64.834 -59.333 -105.501 -79s-84.667 -29.5 -132 -29.5zM95 355.004
c0 -40.667 6.83691 -79.834 20.5039 -117.501s33 -71 58 -100s54.833 -52.167 89.5 -69.5s72.667 -26 114 -26c42.667 0 81.167 9 115.5 27s63.666 41.833 87.999 71.5s43.166 63.167 56.499 100.5s20 75.333 20 114c0 40.667 -7 79.834 -21 117.501s-33.5 71 -58.5 100
s-54.5 52.167 -88.5 69.5s-71.333 26 -112 26c-42.667 0 -81.334 -9 -116.001 -27s-64.334 -41.833 -89.001 -71.5s-43.667 -63.167 -57 -100.5s-20 -75.333 -20 -114z" />
    <glyph glyph-name="ohungarumlaut" unicode="&#x151;" horiz-adv-x="592" 
d="M232 629l-29 16l59 85h53zM348 629l-30 16l60 85h53zM296 -10c-36.667 0 -70.499 7.16699 -101.499 21.5s-57.833 33.833 -80.5 58.5s-40.334 53.334 -53.001 86.001s-19 67 -19 103c0 36.667 6.5 71.334 19.5 104.001s30.833 61.334 53.5 86.001s49.5 44.167 80.5 58.5
s64.5 21.5 100.5 21.5s69.333 -7.16699 100 -21.5s57.5 -33.833 80.5 -58.5s41 -53.334 54 -86.001s19.5 -67.334 19.5 -104.001c0 -36 -6.5 -70.333 -19.5 -103s-30.833 -61.334 -53.5 -86.001s-49.5 -44.167 -80.5 -58.5s-64.5 -21.5 -100.5 -21.5zM92.001 257
c0 -30.667 5.33203 -59.499 15.999 -86.499s25.167 -50.5 43.5 -70.5s39.833 -35.833 64.5 -47.5s51 -17.5 79 -17.5s54.333 5.83301 79 17.5s46.334 27.834 65.001 48.501s33.334 44.5 44.001 71.5s16 56.167 16 87.5c0 30.667 -5.33301 59.5 -16 86.5
s-25.334 50.667 -44.001 71s-40.167 36.5 -64.5 48.5s-50.5 18 -78.5 18s-54.333 -6 -79 -18s-46.167 -28.333 -64.5 -49s-33 -44.834 -44 -72.501s-16.5 -56.834 -16.5 -87.501z" />
    <glyph glyph-name="OE" unicode="&#x152;" horiz-adv-x="1173" 
d="M1128 46l-0.00195312 -45.9971h-469v200c-11.333 -28.667 -26.333 -55.5 -45 -80.5s-40.167 -46.667 -64.5 -65s-51 -32.833 -80 -43.5s-59.5 -16 -91.5 -16c-49.333 0 -94.5 10.167 -135.5 30.5s-76.167 47.333 -105.5 81s-52.166 72.167 -68.499 115.5
s-24.5 87.666 -24.5 132.999c0 47.333 8.5 92.666 25.5 135.999s40.333 81.666 70 114.999s64.834 59.833 105.501 79.5s84.667 29.5 132 29.5c33.333 0 64.833 -5.5 94.5 -16.5s56.5 -25.833 80.5 -44.5s45 -40.5 63 -65.5s32.667 -51.5 44 -79.5v201h460v-46h-410v-278
h356v-47h-356v-293h419zM376.998 42.0029c42.667 0 81.1709 9.00195 115.504 27.002s63.666 41.833 87.999 71.5s43.166 63.167 56.499 100.5s20 75.666 20 114.999c0 40.667 -7 79.667 -21 117s-33.5 70.5 -58.5 99.5s-54.5 52.167 -88.5 69.5s-71.333 26 -112 26
c-42.667 0 -81.334 -9 -116.001 -27s-64.334 -41.833 -89.001 -71.5s-43.667 -63.167 -57 -100.5s-20 -75.333 -20 -114c0 -40.667 6.83301 -79.834 20.5 -117.501s33 -71 58 -100s54.833 -52.167 89.5 -69.5s72.667 -26 114 -26z" />
    <glyph glyph-name="oe" unicode="&#x153;" horiz-adv-x="1040" 
d="M294 -10c-35.333 0 -68.3291 6.99805 -98.9961 20.998s-57.334 33 -80.001 57s-40.5 52.333 -53.5 85s-19.5 67.667 -19.5 105c0 38 6.5 73.333 19.5 106s31 61.334 54 86.001s50 44 81 58s64.5 21 100.5 21c26 0 50.833 -4.16699 74.5 -12.5
s45.334 -20.166 65.001 -35.499s37 -33.833 52 -55.5s26.5 -45.834 34.5 -72.501c17.333 55.333 46.166 98.5 86.499 129.5s88.5 46.5 144.5 46.5c36 0 69.5 -6.83301 100.5 -20.5s57.833 -33.167 80.5 -58.5s40.5 -55.666 53.5 -90.999s19.5 -75 19.5 -119h-457
c2.66699 -29.333 10 -56.666 22 -81.999s27.667 -47.5 47 -66.5s41.666 -34 66.999 -45s52 -16.5 80 -16.5c18.667 0 37 2.5 55 7.5s34.5 11.833 49.5 20.5s28.167 19.167 39.5 31.5s20 25.833 26 40.5l43 -12c-8 -19.333 -19.333 -36.833 -34 -52.5s-31.5 -29 -50.5 -40
s-39.833 -19.667 -62.5 -26s-45.667 -9.5 -69 -9.5c-26 0 -51.333 4.16699 -76 12.5s-47.5 20.333 -68.5 36s-39.5 34.167 -55.5 55.5s-29 45 -39 71c-10 -26.667 -22.833 -50.834 -38.5 -72.501s-33.334 -40 -53.001 -55s-41.334 -26.667 -65.001 -35
s-48.5 -12.5 -74.5 -12.5zM295.004 34.998c28.667 0 55.334 5.83691 80.001 17.5039s46.167 27.5 64.5 47.5s32.833 43.667 43.5 71s16 56.666 16 87.999s-5.33301 60.666 -16 87.999s-25 51.166 -43 71.499s-39.333 36.333 -64 48s-51 17.5 -79 17.5s-54.5 -6 -79.5 -18
s-46.833 -28.333 -65.5 -49s-33.334 -44.834 -44.001 -72.501s-16 -57.167 -16 -88.5s5.33301 -60.333 16 -87s25.167 -50 43.5 -70s39.833 -35.667 64.5 -47s51 -17 79 -17zM959.004 277.002c-2 30.667 -8.66992 59.0029 -20.0029 85.0029s-26.166 48.333 -44.499 67
s-39.666 33.167 -63.999 43.5s-50.166 15.5 -77.499 15.5s-53 -5.33301 -77 -16s-45 -25.334 -63 -44.001s-32.5 -40.834 -43.5 -66.501s-17.167 -53.834 -18.5 -84.501h408z" />
    <glyph glyph-name="Racute" unicode="&#x154;" horiz-adv-x="649" 
d="M316 819l-35 16l61 85h58zM93 0l0.00390625 709.999h295c30 0 57.667 -6.33301 83 -19s47.166 -29.5 65.499 -50.5s32.666 -44.667 42.999 -71s15.5 -52.833 15.5 -79.5c0 -26 -4 -51.167 -12 -75.5s-19.333 -46.166 -34 -65.499s-32.334 -35.333 -53.001 -48
s-43.334 -21 -68.001 -25l177 -276h-59l-172 268h-230v-268h-51zM144.004 314.999h248.998c22.667 0 43.334 5 62.001 15s34.667 23.167 48 39.5s23.5 35 30.5 56s10.5 42.5 10.5 64.5c0 22.667 -4.16699 44.5 -12.5 65.5s-19.666 39.5 -33.999 55.5s-31 28.833 -50 38.5
s-39.5 14.5 -61.5 14.5h-242v-349z" />
    <glyph glyph-name="racute" unicode="&#x155;" horiz-adv-x="341" 
d="M191 629l-35 16l61 85h58zM324 475c-46.667 -1.33301 -87.5 -15.167 -122.5 -41.5s-59.5 -62.5 -73.5 -108.5v-325h-50v520h48v-128c18 36.667 41.833 66.5 71.5 89.5s61.5 36.167 95.5 39.5c6.66699 0.666992 12.667 1 18 1h13v-47z" />
    <glyph glyph-name="Rcommaaccent" unicode="&#x156;" horiz-adv-x="649" 
d="M297 -187l15 68h-16v70h49v-70l-21 -68h-27zM93 0l0.00390625 709.999h295c30 0 57.667 -6.33301 83 -19s47.166 -29.5 65.499 -50.5s32.666 -44.667 42.999 -71s15.5 -52.833 15.5 -79.5c0 -26 -4 -51.167 -12 -75.5s-19.333 -46.166 -34 -65.499
s-32.334 -35.333 -53.001 -48s-43.334 -21 -68.001 -25l177 -276h-59l-172 268h-230v-268h-51zM144.004 314.999h248.998c22.667 0 43.334 5 62.001 15s34.667 23.167 48 39.5s23.5 35 30.5 56s10.5 42.5 10.5 64.5c0 22.667 -4.16699 44.5 -12.5 65.5
s-19.666 39.5 -33.999 55.5s-31 28.833 -50 38.5s-39.5 14.5 -61.5 14.5h-242v-349z" />
    <glyph glyph-name="rcommaaccent" unicode="&#x157;" horiz-adv-x="341" 
d="M76 -187l15 68h-16v70h49v-70l-21 -68h-27zM324 475c-46.667 -1.33301 -87.5 -15.167 -122.5 -41.5s-59.5 -62.5 -73.5 -108.5v-325h-50v520h48v-128c18 36.667 41.833 66.5 71.5 89.5s61.5 36.167 95.5 39.5c6.66699 0.666992 12.667 1 18 1h13v-47z" />
    <glyph glyph-name="Rcaron" unicode="&#x158;" horiz-adv-x="649" 
d="M232 920l85 -63l85 63l30 -17l-97 -81h-37l-96 81zM93 0l0.00390625 709.999h295c30 0 57.667 -6.33301 83 -19s47.166 -29.5 65.499 -50.5s32.666 -44.667 42.999 -71s15.5 -52.833 15.5 -79.5c0 -26 -4 -51.167 -12 -75.5s-19.333 -46.166 -34 -65.499
s-32.334 -35.333 -53.001 -48s-43.334 -21 -68.001 -25l177 -276h-59l-172 268h-230v-268h-51zM144.004 314.999h248.998c22.667 0 43.334 5 62.001 15s34.667 23.167 48 39.5s23.5 35 30.5 56s10.5 42.5 10.5 64.5c0 22.667 -4.16699 44.5 -12.5 65.5
s-19.666 39.5 -33.999 55.5s-31 28.833 -50 38.5s-39.5 14.5 -61.5 14.5h-242v-349z" />
    <glyph glyph-name="rcaron" unicode="&#x159;" horiz-adv-x="341" 
d="M107 730l85 -63l85 63l30 -17l-97 -81h-37l-96 81zM324 475c-46.667 -1.33301 -87.5 -15.167 -122.5 -41.5s-59.5 -62.5 -73.5 -108.5v-325h-50v520h48v-128c18 36.667 41.833 66.5 71.5 89.5s61.5 36.167 95.5 39.5c6.66699 0.666992 12.667 1 18 1h13v-47z" />
    <glyph glyph-name="Sacute" unicode="&#x15a;" horiz-adv-x="605" 
d="M311 835l-35 16l61 85h58zM506 592c-46 51.333 -111.002 77 -195.002 77c-69.333 0 -119.833 -13.167 -151.5 -39.5s-47.5 -61.833 -47.5 -106.5c0 -22.667 4 -41.5 12 -56.5s20.5 -27.833 37.5 -38.5s38.5 -19.667 64.5 -27s57.333 -15 94 -23
c38 -8 72.5 -16.833 103.5 -26.5s57.333 -21.834 79 -36.501s38.334 -32.667 50.001 -54s17.5 -47.666 17.5 -78.999s-6.16699 -58.666 -18.5 -81.999s-29.666 -42.833 -51.999 -58.5s-49 -27.5 -80 -35.5s-65.5 -12 -103.5 -12c-110.667 0 -204.334 35.333 -281.001 106
l27 41c30 -31.333 66.667 -56.166 110 -74.499s92 -27.5 146 -27.5c62 0 110.5 11.333 145.5 34s52.5 57 52.5 103c0 23.333 -4.66699 43.166 -14 59.499s-23.166 30.5 -41.499 42.5s-41.5 22.333 -69.5 31s-60.667 17 -98 25c-38 8 -71.5 16.5 -100.5 25.5
s-53.333 20.333 -73 34s-34.5 30.167 -44.5 49.5s-15 43.666 -15 72.999c0 32 6.16699 60.333 18.5 85s29.5 45.5 51.5 62.5s48.333 29.833 79 38.5s64.667 13 102 13c46 0 87 -6.83301 123 -20.5s68.667 -34.5 98 -62.5z" />
    <glyph glyph-name="sacute" unicode="&#x15b;" horiz-adv-x="481" 
d="M243 629l-35 16l61 85h58zM243 -10c-40 0 -78.332 6.6709 -114.999 20.0039s-68.667 33.333 -96 60l25 34c28 -25.333 57 -44 87 -56s63 -18 99 -18c45.333 0 81.833 9.5 109.5 28.5s41.5 45.5 41.5 79.5c0 16 -3.5 29.5 -10.5 40.5s-17.5 20.333 -31.5 28
s-31.333 14.5 -52 20.5s-44.667 12.333 -72 19c-29.333 6.66699 -54.833 13.334 -76.5 20.001s-39.5 14.667 -53.5 24s-24.5 20.666 -31.5 33.999s-10.5 30.333 -10.5 51c0 26 5 48.667 15 68s23.833 35.333 41.5 48s38 22.167 61 28.5s47.5 9.5 73.5 9.5
c40.667 0 76.667 -6.83301 108 -20.5s55.666 -31.167 72.999 -52.5l-28 -27c-17.333 20 -39.833 35 -67.5 45s-57.167 15 -88.5 15c-19.333 0 -37.5 -2 -54.5 -6s-31.833 -10.333 -44.5 -19s-22.667 -19.834 -30 -33.501s-11 -29.834 -11 -48.501
c0 -15.333 2.5 -27.666 7.5 -36.999s13 -17.333 24 -24s25.167 -12.5 42.5 -17.5s38 -10.5 62 -16.5c32.667 -8 61.667 -15.667 87 -23s46.5 -16.333 63.5 -27s30 -23.334 39 -38.001s13.5 -33.334 13.5 -56.001c0 -46.667 -18.167 -83.834 -54.5 -111.501
s-84.833 -41.5 -145.5 -41.5z" />
    <glyph glyph-name="Scircumflex" unicode="&#x15c;" horiz-adv-x="605" 
d="M197 855l96 81h37l97 -81l-30 -17l-85 63l-85 -63zM506 592c-46 51.333 -111.002 77 -195.002 77c-69.333 0 -119.833 -13.167 -151.5 -39.5s-47.5 -61.833 -47.5 -106.5c0 -22.667 4 -41.5 12 -56.5s20.5 -27.833 37.5 -38.5s38.5 -19.667 64.5 -27s57.333 -15 94 -23
c38 -8 72.5 -16.833 103.5 -26.5s57.333 -21.834 79 -36.501s38.334 -32.667 50.001 -54s17.5 -47.666 17.5 -78.999s-6.16699 -58.666 -18.5 -81.999s-29.666 -42.833 -51.999 -58.5s-49 -27.5 -80 -35.5s-65.5 -12 -103.5 -12c-110.667 0 -204.334 35.333 -281.001 106
l27 41c30 -31.333 66.667 -56.166 110 -74.499s92 -27.5 146 -27.5c62 0 110.5 11.333 145.5 34s52.5 57 52.5 103c0 23.333 -4.66699 43.166 -14 59.499s-23.166 30.5 -41.499 42.5s-41.5 22.333 -69.5 31s-60.667 17 -98 25c-38 8 -71.5 16.5 -100.5 25.5
s-53.333 20.333 -73 34s-34.5 30.167 -44.5 49.5s-15 43.666 -15 72.999c0 32 6.16699 60.333 18.5 85s29.5 45.5 51.5 62.5s48.333 29.833 79 38.5s64.667 13 102 13c46 0 87 -6.83301 123 -20.5s68.667 -34.5 98 -62.5z" />
    <glyph glyph-name="scircumflex" unicode="&#x15d;" horiz-adv-x="481" 
d="M129 649l96 81h37l97 -81l-30 -17l-85 63l-85 -63zM243 -10c-40 0 -78.332 6.6709 -114.999 20.0039s-68.667 33.333 -96 60l25 34c28 -25.333 57 -44 87 -56s63 -18 99 -18c45.333 0 81.833 9.5 109.5 28.5s41.5 45.5 41.5 79.5c0 16 -3.5 29.5 -10.5 40.5
s-17.5 20.333 -31.5 28s-31.333 14.5 -52 20.5s-44.667 12.333 -72 19c-29.333 6.66699 -54.833 13.334 -76.5 20.001s-39.5 14.667 -53.5 24s-24.5 20.666 -31.5 33.999s-10.5 30.333 -10.5 51c0 26 5 48.667 15 68s23.833 35.333 41.5 48s38 22.167 61 28.5
s47.5 9.5 73.5 9.5c40.667 0 76.667 -6.83301 108 -20.5s55.666 -31.167 72.999 -52.5l-28 -27c-17.333 20 -39.833 35 -67.5 45s-57.167 15 -88.5 15c-19.333 0 -37.5 -2 -54.5 -6s-31.833 -10.333 -44.5 -19s-22.667 -19.834 -30 -33.501s-11 -29.834 -11 -48.501
c0 -15.333 2.5 -27.666 7.5 -36.999s13 -17.333 24 -24s25.167 -12.5 42.5 -17.5s38 -10.5 62 -16.5c32.667 -8 61.667 -15.667 87 -23s46.5 -16.333 63.5 -27s30 -23.334 39 -38.001s13.5 -33.334 13.5 -56.001c0 -46.667 -18.167 -83.834 -54.5 -111.501
s-84.833 -41.5 -145.5 -41.5z" />
    <glyph glyph-name="uni015E" unicode="&#x15e;" horiz-adv-x="606" 
d="M246 -125c9.33301 -4.66699 21.8271 -8.99805 37.4941 -12.998s32.167 -6 49.5 -6c38.667 0 58 12.333 58 37c0 13.333 -4.5 22.666 -13.5 27.999s-20.833 8 -35.5 8c-14 0 -28.667 -1.66699 -44 -5s-27.666 -6.33301 -36.999 -9l44 79
c-53.333 1.33301 -102.166 10.666 -146.499 27.999s-85.166 43.333 -122.499 78l27 41c30 -31.333 66.667 -56.166 110 -74.499s92 -27.5 146 -27.5c62 0 110.5 11.333 145.5 34s52.5 57 52.5 103c0 23.333 -4.66699 43.166 -14 59.499s-23.166 30.5 -41.499 42.5
s-41.5 22.333 -69.5 31s-60.667 17 -98 25c-38 8 -71.5 16.5 -100.5 25.5s-53.333 20.333 -73 34s-34.5 30.167 -44.5 49.5s-15 43.666 -15 72.999c0 32 6.16699 60.333 18.5 85s29.5 45.5 51.5 62.5s48.333 29.833 79 38.5s64.667 13 102 13c46 0 87 -6.83301 123 -20.5
s68.667 -34.5 98 -62.5l-26 -40c-46 51.333 -111 77 -195 77c-69.333 0 -119.833 -13.167 -151.5 -39.5s-47.5 -61.833 -47.5 -106.5c0 -22.667 4 -41.5 12 -56.5s20.5 -27.833 37.5 -38.5s38.5 -19.667 64.5 -27s57.333 -15 94 -23c38 -8 72.5 -16.833 103.5 -26.5
s57.333 -21.834 79 -36.501s38.334 -32.667 50.001 -54s17.5 -47.666 17.5 -78.999c0 -30 -5.5 -56.333 -16.5 -79s-26.667 -41.834 -47 -57.501s-44.833 -27.667 -73.5 -36s-60.334 -13.166 -95.001 -14.499l-29 -48c6 2.66699 12.833 4.33398 20.5 5.00098
s14.167 1 19.5 1c22.667 0 40.334 -5 53.001 -15s19 -24.667 19 -44c0 -21.333 -8 -37.5 -24 -48.5s-39 -16.5 -69 -16.5c-19.333 0 -37.166 1.83301 -53.499 5.5s-30.833 8.16699 -43.5 13.5z" />
    <glyph glyph-name="uni015F" unicode="&#x15f;" horiz-adv-x="482" 
d="M167 -125c9.33301 -4.66699 21.832 -8.99707 37.499 -12.9971s32.167 -6 49.5 -6c38.667 0 58 12.333 58 37c0 13.333 -4.5 22.666 -13.5 27.999s-20.833 8 -35.5 8c-14 0 -28.667 -1.66699 -44 -5s-27.666 -6.33301 -36.999 -9l42 76c-36.667 2 -71.5 9.5 -104.5 22.5
s-62.167 31.833 -87.5 56.5l25 34c28 -25.333 57 -44 87 -56s63 -18 99 -18c45.333 0 81.833 9.5 109.5 28.5s41.5 45.5 41.5 79.5c0 16 -3.5 29.5 -10.5 40.5s-17.5 20.333 -31.5 28s-31.333 14.5 -52 20.5s-44.667 12.333 -72 19
c-29.333 6.66699 -54.833 13.334 -76.5 20.001s-39.5 14.667 -53.5 24s-24.5 20.666 -31.5 33.999s-10.5 30.333 -10.5 51c0 26 5 48.667 15 68s23.833 35.333 41.5 48s38 22.167 61 28.5s47.5 9.5 73.5 9.5c40.667 0 76.667 -6.83301 108 -20.5
s55.666 -31.167 72.999 -52.5l-28 -27c-17.333 20 -39.833 35 -67.5 45s-57.167 15 -88.5 15c-19.333 0 -37.5 -2 -54.5 -6s-31.833 -10.333 -44.5 -19s-22.667 -19.834 -30 -33.501s-11 -29.834 -11 -48.501c0 -15.333 2.5 -27.666 7.5 -36.999s13 -17.333 24 -24
s25.167 -12.5 42.5 -17.5s38 -10.5 62 -16.5c32.667 -8 61.667 -15.667 87 -23s46.5 -16.333 63.5 -27s30 -23.334 39 -38.001s13.5 -33.334 13.5 -56.001c0 -45.333 -16.833 -81.5 -50.5 -108.5s-78.834 -41.5 -135.501 -43.5l-26 -44
c6 2.66699 12.833 4.33398 20.5 5.00098s14.167 1 19.5 1c22.667 0 40.334 -5 53.001 -15s19 -24.667 19 -44c0 -21.333 -8 -37.5 -24 -48.5s-39 -16.5 -69 -16.5c-19.333 0 -37.166 1.83301 -53.499 5.5s-30.833 8.16699 -43.5 13.5z" />
    <glyph glyph-name="Scaron" unicode="&#x160;" horiz-adv-x="605" 
d="M227 936l85 -63l85 63l30 -17l-97 -81h-37l-96 81zM506 592c-46 51.333 -111.002 77 -195.002 77c-69.333 0 -119.833 -13.167 -151.5 -39.5s-47.5 -61.833 -47.5 -106.5c0 -22.667 4 -41.5 12 -56.5s20.5 -27.833 37.5 -38.5s38.5 -19.667 64.5 -27s57.333 -15 94 -23
c38 -8 72.5 -16.833 103.5 -26.5s57.333 -21.834 79 -36.501s38.334 -32.667 50.001 -54s17.5 -47.666 17.5 -78.999s-6.16699 -58.666 -18.5 -81.999s-29.666 -42.833 -51.999 -58.5s-49 -27.5 -80 -35.5s-65.5 -12 -103.5 -12c-110.667 0 -204.334 35.333 -281.001 106
l27 41c30 -31.333 66.667 -56.166 110 -74.499s92 -27.5 146 -27.5c62 0 110.5 11.333 145.5 34s52.5 57 52.5 103c0 23.333 -4.66699 43.166 -14 59.499s-23.166 30.5 -41.499 42.5s-41.5 22.333 -69.5 31s-60.667 17 -98 25c-38 8 -71.5 16.5 -100.5 25.5
s-53.333 20.333 -73 34s-34.5 30.167 -44.5 49.5s-15 43.666 -15 72.999c0 32 6.16699 60.333 18.5 85s29.5 45.5 51.5 62.5s48.333 29.833 79 38.5s64.667 13 102 13c46 0 87 -6.83301 123 -20.5s68.667 -34.5 98 -62.5z" />
    <glyph glyph-name="scaron" unicode="&#x161;" horiz-adv-x="481" 
d="M159 730l85 -63l85 63l30 -17l-97 -81h-37l-96 81zM243 -10c-40 0 -78.332 6.6709 -114.999 20.0039s-68.667 33.333 -96 60l25 34c28 -25.333 57 -44 87 -56s63 -18 99 -18c45.333 0 81.833 9.5 109.5 28.5s41.5 45.5 41.5 79.5c0 16 -3.5 29.5 -10.5 40.5
s-17.5 20.333 -31.5 28s-31.333 14.5 -52 20.5s-44.667 12.333 -72 19c-29.333 6.66699 -54.833 13.334 -76.5 20.001s-39.5 14.667 -53.5 24s-24.5 20.666 -31.5 33.999s-10.5 30.333 -10.5 51c0 26 5 48.667 15 68s23.833 35.333 41.5 48s38 22.167 61 28.5
s47.5 9.5 73.5 9.5c40.667 0 76.667 -6.83301 108 -20.5s55.666 -31.167 72.999 -52.5l-28 -27c-17.333 20 -39.833 35 -67.5 45s-57.167 15 -88.5 15c-19.333 0 -37.5 -2 -54.5 -6s-31.833 -10.333 -44.5 -19s-22.667 -19.834 -30 -33.501s-11 -29.834 -11 -48.501
c0 -15.333 2.5 -27.666 7.5 -36.999s13 -17.333 24 -24s25.167 -12.5 42.5 -17.5s38 -10.5 62 -16.5c32.667 -8 61.667 -15.667 87 -23s46.5 -16.333 63.5 -27s30 -23.334 39 -38.001s13.5 -33.334 13.5 -56.001c0 -46.667 -18.167 -83.834 -54.5 -111.501
s-84.833 -41.5 -145.5 -41.5z" />
    <glyph glyph-name="uni0162" unicode="&#x162;" horiz-adv-x="605" 
d="M225 -125c9.33301 -4.66699 21.8301 -9 37.4971 -13s32.167 -6 49.5 -6c38.667 0 58 12.333 58 37c0 13.333 -4.5 22.666 -13.5 27.999s-20.833 8 -35.5 8c-14 0 -28.667 -1.66699 -44 -5s-27.666 -6.33301 -36.999 -9l47 85h-10v664h-260v46h571v-46h-260v-664h-7
l-32 -53c6 2.66699 12.833 4.33398 20.5 5.00098s14.167 1 19.5 1c22.667 0 40.334 -5 53.001 -15s19 -24.667 19 -44c0 -21.333 -8 -37.5 -24 -48.5s-39 -16.5 -69 -16.5c-19.333 0 -37.166 1.83301 -53.499 5.5s-30.833 8.16699 -43.5 13.5z" />
    <glyph glyph-name="uni0163" unicode="&#x163;" horiz-adv-x="320" 
d="M124 -125c9.33301 -4.66699 21.8311 -8.99902 37.498 -12.999s32.167 -6 49.5 -6c38.667 0 58 12.333 58 37c0 13.333 -4.5 22.666 -13.5 27.999s-20.833 8 -35.5 8c-14 0 -28.667 -1.66699 -44 -5s-27.666 -6.33301 -36.999 -9l45 80
c-24 3.33301 -44.167 12.666 -60.5 27.999s-24.5 36.666 -24.5 63.999v392h-73v41h73v178h50v-178h121v-41h-121v-380c0 -19.333 6.66699 -33.833 20 -43.5s28.333 -14.5 45 -14.5c20.667 0 38.5 3.5 53.5 10.5s24.167 11.5 27.5 13.5l15 -40
c-4.66699 -3.33301 -15.334 -8.66602 -32.001 -15.999s-37 -12 -61 -14l-29 -48c6 2.66699 12.833 4.33398 20.5 5.00098s14.167 1 19.5 1c22.667 0 40.334 -5 53.001 -15s19 -24.667 19 -44c0 -21.333 -8 -37.5 -24 -48.5s-39 -16.5 -69 -16.5
c-19.333 0 -37.166 1.83301 -53.499 5.5s-30.833 8.16699 -43.5 13.5z" />
    <glyph glyph-name="Tcaron" unicode="&#x164;" horiz-adv-x="606" 
d="M220 917l85 -63l85 63l30 -17l-97 -81h-37l-96 81zM589 664h-260v-664h-51v664h-260v46h571v-46z" />
    <glyph glyph-name="tcaron" unicode="&#x165;" horiz-adv-x="320" 
d="M254 629l-35 16l61 85h58zM310 25c-2.66699 -1.33301 -7.16895 -3.83203 -13.502 -7.49902s-14.333 -7.16699 -24 -10.5s-20.5 -6.33301 -32.5 -9s-25 -4 -39 -4s-27.167 2 -39.5 6s-23.166 10 -32.499 18s-16.666 17.667 -21.999 29s-8 24.666 -8 39.999v392h-73v41h73
v178h50v-178h121v-41h-121v-380c0 -19.333 6.66699 -33.833 20 -43.5s28.333 -14.5 45 -14.5c20.667 0 38.5 3.5 53.5 10.5s24.167 11.5 27.5 13.5z" />
    <glyph glyph-name="Tbar" unicode="&#x166;" horiz-adv-x="641" 
d="M606 664h-260v-252h228v-32h-228v-380h-51v380h-228v32h228v252h-260v46h571v-46z" />
    <glyph glyph-name="tbar" unicode="&#x167;" horiz-adv-x="322" 
d="M311 25c-2.66699 -1.33301 -7.16895 -3.83203 -13.502 -7.49902s-14.333 -7.16699 -24 -10.5s-20.5 -6.33301 -32.5 -9s-25 -4 -39 -4s-27.167 2 -39.5 6s-23.166 10 -32.499 18s-16.666 17.667 -21.999 29s-8 24.666 -8 39.999v232h-73v36h73v124h-73v41h73v178h50v-178
h121v-41h-121v-124h121v-36h-121v-220c0 -19.333 6.66699 -33.833 20 -43.5s28.333 -14.5 45 -14.5c20.667 0 38.5 3.5 53.5 10.5s24.167 11.5 27.5 13.5z" />
    <glyph glyph-name="Utilde" unicode="&#x168;" horiz-adv-x="756" 
d="M378 42c48 0 87.832 8.99805 119.499 26.998s56.667 41.667 75 71s31.333 62.666 39 99.999s11.5 75 11.5 113v357h51v-357c0 -47.333 -5.16699 -92.666 -15.5 -135.999s-27.166 -81.5 -50.499 -114.5s-53.666 -59.167 -90.999 -78.5s-83.333 -29 -138 -29
c-56.667 0 -104 10.167 -142 30.5s-68.5 47.333 -91.5 81s-39.333 71.834 -49 114.501s-14.5 86.667 -14.5 132v357h51v-357c0 -39.333 3.83301 -77.666 11.5 -114.999s21 -70.5 40 -99.5s44.167 -52.333 75.5 -70s70.666 -26.5 117.999 -26.5zM439.999 833.998
c-14.667 0 -27.6699 1.99902 -39.0029 5.99902s-21.666 8.5 -30.999 13.5s-18.5 9.66699 -27.5 14s-18.5 6.5 -28.5 6.5c-11.333 0 -20.333 -2.33301 -27 -7s-11.667 -9.83398 -15 -15.501s-5.66602 -11 -6.99902 -16s-2 -8.16699 -2 -9.5h-34c0 2.66699 1 8.5 3 17.5
s6.16699 18.333 12.5 28s15 18.334 26 26.001s25.5 11.5 43.5 11.5c13.333 0 25.166 -2.16699 35.499 -6.5s20.166 -9 29.499 -14s18.833 -9.5 28.5 -13.5s20.834 -6 33.501 -6c13.333 0 23.833 2.33301 31.5 7s13.334 9.83398 17.001 15.501s6 11 7 16s1.5 8.16699 1.5 9.5
h34c0 -3.33301 -1.16699 -9.5 -3.5 -18.5s-6.66602 -18.167 -12.999 -27.5s-15.5 -17.833 -27.5 -25.5s-28 -11.5 -48 -11.5z" />
    <glyph glyph-name="utilde" unicode="&#x169;" horiz-adv-x="587" 
d="M239 -10c-110.667 0 -166 76.667 -166 230v300h50v-293c0 -128 43.667 -192 131 -192c22 0 43.333 3.83301 64 11.5s40 18.334 58 32.001s33.833 30.167 47.5 49.5s24.5 40.666 32.5 63.999v328h50v-450c0 -16.667 7 -25 21 -25v-45
c-3.33301 -0.666992 -6.33301 -1 -9 -1h-6c-13.333 0 -25.166 4.16699 -35.499 12.5s-15.5 19.5 -15.5 33.5v78c-22.667 -42 -53.834 -74.667 -93.501 -98s-82.5 -35 -128.5 -35zM349 647c-14.667 0 -27.6699 1.99902 -39.0029 5.99902s-21.666 8.5 -30.999 13.5
s-18.5 9.66699 -27.5 14s-18.5 6.5 -28.5 6.5c-11.333 0 -20.333 -2.33301 -27 -7s-11.667 -9.83398 -15 -15.501s-5.66602 -11 -6.99902 -16s-2 -8.16699 -2 -9.5h-34c0 2.66699 1 8.5 3 17.5s6.16699 18.333 12.5 28s15 18.334 26 26.001s25.5 11.5 43.5 11.5
c13.333 0 25.166 -2.16699 35.499 -6.5s20.166 -9 29.499 -14s18.833 -9.5 28.5 -13.5s20.834 -6 33.501 -6c13.333 0 23.833 2.33301 31.5 7s13.334 9.83398 17.001 15.501s6 11 7 16s1.5 8.16699 1.5 9.5h34c0 -3.33301 -1.16699 -9.5 -3.5 -18.5
s-6.66602 -18.167 -12.999 -27.5s-15.5 -17.833 -27.5 -25.5s-28 -11.5 -48 -11.5z" />
    <glyph glyph-name="Umacron" unicode="&#x16a;" horiz-adv-x="756" 
d="M378 42c48 0 87.832 8.99805 119.499 26.998s56.667 41.667 75 71s31.333 62.666 39 99.999s11.5 75 11.5 113v357h51v-357c0 -47.333 -5.16699 -92.666 -15.5 -135.999s-27.166 -81.5 -50.499 -114.5s-53.666 -59.167 -90.999 -78.5s-83.333 -29 -138 -29
c-56.667 0 -104 10.167 -142 30.5s-68.5 47.333 -91.5 81s-39.333 71.834 -49 114.501s-14.5 86.667 -14.5 132v357h51v-357c0 -39.333 3.83301 -77.666 11.5 -114.999s21 -70.5 40 -99.5s44.167 -52.333 75.5 -70s70.666 -26.5 117.999 -26.5zM235.999 858.998v37h285v-37
h-285z" />
    <glyph glyph-name="umacron" unicode="&#x16b;" horiz-adv-x="587" 
d="M239 -10c-110.667 0 -166 76.667 -166 230v300h50v-293c0 -128 43.667 -192 131 -192c22 0 43.333 3.83301 64 11.5s40 18.334 58 32.001s33.833 30.167 47.5 49.5s24.5 40.666 32.5 63.999v328h50v-450c0 -16.667 7 -25 21 -25v-45
c-3.33301 -0.666992 -6.33301 -1 -9 -1h-6c-13.333 0 -25.166 4.16699 -35.499 12.5s-15.5 19.5 -15.5 33.5v78c-22.667 -42 -53.834 -74.667 -93.501 -98s-82.5 -35 -128.5 -35zM145 672v37h285v-37h-285z" />
    <glyph glyph-name="Ubreve" unicode="&#x16c;" horiz-adv-x="756" 
d="M378 42c48 0 87.832 8.99805 119.499 26.998s56.667 41.667 75 71s31.333 62.666 39 99.999s11.5 75 11.5 113v357h51v-357c0 -47.333 -5.16699 -92.666 -15.5 -135.999s-27.166 -81.5 -50.499 -114.5s-53.666 -59.167 -90.999 -78.5s-83.333 -29 -138 -29
c-56.667 0 -104 10.167 -142 30.5s-68.5 47.333 -91.5 81s-39.333 71.834 -49 114.501s-14.5 86.667 -14.5 132v357h51v-357c0 -39.333 3.83301 -77.666 11.5 -114.999s21 -70.5 40 -99.5s44.167 -52.333 75.5 -70s70.666 -26.5 117.999 -26.5zM378.999 852.998
c13.333 0 25.5 6.16699 36.5 18.5s17.5 27.5 19.5 45.5h33c0 -12.667 -2.33301 -24.667 -7 -36s-11.167 -21.166 -19.5 -29.499s-17.833 -14.833 -28.5 -19.5s-22 -7 -34 -7s-23.5 2.33301 -34.5 7s-20.5 11.167 -28.5 19.5s-14.333 18.166 -19 29.499s-7 23.333 -7 36h33
c0 -16.667 5.66699 -31.5 17 -44.5s24.333 -19.5 39 -19.5z" />
    <glyph glyph-name="ubreve" unicode="&#x16d;" horiz-adv-x="587" 
d="M239 -10c-110.667 0 -166 76.667 -166 230v300h50v-293c0 -128 43.667 -192 131 -192c22 0 43.333 3.83301 64 11.5s40 18.334 58 32.001s33.833 30.167 47.5 49.5s24.5 40.666 32.5 63.999v328h50v-450c0 -16.667 7 -25 21 -25v-45
c-3.33301 -0.666992 -6.33301 -1 -9 -1h-6c-13.333 0 -25.166 4.16699 -35.499 12.5s-15.5 19.5 -15.5 33.5v78c-22.667 -42 -53.834 -74.667 -93.501 -98s-82.5 -35 -128.5 -35zM288 666c13.333 0 25.5 6.16699 36.5 18.5s17.5 27.5 19.5 45.5h33
c0 -12.667 -2.33301 -24.667 -7 -36s-11.167 -21.166 -19.5 -29.499s-17.833 -14.833 -28.5 -19.5s-22 -7 -34 -7s-23.5 2.33301 -34.5 7s-20.5 11.167 -28.5 19.5s-14.333 18.166 -19 29.499s-7 23.333 -7 36h33c0 -16.667 5.66699 -31.5 17 -44.5s24.333 -19.5 39 -19.5z
" />
    <glyph glyph-name="Uring" unicode="&#x16e;" horiz-adv-x="756" 
d="M310 855c0 18 6.5 32.833 19.5 44.5s29.167 17.5 48.5 17.5s35.5 -5.83301 48.5 -17.5s19.5 -26.5 19.5 -44.5c0 -18.667 -6.5 -33.834 -19.5 -45.501s-29.167 -17.5 -48.5 -17.5s-35.5 5.83301 -48.5 17.5s-19.5 26.834 -19.5 45.501zM378 894
c-11.333 0 -20.833 -3.5 -28.5 -10.5s-11.5 -16.5 -11.5 -28.5c0 -11.333 3.83301 -20.833 11.5 -28.5s17.167 -11.5 28.5 -11.5c10.667 0 20.167 3.83301 28.5 11.5s12.5 17.167 12.5 28.5c0 12 -4 21.5 -12 28.5s-17.667 10.5 -29 10.5zM378 42
c48 0 87.832 8.99805 119.499 26.998s56.667 41.667 75 71s31.333 62.666 39 99.999s11.5 75 11.5 113v357h51v-357c0 -47.333 -5.16699 -92.666 -15.5 -135.999s-27.166 -81.5 -50.499 -114.5s-53.666 -59.167 -90.999 -78.5s-83.333 -29 -138 -29
c-56.667 0 -104 10.167 -142 30.5s-68.5 47.333 -91.5 81s-39.333 71.834 -49 114.501s-14.5 86.667 -14.5 132v357h51v-357c0 -39.333 3.83301 -77.666 11.5 -114.999s21 -70.5 40 -99.5s44.167 -52.333 75.5 -70s70.666 -26.5 117.999 -26.5z" />
    <glyph glyph-name="uring" unicode="&#x16f;" horiz-adv-x="587" 
d="M219 668c0 18 6.5 32.833 19.5 44.5s29.167 17.5 48.5 17.5s35.5 -5.83301 48.5 -17.5s19.5 -26.5 19.5 -44.5c0 -18.667 -6.5 -33.834 -19.5 -45.501s-29.167 -17.5 -48.5 -17.5s-35.5 5.83301 -48.5 17.5s-19.5 26.834 -19.5 45.501zM287 707
c-11.333 0 -20.833 -3.5 -28.5 -10.5s-11.5 -16.5 -11.5 -28.5c0 -11.333 3.83301 -20.833 11.5 -28.5s17.167 -11.5 28.5 -11.5c10.667 0 20.167 3.83301 28.5 11.5s12.5 17.167 12.5 28.5c0 12 -4 21.5 -12 28.5s-17.667 10.5 -29 10.5zM239 -10
c-110.667 0 -166 76.667 -166 230v300h50v-293c0 -128 43.667 -192 131 -192c22 0 43.333 3.83301 64 11.5s40 18.334 58 32.001s33.833 30.167 47.5 49.5s24.5 40.666 32.5 63.999v328h50v-450c0 -16.667 7 -25 21 -25v-45c-3.33301 -0.666992 -6.33301 -1 -9 -1h-6
c-13.333 0 -25.166 4.16699 -35.499 12.5s-15.5 19.5 -15.5 33.5v78c-22.667 -42 -53.834 -74.667 -93.501 -98s-82.5 -35 -128.5 -35z" />
    <glyph glyph-name="Uhungarumlaut" unicode="&#x170;" horiz-adv-x="756" 
d="M378 42c48 0 87.832 8.99805 119.499 26.998s56.667 41.667 75 71s31.333 62.666 39 99.999s11.5 75 11.5 113v357h51v-357c0 -47.333 -5.16699 -92.666 -15.5 -135.999s-27.166 -81.5 -50.499 -114.5s-53.666 -59.167 -90.999 -78.5s-83.333 -29 -138 -29
c-56.667 0 -104 10.167 -142 30.5s-68.5 47.333 -91.5 81s-39.333 71.834 -49 114.501s-14.5 86.667 -14.5 132v357h51v-357c0 -39.333 3.83301 -77.666 11.5 -114.999s21 -70.5 40 -99.5s44.167 -52.333 75.5 -70s70.666 -26.5 117.999 -26.5zM314.999 816.998l-29 16
l59 85h53zM430.999 816.998l-30 16l60 85h53z" />
    <glyph glyph-name="uhungarumlaut" unicode="&#x171;" horiz-adv-x="587" 
d="M239 -10c-110.667 0 -166 76.667 -166 230v300h50v-293c0 -128 43.667 -192 131 -192c22 0 43.333 3.83301 64 11.5s40 18.334 58 32.001s33.833 30.167 47.5 49.5s24.5 40.666 32.5 63.999v328h50v-450c0 -16.667 7 -25 21 -25v-45
c-3.33301 -0.666992 -6.33301 -1 -9 -1h-6c-13.333 0 -25.166 4.16699 -35.499 12.5s-15.5 19.5 -15.5 33.5v78c-22.667 -42 -53.834 -74.667 -93.501 -98s-82.5 -35 -128.5 -35zM224 629l-29 16l59 85h53zM340 629l-30 16l60 85h53z" />
    <glyph glyph-name="Uogonek" unicode="&#x172;" horiz-adv-x="756" 
d="M378 42c48 0 87.835 9.00098 119.502 27.001s56.667 41.667 75 71s31.333 62.666 39 99.999s11.5 75 11.5 113v357h51v-357c0 -46.667 -5 -91.167 -15 -133.5s-26 -79.666 -48 -111.999s-50.833 -58.5 -86.5 -78.5s-79.167 -31 -130.5 -33
c-29.333 -19.333 -49.833 -35.833 -61.5 -49.5s-17.5 -28.167 -17.5 -43.5c0 -25.333 16.333 -40.333 49 -45l-16 -30c-21.333 4.66699 -37.833 13 -49.5 25s-17.5 26.333 -17.5 43s5.66699 33 17 49s29.666 33 54.999 51c-51.333 3.33301 -94.333 15.666 -129 36.999
s-62.5 48.5 -83.5 81.5s-36 70.167 -45 111.5s-13.5 83.666 -13.5 126.999v357h51v-357c0 -39.333 3.83301 -77.666 11.5 -114.999s21 -70.5 40 -99.5s44.167 -52.333 75.5 -70s70.666 -26.5 117.999 -26.5z" />
    <glyph glyph-name="uogonek" unicode="&#x173;" horiz-adv-x="587" 
d="M239 -10c-110.667 0 -165.998 76.667 -165.998 230v300h50v-293c0 -128 43.667 -192 131 -192c22 0 43.333 3.83301 64 11.5s40 18.334 58 32.001s33.833 30.167 47.5 49.5s24.5 40.666 32.5 63.999v328h50v-450c0 -16.667 7 -25 21 -25v-45
c-30 -19.333 -51.167 -36 -63.5 -50s-18.5 -28.667 -18.5 -44c0 -25.333 16.333 -40.333 49 -45l-16 -30c-21.333 4.66699 -37.833 13 -49.5 25s-17.5 26.333 -17.5 43c0 17.333 6.16699 34.333 18.5 51s32.166 34.334 59.499 53.001c-8 3.33301 -14.667 8.66602 -20 15.999
s-8 16 -8 26v78c-22.667 -42 -53.834 -74.667 -93.501 -98s-82.5 -35 -128.5 -35z" />
    <glyph glyph-name="Wcircumflex" unicode="&#x174;" horiz-adv-x="1043" 
d="M406 836l96 81h37l97 -81l-30 -17l-85 63l-85 -63zM365 705h50l106 -258l106 258h50l-125 -299l149 -346l272 650h56l-304 -710h-47l-156 365l-157 -365h-47l-303 710h55l273 -650l147 346z" />
    <glyph glyph-name="wcircumflex" unicode="&#x175;" horiz-adv-x="806" 
d="M288 649l96 81h37l97 -81l-30 -17l-85 63l-85 -63zM737 520h50l-225 -520h-42l-117 275l-117 -275h-42l-225 520h49l199 -465l109 256l-88 208h43l72 -172l71 172h44l-88 -208l109 -256z" />
    <glyph glyph-name="Ycircumflex" unicode="&#x176;" horiz-adv-x="647" 
d="M75 710l248 -393l249 393h57l-280 -442v-268h-51v270l-279 440h56zM208 836l96 81h37l97 -81l-30 -17l-85 63l-85 -63z" />
    <glyph glyph-name="ycircumflex" unicode="&#x177;" horiz-adv-x="540" 
d="M113 -176c3.33301 -0.666992 8.33105 -1.00098 14.998 -1.00098s12.834 0.333008 18.501 1s11.167 2.33398 16.5 5.00098c4 2 7.66699 4.83301 11 8.5s8 11.167 14 22.5s13.667 28 23 50l38 90l-232 520h52l207 -471l193 471h49l-285 -684
c-7.33301 -18.667 -19.166 -33.167 -35.499 -43.5s-38.5 -15.5 -66.5 -15.5h-8.5c-3 0 -6.16699 0.333008 -9.5 1v46zM160.998 648.999l96 81h37l97 -81l-30 -17l-85 63l-85 -63z" />
    <glyph glyph-name="Ydieresis" unicode="&#x178;" horiz-adv-x="647" 
d="M75 710l248 -393l249 393h57l-280 -442v-268h-51v270l-279 440h56zM233 828v88h44v-88h-44zM369 828v88h44v-88h-44z" />
    <glyph glyph-name="Zacute" unicode="&#x179;" horiz-adv-x="627" 
d="M330 816l-35 16l61 85h58zM30 42l505 622h-498v46h558v-42l-501 -622h499v-46h-563v42z" />
    <glyph glyph-name="zacute" unicode="&#x17a;" horiz-adv-x="490" 
d="M256 629l-35 16l61 85h58zM32 36l368 445h-362v39h418v-36l-367 -445h365v-39h-422v36z" />
    <glyph glyph-name="Zdotaccent" unicode="&#x17b;" horiz-adv-x="627" 
d="M30 42l505 622h-498v46h558v-42l-501 -622h499v-46h-563v42zM307 827v90h46v-90h-46z" />
    <glyph glyph-name="zdotaccent" unicode="&#x17c;" horiz-adv-x="490" 
d="M32 36l368 445h-362v39h418v-36l-367 -445h365v-39h-422v36zM234 640v90h46v-90h-46z" />
    <glyph glyph-name="Zcaron" unicode="&#x17d;" horiz-adv-x="627" 
d="M246 917l85 -63l85 63l30 -17l-97 -81h-37l-96 81zM30 42l505 622h-498v46h558v-42l-501 -622h499v-46h-563v42z" />
    <glyph glyph-name="zcaron" unicode="&#x17e;" horiz-adv-x="490" 
d="M172 730l85 -63l85 63l30 -17l-97 -81h-37l-96 81zM32 36l368 445h-362v39h418v-36l-367 -445h365v-39h-422v36z" />
    <glyph glyph-name="Schwa" unicode="&#x18f;" horiz-adv-x="738" 
d="M365 -8c-47.333 0 -91.332 9.33203 -131.999 27.999s-76 44.334 -106 77.001s-53.667 70.667 -71 114s-26 90 -26 140c0 3.33301 0.166992 7.83301 0.5 13.5s0.833008 9.16699 1.5 10.5h605c-3.33301 42 -13 80.833 -29 116.5s-36.5 66.5 -61.5 92.5
s-53.667 46.333 -86 61s-66.5 22 -102.5 22c-25.333 0 -49.833 -3.5 -73.5 -10.5s-45.834 -17 -66.501 -30s-38.667 -28.333 -54 -46s-27 -37.5 -35 -59.5l-49 23c10.667 24.667 25.834 47.5 45.501 68.5s42 39 67 54s52.167 26.833 81.5 35.5s59 13 89 13
c45.333 0 88 -9.66699 128 -29s75 -45.5 105 -78.5s53.667 -71.667 71 -116s26 -91.833 26 -142.5c0 -50 -8.5 -96.667 -25.5 -140s-40.333 -81 -70 -113s-64.334 -57.333 -104.001 -76s-82.5 -28 -128.5 -28zM365.001 39.999c36.667 0 71.168 7.33301 103.501 22
s60.666 34.834 84.999 60.501s44 56.167 59 91.5s23.5 73.666 25.5 114.999h-552c2.66699 -41.333 11.667 -79.666 27 -114.999s35.5 -65.833 60.5 -91.5s53.833 -45.834 86.5 -60.501s67.667 -22 105 -22z" />
    <glyph glyph-name="florin" unicode="&#x192;" horiz-adv-x="519" 
d="M139 -177c-21.333 0 -41.166 2.83203 -59.499 8.49902s-34.833 15.167 -49.5 28.5l27 33c11.333 -9.33301 23.666 -15.666 36.999 -18.999s26.666 -5 39.999 -5c12.667 0 25 2.5 37 7.5s22.667 12 32 21s17 19.667 23 32s9 25.833 9 40.5v448h-74v41h74v78
c0 64 13 113.833 39 149.5s62 53.5 108 53.5c19.333 0 38.333 -3 57 -9s34.334 -14 47.001 -24l-19 -36c-8.66699 7.33301 -20 13.333 -34 18s-28.333 7 -43 7c-34 0 -60 -13.5 -78 -40.5s-27 -66.167 -27 -117.5v-79h148v-41h-148v-447c0 -22 -4.16699 -42 -12.5 -60
s-19.5 -33.5 -33.5 -46.5s-29.667 -23.167 -47 -30.5s-35 -11 -53 -11z" />
    <glyph glyph-name="uni01C4" unicode="&#x1c4;" horiz-adv-x="1340" 
d="M959 917l85 -63l85 63l30 -17l-97 -81h-37l-96 81zM743 42l505 622h-498v46h558v-42l-501 -622h499v-46h-563v42zM93 0v710h236c56 0 105.167 -9.33301 147.5 -28s77.5 -44 105.5 -76s49 -69.5 63 -112.5s21 -88.833 21 -137.5c0 -54 -7.83301 -102.833 -23.5 -146.5
s-38.167 -81 -67.5 -112s-64.833 -55 -106.5 -72s-88.167 -25.5 -139.5 -25.5h-236zM615 356c0 44.667 -6.33496 85.834 -19.002 123.501s-31.167 70.167 -55.5 97.5s-54.166 48.666 -89.499 63.999s-76 23 -122 23h-185v-618h185c46.667 0 87.834 7.83301 123.501 23.5
s65.5 37.5 89.5 65.5s42.167 60.833 54.5 98.5s18.5 78.5 18.5 122.5z" />
    <glyph glyph-name="uni01C5" unicode="&#x1c5;" horiz-adv-x="1203" 
d="M885 730l85 -63l85 63l30 -17l-97 -81h-37l-96 81zM745 36l368 445h-362v39h418v-36l-367 -445h365v-39h-422v36zM93 0v710h236c56 0 105.167 -9.33301 147.5 -28s77.5 -44 105.5 -76s49 -69.5 63 -112.5s21 -88.833 21 -137.5c0 -54 -7.83301 -102.833 -23.5 -146.5
s-38.167 -81 -67.5 -112s-64.833 -55 -106.5 -72s-88.167 -25.5 -139.5 -25.5h-236zM615 356c0 44.667 -6.33496 85.834 -19.002 123.501s-31.167 70.167 -55.5 97.5s-54.166 48.666 -89.499 63.999s-76 23 -122 23h-185v-618h185c46.667 0 87.834 7.83301 123.501 23.5
s65.5 37.5 89.5 65.5s42.167 60.833 54.5 98.5s18.5 78.5 18.5 122.5z" />
    <glyph glyph-name="uni01C6" unicode="&#x1c6;" horiz-adv-x="1105" 
d="M787 730l85 -63l85 63l30 -17l-97 -81h-37l-96 81zM647 36l368 445h-362v39h418v-36l-367 -445h365v-39h-422v36zM292 -10c-36 0 -69.333 7.50098 -100 22.501s-57.167 35 -79.5 60s-39.666 53.667 -51.999 86s-18.5 65.833 -18.5 100.5c0 36 6 70.333 18 103
s28.667 61.334 50 86.001s46.5 44.334 75.5 59.001s60.833 22 95.5 22c22.667 0 44 -3.33301 64 -10s38.667 -15.5 56 -26.5s33 -23.833 47 -38.5s26 -30.334 36 -47.001v323h50v-660c0 -16.667 7 -25 21 -25v-45c-4 -0.666992 -7.33301 -1.16699 -10 -1.5
s-5.33398 -0.5 -8.00098 -0.5c-13.333 0 -24.666 5.16699 -33.999 15.5s-14 21.166 -14 32.499v58c-21.333 -34.667 -49.833 -62.334 -85.5 -83.001s-72.834 -31 -111.501 -31zM301 35.001c18 0 37.3301 3.66895 57.9971 11.002s39.834 17.5 57.501 30.5
s32.834 27.833 45.501 44.5s20 34.667 22 54v171c-7.33301 18.667 -17.833 36.5 -31.5 53.5s-29.167 31.667 -46.5 44s-36 22.166 -56 29.499s-39.333 11 -58 11c-30 0 -57.333 -6.5 -82 -19.5s-45.667 -30 -63 -51s-30.666 -45 -39.999 -72s-14 -54.833 -14 -83.5
c0 -30 5.33301 -58.333 16 -85s25.5 -50.334 44.5 -71.001s41 -37 66 -49s52.167 -18 81.5 -18z" />
    <glyph glyph-name="uni01C7" unicode="&#x1c7;" horiz-adv-x="1060" 
d="M613 74c16.667 -11.333 36.667 -20.502 60 -27.502s49.333 -10.5 78 -10.5c38.667 0 69.334 7 92.001 21s40 34.333 52 61s19.833 59.5 23.5 98.5s5.5 83.167 5.5 132.5v361h51v-361c0 -54 -2.33301 -103.167 -7 -147.5s-14.834 -82.166 -30.501 -113.499
s-38.167 -55.666 -67.5 -72.999s-69 -26 -119 -26c-60 0 -111.333 14.667 -154 44zM93 -0.00195312v710h51v-664h424v-46h-475z" />
    <glyph glyph-name="uni01C8" unicode="&#x1c8;" horiz-adv-x="795" 
d="M571 -177c-21.333 0 -41.165 2.83105 -59.498 8.49805s-34.833 15.167 -49.5 28.5l27 33c11.333 -9.33301 23.666 -15.666 36.999 -18.999s26.666 -5 39.999 -5c12.667 0 25 2.5 37 7.5s22.667 12 32 21s17 19.667 23 32s9 25.833 9 40.5v550h50v-548
c0 -22 -4.16699 -42 -12.5 -60s-19.5 -33.667 -33.5 -47s-29.667 -23.666 -47 -30.999s-35 -11 -53 -11zM667.001 637.998v92h50v-92h-50zM93.001 -0.00195312v710h51v-664h424v-46h-475z" />
    <glyph glyph-name="uni01C9" unicode="&#x1c9;" horiz-adv-x="473" 
d="M249 -177c-21.333 0 -41.165 2.83105 -59.498 8.49805s-34.833 15.167 -49.5 28.5l27 33c11.333 -9.33301 23.666 -15.666 36.999 -18.999s26.666 -5 39.999 -5c12.667 0 25 2.5 37 7.5s22.667 12 32 21s17 19.667 23 32s9 25.833 9 40.5v550h50v-548
c0 -22 -4.16699 -42 -12.5 -60s-19.5 -33.667 -33.5 -47s-29.667 -23.666 -47 -30.999s-35 -11 -53 -11zM345.001 637.998v92h50v-92h-50zM82.001 729.998l51.001 -0.000976562v-627c0 -19.333 5.5 -34.666 16.5 -45.999s26.167 -17 45.5 -17
c7.33301 0 16.166 0.833008 26.499 2.5s19.833 4.16699 28.5 7.5l10 -40c-11.333 -4.66699 -25.333 -8.5 -42 -11.5s-31 -4.5 -43 -4.5c-28 0 -50.5 8.5 -67.5 25.5s-25.5 39.833 -25.5 68.5v642z" />
    </font>
</defs>
</svg>
